<svg width="822" height="240" viewBox="0 0 822 240" fill="none" xmlns="http://www.w3.org/2000/svg">
<g clip-path="url(#clip0_7948_53642)">
<g clip-path="url(#clip1_7948_53642)">
<path d="M246.367 257.731V217.531H154.267V189.331L252.967 46.2314H284.767V185.731H314.467V217.531H284.767V257.731H246.367ZM246.367 185.731V92.1314H255.067L184.267 195.931V185.731H246.367Z" fill="#B1DCDE"/>
<path d="M414.55 260.731C397.95 260.731 383.85 256.531 372.25 248.131C360.85 239.531 352.15 227.131 346.15 210.931C340.35 194.731 337.45 174.931 337.45 151.531C337.45 127.931 340.35 108.131 346.15 92.1314C352.15 75.9314 360.85 63.7314 372.25 55.5314C383.85 47.3314 397.95 43.2314 414.55 43.2314C431.35 43.2314 445.45 47.3314 456.85 55.5314C468.45 63.7314 477.15 75.8314 482.95 91.8314C488.75 107.831 491.65 127.631 491.65 151.231C491.65 174.631 488.65 194.531 482.65 210.931C476.85 227.131 468.25 239.531 456.85 248.131C445.45 256.531 431.35 260.731 414.55 260.731ZM414.55 229.231C428.15 229.231 438.15 223.031 444.55 210.631C451.15 198.031 454.45 178.231 454.45 151.231C454.45 124.431 451.15 105.031 444.55 93.0314C438.15 80.8315 428.15 74.7315 414.55 74.7315C401.15 74.7315 391.15 80.8315 384.55 93.0314C377.95 105.031 374.65 124.531 374.65 151.531C374.65 178.331 377.95 198.031 384.55 210.631C391.15 223.031 401.15 229.231 414.55 229.231Z" fill="#B1DCDE"/>
<path d="M593.233 260.731C583.633 260.731 574.233 259.731 565.033 257.731C556.033 255.931 547.633 253.231 539.833 249.631C532.033 246.031 525.233 241.731 519.433 236.731L532.033 207.331C541.433 214.531 551.033 219.831 560.833 223.231C570.633 226.631 581.033 228.331 592.033 228.331C600.833 228.331 608.233 227.131 614.233 224.731C620.233 222.331 624.733 218.731 627.733 213.931C630.933 209.131 632.533 203.331 632.533 196.531C632.533 186.531 629.133 179.131 622.333 174.331C615.733 169.331 606.033 166.831 593.233 166.831H559.333V135.031H589.633C597.233 135.031 603.733 133.831 609.133 131.431C614.533 128.831 618.733 125.231 621.733 120.631C624.733 116.031 626.233 110.431 626.233 103.831C626.233 94.6315 623.133 87.6315 616.933 82.8315C610.933 78.0314 602.133 75.6314 590.533 75.6314C580.133 75.6314 570.433 77.4314 561.433 81.0314C552.433 84.4314 543.833 89.8314 535.633 97.2314L523.033 68.4314C531.433 60.4314 541.933 54.2315 554.533 49.8314C567.133 45.4314 580.233 43.2314 593.833 43.2314C608.433 43.2314 620.933 45.5314 631.333 50.1314C641.733 54.5314 649.633 60.9314 655.033 69.3314C660.633 77.5315 663.433 87.5315 663.433 99.3315C663.433 111.931 659.933 122.831 652.933 132.031C645.933 141.031 636.333 147.031 624.133 150.031V146.431C633.733 148.031 641.933 151.231 648.733 156.031C655.533 160.831 660.733 166.931 664.333 174.331C667.933 181.731 669.733 190.231 669.733 199.831C669.733 212.231 666.633 223.031 660.433 232.231C654.233 241.431 645.433 248.531 634.033 253.531C622.633 258.331 609.033 260.731 593.233 260.731Z" fill="#B1DCDE"/>
</g>
<path d="M724.424 123L691 156.424L724.424 189.848L757.848 156.424L724.424 123Z" fill="#E0F1F2"/>
<path d="M86.6985 42.0007L57 71.6992L86.6985 101.398L116.397 71.6992L86.6985 42.0007Z" fill="#E0F1F2"/>
<path d="M137.639 73.6259L173.671 82.3574L182.402 46.3257L146.371 37.5941L137.639 73.6259Z" fill="#E0F1F2"/>
<path d="M79.9212 131.226L87.8174 160.695L117.286 152.799L109.39 123.33L79.9212 131.226Z" fill="#E0F1F2"/>
<path d="M784.816 239.45L36.1843 240.001C35.5268 239.994 34.9966 239.035 35 237.857C35.0034 236.688 35.5317 235.742 36.1843 235.736L784.816 235.186C785.473 235.192 786.003 236.151 786 237.329C785.997 238.498 785.468 239.444 784.816 239.45Z" fill="#4BB0B1"/>
</g>
<defs>
<clipPath id="clip0_7948_53642">
<rect width="822" height="240" fill="white"/>
</clipPath>
<clipPath id="clip1_7948_53642">
<rect width="531" height="193" fill="white" transform="translate(146 42)"/>
</clipPath>
</defs>
</svg>
