<svg width="500" height="900" viewBox="0 0 500 900" fill="none" xmlns="http://www.w3.org/2000/svg">
<g clip-path="url(#clip0_199_12103)">
<rect width="500" height="900" fill="#2E2E2E"/>
<path d="M216.449 798.246C212.312 798.246 208.216 797.432 204.393 795.851C200.571 794.27 197.098 791.952 194.173 789.031C191.247 786.109 188.927 782.641 187.343 778.824C185.76 775.006 184.945 770.915 184.945 766.783V730.138C184.945 656.814 244.464 597.374 317.883 597.374C391.303 597.374 450.821 656.814 450.821 730.138V758.947C450.821 764.107 449.803 769.218 447.826 773.986C445.848 778.754 442.95 783.086 439.296 786.736C435.642 790.385 431.303 793.28 426.529 795.255C421.755 797.23 416.638 798.246 411.47 798.246" fill="#B1DCDE"/>
<path d="M424.669 837.793V836.538C434.936 836.526 444.778 832.448 452.038 825.198C459.297 817.948 463.38 808.119 463.392 797.866V722.605C463.392 649.745 404.038 590.469 331.083 590.469C258.127 590.469 198.773 649.745 198.773 722.605V805.702C198.782 813.878 202.038 821.715 207.827 827.496C213.615 833.277 221.463 836.528 229.649 836.538V837.793C221.13 837.783 212.962 834.399 206.938 828.383C200.914 822.367 197.526 814.21 197.516 805.702V722.605C197.516 649.053 257.434 589.214 331.083 589.214C404.731 589.214 464.649 649.053 464.649 722.605V797.866C464.637 808.451 460.421 818.6 452.926 826.085C445.431 833.57 435.269 837.781 424.669 837.793Z" fill="#3F3D56"/>
<path d="M465.278 789.458H196.888V899.938H465.278V789.458Z" fill="#3F3D56"/>
<path d="M372.096 675.899L346.482 694.085L364.691 719.666L390.306 701.48L372.096 675.899Z" fill="#256DA2"/>
<path d="M374.157 669.045L348.543 687.23L366.753 712.811L392.367 694.625L374.157 669.045Z" stroke="#3F3D56" stroke-width="2" stroke-miterlimit="10"/>
<path d="M324.483 663.913C331.773 663.913 337.682 658.011 337.682 650.731C337.682 643.451 331.773 637.549 324.483 637.549C317.193 637.549 311.283 643.451 311.283 650.731C311.283 658.011 317.193 663.913 324.483 663.913Z" fill="#256DA2"/>
<path d="M320.712 662.029C328.002 662.029 333.911 656.128 333.911 648.847C333.911 641.567 328.002 635.665 320.712 635.665C313.422 635.665 307.512 641.567 307.512 648.847C307.512 656.128 313.422 662.029 320.712 662.029Z" stroke="#3F3D56" stroke-width="2" stroke-miterlimit="10"/>
<path d="M285.471 703.409L301.269 712.49L317.067 721.572L301.293 730.694L285.519 739.817L285.495 721.613L285.471 703.409Z" fill="#256DA2"/>
<path d="M282.933 710.304L298.73 719.386L314.528 728.467L298.754 737.59L282.98 746.712L282.956 728.508L282.933 710.304Z" stroke="#3F3D56" stroke-width="2" stroke-miterlimit="10"/>
<path d="M221.046 673.846C223.441 665.299 227.866 657.457 233.946 650.984C240.026 644.512 247.58 639.6 255.967 636.667C258.248 635.884 257.268 632.245 254.964 633.036C245.954 636.155 237.833 641.405 231.294 648.337C224.755 655.268 219.991 663.677 217.409 672.844C216.762 675.184 220.4 676.183 221.046 673.846Z" fill="white"/>
<path d="M213.893 694.415C216.32 694.415 216.324 690.648 213.893 690.648C211.466 690.648 211.462 694.415 213.893 694.415Z" fill="white"/>
<path d="M117.69 832.143C128.799 832.143 137.804 823.15 137.804 812.056C137.804 800.962 128.799 791.969 117.69 791.969C106.582 791.969 97.5769 800.962 97.5769 812.056C97.5769 823.15 106.582 832.143 117.69 832.143Z" fill="#B1DCDE"/>
<path d="M337.682 533.974C348.791 533.974 357.796 524.981 357.796 513.887C357.796 502.793 348.791 493.8 337.682 493.8C326.574 493.8 317.569 502.793 317.569 513.887C317.569 524.981 326.574 533.974 337.682 533.974Z" fill="#B1DCDE"/>
<path d="M223.525 530.585C223.537 541.184 221.762 551.708 218.275 561.717C218.115 562.182 217.949 562.641 217.782 563.106C210.643 582.493 197.365 599.017 179.969 610.161C178.782 610.925 177.581 611.654 176.358 612.363C162.46 620.42 146.727 624.776 130.664 625.016C130.136 625.023 129.608 625.029 129.08 625.029C128.4 625.029 127.726 625.023 127.053 625.009C110.968 624.689 95.2347 620.246 81.3583 612.106C80.1361 611.391 78.9324 610.648 77.7472 609.877C58.4336 597.357 44.3513 578.221 38.1416 556.057C31.9318 533.894 34.0212 510.227 44.018 489.495C44.2402 489.029 44.4694 488.571 44.7055 488.106C52.5788 472.481 64.6361 459.349 79.5337 450.174C94.4314 440.999 111.584 436.141 129.08 436.141C146.577 436.141 163.73 440.999 178.627 450.174C193.525 459.349 205.582 472.481 213.455 488.106C213.692 488.571 213.921 489.029 214.143 489.495C220.339 502.305 223.547 516.355 223.525 530.585Z" fill="#B1DCDE"/>
<path d="M194.303 561.717V563.106H202.761V561.717H194.303ZM177.386 561.717V563.106H185.845V561.717H177.386ZM160.47 561.717V563.106H168.928V561.717H160.47ZM143.553 561.717V563.106H152.011V561.717H143.553ZM126.636 561.717V563.106H135.095V561.717H126.636ZM109.72 561.717V563.106H118.178V561.717H109.72ZM92.8031 561.717V563.106H101.261V561.717H92.8031ZM75.8934 561.717V563.106H84.3448V561.717H75.8934ZM58.9767 561.717V563.106H67.435V561.717H58.9767ZM42.0601 561.717V563.106H50.5184V561.717H42.0601ZM218.275 561.717H211.22V563.106H217.782L218.275 561.717Z" fill="#B1DCDE"/>
<path d="M211.22 551.995V553.384H219.678V551.995H211.22ZM194.303 551.995V553.384H202.761V551.995H194.303ZM177.386 551.995V553.384H185.845V551.995H177.386ZM160.47 551.995V553.384H168.928V551.995H160.47ZM143.553 551.995V553.384H152.011V551.995H143.553ZM126.636 551.995V553.384H135.095V551.995H126.636ZM109.72 551.995V553.384H118.178V551.995H109.72ZM92.8031 551.995V553.384H101.261V551.995H92.8031ZM75.8934 551.995V553.384H84.3448V551.995H75.8934ZM58.9767 551.995V553.384H67.435V551.995H58.9767ZM42.0601 551.995V553.384H50.5184V551.995H42.0601Z" fill="#B1DCDE"/>
<path d="M211.22 531.856V533.245H219.678V531.856H211.22ZM194.303 531.856V533.245H202.761V531.856H194.303ZM177.386 531.856V533.245H185.845V531.856H177.386ZM160.47 531.856V533.245H168.928V531.856H160.47ZM143.553 531.856V533.245H152.011V531.856H143.553ZM126.636 531.856V533.245H135.095V531.856H126.636ZM109.72 531.856V533.245H118.178V531.856H109.72ZM92.8031 531.856V533.245H101.261V531.856H92.8031ZM75.8934 531.856V533.245H84.3448V531.856H75.8934ZM58.9767 531.856V533.245H67.435V531.856H58.9767ZM42.0601 531.856V533.245H50.5184V531.856H42.0601Z" fill="#B1DCDE"/>
<path d="M211.22 517.967V519.356H219.678V517.967H211.22ZM194.303 517.967V519.356H202.761V517.967H194.303ZM177.386 517.967V519.356H185.845V517.967H177.386ZM160.47 517.967V519.356H168.928V517.967H160.47ZM143.553 517.967V519.356H152.011V517.967H143.553ZM126.636 517.967V519.356H135.095V517.967H126.636ZM109.72 517.967V519.356H118.178V517.967H109.72ZM92.8031 517.967V519.356H101.261V517.967H92.8031ZM75.8934 517.967V519.356H84.3448V517.967H75.8934ZM58.9767 517.967V519.356H67.435V517.967H58.9767ZM42.0601 517.967V519.356H50.5184V517.967H42.0601Z" fill="#B1DCDE"/>
<path d="M213.456 488.106H211.22V489.495H214.143C213.921 489.03 213.692 488.572 213.456 488.106ZM194.303 488.106V489.495H202.761V488.106H194.303ZM177.386 488.106V489.495H185.845V488.106H177.386ZM160.47 488.106V489.495H168.928V488.106H160.47ZM143.553 488.106V489.495H152.011V488.106H143.553ZM126.636 488.106V489.495H135.095V488.106H126.636ZM109.72 488.106V489.495H118.178V488.106H109.72ZM92.803 488.106V489.495H101.261V488.106H92.803ZM75.8933 488.106V489.495H84.3447V488.106H75.8933ZM58.9766 488.106V489.495H67.435V488.106H58.9766ZM44.7058 488.106C44.4697 488.572 44.2405 489.03 44.0183 489.495H50.5183V488.106H44.7058Z" fill="#B1DCDE"/>
<path d="M179.97 492.787V610.162C178.782 610.926 177.581 611.655 176.359 612.363V492.787H179.97Z" fill="#3F3D56"/>
<path d="M130.664 531.676V625.016C130.137 625.023 129.609 625.03 129.081 625.03C128.4 625.03 127.727 625.023 127.053 625.009V531.676H130.664Z" fill="#3F3D56"/>
<path d="M81.3586 492.787V612.107C80.1364 611.391 78.9327 610.648 77.7476 609.877V492.787H81.3586Z" fill="#3F3D56"/>
<path d="M174.692 504.113C181.979 504.113 187.886 498.206 187.886 490.919C187.886 483.632 181.979 477.725 174.692 477.725C167.405 477.725 161.498 483.632 161.498 490.919C161.498 498.206 167.405 504.113 174.692 504.113Z" fill="#256DA2"/>
<path d="M177.712 503.03C185.002 503.03 190.911 497.129 190.911 489.848C190.911 482.568 185.002 476.666 177.712 476.666C170.422 476.666 164.512 482.568 164.512 489.848C164.512 497.129 170.422 503.03 177.712 503.03Z" stroke="#3F3D56" stroke-width="2" stroke-miterlimit="10"/>
<path d="M132.081 543.002C139.368 543.002 145.275 537.095 145.275 529.808C145.275 522.521 139.368 516.613 132.081 516.613C124.794 516.613 118.886 522.521 118.886 529.808C118.886 537.095 124.794 543.002 132.081 543.002Z" fill="#256DA2"/>
<path d="M129.712 541.03C137.002 541.03 142.911 535.129 142.911 527.848C142.911 520.568 137.002 514.666 129.712 514.666C122.422 514.666 116.512 520.568 116.512 527.848C116.512 535.129 122.422 541.03 129.712 541.03Z" stroke="#3F3D56" stroke-width="2" stroke-miterlimit="10"/>
<path d="M81.7753 505.891C89.0623 505.891 94.9697 499.983 94.9697 492.696C94.9697 485.409 89.0623 479.502 81.7753 479.502C74.4882 479.502 68.5808 485.409 68.5808 492.696C68.5808 499.983 74.4882 505.891 81.7753 505.891Z" fill="#256DA2"/>
<path d="M79.7117 504.03C87.0016 504.03 92.9112 498.129 92.9112 490.848C92.9112 483.568 87.0016 477.666 79.7117 477.666C72.4218 477.666 66.5122 483.568 66.5122 490.848C66.5122 498.129 72.4218 504.03 79.7117 504.03Z" stroke="#3F3D56" stroke-width="2" stroke-miterlimit="10"/>
<path d="M79.365 636.639C83.4268 636.639 86.7196 633.346 86.7196 629.284C86.7196 625.222 83.4268 621.93 79.365 621.93C75.3032 621.93 72.0105 625.222 72.0105 629.284C72.0105 633.346 75.3032 636.639 79.365 636.639Z" fill="#B1DCDE"/>
<path d="M128.671 644.277C132.733 644.277 136.025 640.985 136.025 636.923C136.025 632.861 132.733 629.568 128.671 629.568C124.609 629.568 121.316 632.861 121.316 636.923C121.316 640.985 124.609 644.277 128.671 644.277Z" fill="#B1DCDE"/>
<path d="M177.976 635.249C182.038 635.249 185.331 631.956 185.331 627.895C185.331 623.833 182.038 620.54 177.976 620.54C173.914 620.54 170.622 623.833 170.622 627.895C170.622 631.956 173.914 635.249 177.976 635.249Z" fill="#B1DCDE"/>
<path d="M233.528 522.223V522.222C233.55 508.067 230.359 494.093 224.196 481.35L224.195 481.348C223.975 480.888 223.748 480.434 223.513 479.97L223.512 479.969C215.68 464.426 203.687 451.364 188.868 442.238C174.049 433.111 156.987 428.278 139.583 428.278C122.18 428.278 105.118 433.111 90.2989 442.238C75.4801 451.364 63.4866 464.426 55.6549 479.969L55.6543 479.97C55.419 480.434 55.1919 480.888 54.9721 481.348L54.9713 481.35C45.0274 501.972 42.949 525.514 49.1259 547.56C55.3029 569.606 69.3107 588.641 88.5221 601.095L88.5227 601.095C89.7013 601.862 90.8983 602.601 92.1138 603.312L92.1142 603.312C105.917 611.409 121.567 615.828 137.566 616.146L137.566 616.146C138.236 616.16 138.906 616.167 139.583 616.167C140.107 616.167 140.632 616.16 141.16 616.153M233.528 522.223L141.167 616.653M233.528 522.223C233.54 532.766 231.775 543.235 228.306 553.19L228.305 553.192C228.18 553.557 228.051 553.917 227.919 554.283C227.885 554.379 227.85 554.475 227.815 554.572L233.528 522.223ZM141.16 616.153L141.167 616.653M141.16 616.153C141.16 616.153 141.16 616.153 141.159 616.153L141.167 616.653M141.16 616.153C157.137 615.915 172.786 611.582 186.61 603.568L186.861 604C172.963 612.057 157.23 616.414 141.167 616.653" stroke="#3F3D56"/>
</g>
<defs>
<clipPath id="clip0_199_12103">
<rect width="500" height="900" fill="white"/>
</clipPath>
</defs>
</svg>
