<svg width="100" height="100" viewBox="0 0 100 100" fill="none" xmlns="http://www.w3.org/2000/svg">
<path d="M33.2615 84.7626C29.8063 86.8204 23.6502 89.3989 17.3594 86.7491L13.2928 85.0361L21.4419 75.9645C14.939 68.8443 11.3414 59.5731 11.3513 49.9607C11.3612 40.3482 14.9779 31.0844 21.4954 23.9774C28.0129 16.8704 36.9635 12.4303 46.6001 11.5239C56.2366 10.6174 65.8675 13.3096 73.6129 19.0749C81.3582 24.8403 86.6621 33.265 88.4893 42.7046C90.3166 52.1443 88.5359 61.9213 83.495 70.1274C78.4541 78.3335 70.5146 84.3797 61.2264 87.0857C51.9382 89.7918 41.9679 88.9635 33.2615 84.7626Z" fill="white"/>
<path d="M33.0834 85.3176C29.7771 87.2579 23.4788 89.9394 17.0576 87.2165L12.4523 85.2639L20.7115 76.0097C15.5727 70.2318 12.2592 63.0632 11.1883 55.4067C10.1174 47.7501 11.337 39.9481 14.6935 32.983C18.05 26.018 23.3934 20.2014 30.0505 16.2659C36.7077 12.3304 44.3811 10.452 52.1042 10.8671C59.8274 11.2822 67.255 13.9723 73.4516 18.5987C79.6482 23.2251 84.3367 29.5809 86.9266 36.8655C89.5166 44.1502 89.8921 52.038 88.006 59.5356C86.1199 67.0332 82.0565 73.8053 76.3275 78.999C70.5738 84.2466 63.3805 87.6527 55.6736 88.7788C47.9667 89.9049 40.099 88.6994 33.0834 85.3176ZM78.3877 24.2477C75.007 20.5199 70.9248 17.4943 66.3742 15.3438C61.8236 13.1932 56.8937 11.9598 51.8661 11.7139C46.8385 11.4681 41.8117 12.2146 37.0729 13.9109C32.334 15.6073 27.9758 18.2201 24.2473 21.6002C20.5187 24.9804 17.4929 29.0616 15.3426 33.6108C13.1922 38.16 11.9595 43.0881 11.7148 48.1136C11.4701 53.1391 12.2183 58.1636 13.9165 62.9C15.6148 67.6364 18.2298 71.9921 21.6124 75.7181L21.8737 76.0063L13.9015 84.9392L17.3954 86.4206C23.597 89.0502 29.7337 86.3186 32.8399 84.4566L33.0407 84.3361L33.2514 84.4385C41.2583 88.3274 50.3699 89.3087 59.0219 87.2139C67.6739 85.1192 75.3264 80.0791 80.6657 72.959C86.005 65.8389 88.698 57.0829 88.2823 48.1942C87.8667 39.3056 84.3682 30.8389 78.3877 24.2477Z" fill="#008F8D"/>
<path opacity="0.1" d="M82.8863 49.7294C82.8858 40.8137 79.5375 32.2213 73.5008 25.6443C67.4641 19.0673 59.1766 14.9824 50.2703 14.194C51.3124 14.103 52.3666 14.0537 53.4325 14.0537C62.9177 14.0594 72.0125 17.8206 78.7176 24.5105C85.4227 31.2003 89.1892 40.2713 89.1892 49.7294C89.1892 59.1874 85.4227 68.2584 78.7176 74.9483C72.0125 81.6382 62.9177 85.3994 53.4325 85.4051C52.3683 85.4051 51.3159 85.3552 50.2753 85.2643C59.1806 84.4748 67.4668 80.3894 73.5025 73.8126C79.5381 67.2359 82.8858 58.6442 82.8863 49.7294Z" fill="black"/>
<path d="M55.1351 42.7031H29.7297V44.8653H55.1351V42.7031Z" fill="#008F8D"/>
<path d="M74.0541 50.8105H29.7297V52.9727H74.0541V50.8105Z" fill="#008F8D"/>
<path d="M74.0541 58.9189H29.7297V61.6216H74.0541V58.9189Z" fill="#008F8D"/>
</svg>
