<svg width="534" height="226" viewBox="0 0 534 226" fill="none" xmlns="http://www.w3.org/2000/svg">
<path d="M132.354 138.935H94.3875V176.711H132.354V138.935Z" fill="white"/>
<path d="M86.9668 93.4277H49V131.205H86.9668V93.4277Z" fill="white"/>
<path d="M86.9668 138.855H49V176.632H86.9668V138.855Z" fill="white"/>
<path d="M132.354 48H94.3875V85.7769H132.354V48Z" fill="white"/>
<path d="M475.225 175.596L468.394 168.908V146.609H465.554V140.258H468.598L470.76 131.676H476.577V140.258H482.731V146.609H476.577V166.001L479.349 168.908H484.353V175.596H475.225Z" fill="white"/>
<path d="M436.321 175.596L428.815 168.097V147.826L436.321 140.258H453.226L459.989 146.88V153.501H451.807V149.583L448.831 146.609H439.972L436.997 149.583V165.935L439.972 168.908H459.719V175.596H436.321Z" fill="white"/>
<path d="M393.666 175.596L386.16 168.097V140.258H394.342V166.137L397.183 169.245H404.013L411.181 162.218V140.258H419.364V175.596H411.181V170.53L406.042 175.596H393.666Z" fill="white"/>
<path d="M358.233 175.596V140.258H366.416V146.543L372.773 140.258H380.752V148.433H372.84L366.416 154.853V175.596H358.233Z" fill="white"/>
<path d="M342.024 175.596L335.194 168.908V146.609H332.354V140.258H335.396L337.56 131.676H343.376V140.258H349.53V146.609H343.376V166.001L346.149 168.908H351.153V175.596H342.024Z" fill="white"/>
<path d="M297.029 175.596V168.908H315.557L318.263 166.137V163.84L315.084 160.665H301.965L295.068 153.907V147.083L301.83 140.258H322.659V146.947H305.887L303.25 149.583V151.136L306.293 154.178H319.547L326.445 160.935V168.84L319.683 175.596H297.029Z" fill="white"/>
<path d="M252.045 175.596V140.258H260.227V146.543L266.584 140.258H279.23L286.737 147.826V175.596H278.553V149.718L275.713 146.609H268.545L260.227 154.853V175.596H252.045Z" fill="white"/>
<path d="M217.334 175.596L209.828 168.097V147.826L217.334 140.258H235.051L242.557 147.826V168.097L235.051 175.596H217.334ZM220.985 169.313L231.4 169.245L234.375 166.272V149.583L231.4 146.609H220.985L218.01 149.583V166.272L220.985 169.313Z" fill="white"/>
<path d="M178.705 175.596L171.199 168.097V147.826L178.705 140.258H195.611L202.374 146.88V153.501H194.191V149.583L191.216 146.609H182.357L179.381 149.583V165.935L182.357 168.908H202.103V175.596H178.705Z" fill="white"/>
<path d="M343.585 113.773V109.494L357.336 109.455L358.988 107.803L358.951 103.148L357.335 101.497L346.815 101.498L342.645 97.3317L342.644 90.2744L346.814 86.1072L362.142 86.1056L362.143 90.385L349.031 90.4238L347.341 92.0382L347.378 95.7169L349.032 97.4061L359.513 97.3675L363.684 101.534L363.685 109.605L359.515 113.772L343.585 113.773Z" fill="white"/>
<path d="M306.77 113.777L306.766 86.1114L311.462 86.1108L311.465 99.9251L323.56 86.1097L329.083 86.1091L318.903 97.9347L329.085 113.775L323.375 113.775L315.635 101.689L311.465 106.494L311.466 113.777L306.77 113.777Z" fill="white"/>
<path d="M276.006 113.781L271.836 109.615V90.2823L276.006 86.1155H289.08L292.875 89.9069L289.907 92.91L287.164 90.2447H278.186L276.532 91.8964L276.569 108L278.186 109.652H287.502L290.245 106.949L293.212 109.99L289.418 113.781H276.006Z" fill="white"/>
<path d="M240.543 113.784L236.373 109.618L236.371 90.2854L240.541 86.1182L254.103 86.1168L258.274 90.2832L258.275 109.615L254.106 113.783L240.543 113.784ZM242.76 109.655L251.927 109.654L253.579 108.002L253.541 91.8978L251.925 90.2462L242.72 90.2472L241.068 91.8991L241.106 108.003L242.76 109.655Z" fill="white"/>
<path d="M204.704 113.788L204.702 86.122L209.398 86.1214L209.4 109.508L222.812 109.506L222.814 113.786L204.704 113.788Z" fill="white"/>
<path d="M169.809 113.791L169.806 86.1255L185.736 86.1238L189.906 90.2902L189.907 96.7844L188.103 98.8116L191.147 101.814V109.622L186.978 113.79L169.809 113.791ZM174.503 97.2364L183.557 97.2355L185.172 95.3584V91.9048L183.519 90.2534L174.503 90.2543V97.2364ZM174.504 109.662L184.761 109.661L186.414 108.009V103.016L184.76 101.365L174.504 101.366V109.662Z" fill="white"/>
</svg>
