<svg width="534" height="226" viewBox="0 0 534 226" fill="none" xmlns="http://www.w3.org/2000/svg">
<path d="M132.354 139.935H94.3875V177.711H132.354V139.935Z" fill="black"/>
<path d="M86.9668 94.4277H49V132.205H86.9668V94.4277Z" fill="black"/>
<path d="M86.9668 139.855H49V177.632H86.9668V139.855Z" fill="black"/>
<path d="M132.354 49H94.3875V86.7769H132.354V49Z" fill="black"/>
<path d="M475.225 176.596L468.394 169.908V147.609H465.554V141.258H468.598L470.76 132.676H476.577V141.258H482.731V147.609H476.577V167.001L479.349 169.908H484.353V176.596H475.225Z" fill="black"/>
<path d="M436.321 176.596L428.815 169.097V148.826L436.321 141.258H453.226L459.989 147.88V154.501H451.807V150.583L448.831 147.609H439.972L436.997 150.583V166.935L439.972 169.908H459.719V176.596H436.321Z" fill="black"/>
<path d="M393.666 176.596L386.16 169.097V141.258H394.342V167.137L397.183 170.245H404.013L411.181 163.218V141.258H419.364V176.596H411.181V171.53L406.042 176.596H393.666Z" fill="black"/>
<path d="M358.233 176.596V141.258H366.416V147.543L372.773 141.258H380.752V149.433H372.84L366.416 155.853V176.596H358.233Z" fill="black"/>
<path d="M342.024 176.596L335.194 169.908V147.609H332.354V141.258H335.396L337.56 132.676H343.376V141.258H349.53V147.609H343.376V167.001L346.149 169.908H351.153V176.596H342.024Z" fill="black"/>
<path d="M297.029 176.596V169.908H315.557L318.263 167.137V164.84L315.084 161.665H301.965L295.068 154.907V148.083L301.83 141.258H322.659V147.947H305.887L303.25 150.583V152.136L306.293 155.178H319.547L326.445 161.935V169.84L319.683 176.596H297.029Z" fill="black"/>
<path d="M252.045 176.596V141.258H260.227V147.543L266.584 141.258H279.23L286.737 148.826V176.596H278.553V150.718L275.713 147.609H268.545L260.227 155.853V176.596H252.045Z" fill="black"/>
<path d="M217.334 176.596L209.828 169.097V148.826L217.334 141.258H235.051L242.557 148.826V169.097L235.051 176.596H217.334ZM220.985 170.313L231.4 170.245L234.375 167.272V150.583L231.4 147.609H220.985L218.01 150.583V167.272L220.985 170.313Z" fill="black"/>
<path d="M178.705 176.596L171.199 169.097V148.826L178.705 141.258H195.611L202.374 147.88V154.501H194.191V150.583L191.216 147.609H182.357L179.381 150.583V166.935L182.357 169.908H202.103V176.596H178.705Z" fill="black"/>
<path d="M343.585 114.773V110.494L357.336 110.455L358.988 108.803L358.951 104.148L357.335 102.497L346.815 102.498L342.645 98.3317L342.644 91.2744L346.814 87.1072L362.142 87.1056L362.143 91.385L349.031 91.4238L347.341 93.0382L347.378 96.7169L349.032 98.4061L359.513 98.3675L363.684 102.534L363.685 110.605L359.515 114.772L343.585 114.773Z" fill="black"/>
<path d="M306.77 114.777L306.766 87.1114L311.462 87.1109L311.465 100.925L323.56 87.1097L329.083 87.1091L318.903 98.9347L329.085 114.775L323.375 114.775L315.635 102.689L311.465 107.494L311.466 114.777L306.77 114.777Z" fill="black"/>
<path d="M276.006 114.781L271.836 110.615V91.2823L276.006 87.1155H289.08L292.875 90.9069L289.907 93.91L287.164 91.2447H278.186L276.532 92.8964L276.569 109L278.186 110.652H287.502L290.245 107.949L293.212 110.99L289.418 114.781H276.006Z" fill="black"/>
<path d="M240.543 114.784L236.373 110.618L236.371 91.2854L240.541 87.1182L254.103 87.1168L258.274 91.2832L258.275 110.615L254.106 114.783L240.543 114.784ZM242.76 110.655L251.927 110.654L253.579 109.002L253.541 92.8978L251.925 91.2462L242.72 91.2472L241.068 92.8991L241.106 109.003L242.76 110.655Z" fill="black"/>
<path d="M204.704 114.788L204.702 87.122L209.398 87.1214L209.4 110.508L222.812 110.506L222.814 114.786L204.704 114.788Z" fill="black"/>
<path d="M169.809 114.791L169.806 87.1255L185.736 87.1238L189.906 91.2902L189.907 97.7844L188.103 99.8116L191.147 102.814V110.622L186.978 114.79L169.809 114.791ZM174.503 98.2364L183.557 98.2355L185.172 96.3584V92.9049L183.519 91.2534L174.503 91.2543V98.2364ZM174.504 110.662L184.761 110.661L186.414 109.009V104.016L184.76 102.365L174.504 102.366V110.662Z" fill="black"/>
</svg>
