<svg width="160" height="144" viewBox="0 0 160 144" fill="none" xmlns="http://www.w3.org/2000/svg">
<g clip-path="url(#clip0_182_2253)">
<path d="M158.596 54.8575C158.539 54.8576 158.483 54.84 158.436 54.8073L80.8056 0.810797C80.5693 0.647241 80.2886 0.559833 80.0011 0.560323C79.7137 0.560813 79.4332 0.649175 79.1975 0.813535L2.12618 54.8067C2.06522 54.8494 1.98977 54.8662 1.91643 54.8534C1.84309 54.8405 1.77787 54.7991 1.73511 54.7382C1.69235 54.6773 1.67556 54.602 1.68843 54.5287C1.7013 54.4555 1.74278 54.3903 1.80374 54.3476L78.8752 0.354406C79.2052 0.124337 79.5978 0.000663203 80.0002 2.65985e-06C80.4027 -0.000657883 80.7956 0.121725 81.1264 0.35071L158.757 54.3471C158.806 54.3812 158.843 54.4301 158.862 54.4866C158.881 54.5431 158.882 54.6042 158.864 54.6612C158.846 54.7181 158.811 54.7679 158.763 54.8032C158.714 54.8385 158.656 54.8576 158.596 54.8575Z" fill="#3F3D56"/>
<path d="M6.53027 56.7713L80.0775 2.33203L154.183 60.6449L83.867 102.277L45.6915 93.5861L6.53027 56.7713Z" fill="#E6E6E6"/>
<path d="M48.9138 127.991H12.5797C12.3566 127.992 12.1356 127.948 11.9294 127.863C11.7232 127.778 11.5358 127.653 11.378 127.496C11.2201 127.338 11.0949 127.151 11.0094 126.945C10.924 126.739 10.88 126.519 10.88 126.296C10.88 126.073 10.924 125.853 11.0094 125.647C11.0949 125.441 11.2201 125.254 11.378 125.096C11.5358 124.939 11.7232 124.814 11.9294 124.729C12.1356 124.644 12.3566 124.6 12.5797 124.601H48.9138C49.1369 124.6 49.3579 124.644 49.5641 124.729C49.7703 124.814 49.9577 124.939 50.1155 125.096C50.2734 125.254 50.3986 125.441 50.4841 125.647C50.5695 125.853 50.6135 126.073 50.6135 126.296C50.6135 126.519 50.5695 126.739 50.4841 126.945C50.3986 127.151 50.2734 127.338 50.1155 127.496C49.9577 127.653 49.7703 127.778 49.5641 127.863C49.3579 127.948 49.1369 127.992 48.9138 127.991Z" fill="#409775"/>
<path d="M25.6156 120.702H12.5797C12.3566 120.703 12.1356 120.659 11.9294 120.574C11.7232 120.489 11.5358 120.364 11.378 120.206C11.2201 120.049 11.0949 119.862 11.0094 119.656C10.924 119.45 10.88 119.23 10.88 119.007C10.88 118.784 10.924 118.563 11.0094 118.358C11.0949 118.152 11.2201 117.965 11.378 117.807C11.5358 117.65 11.7232 117.525 11.9294 117.44C12.1356 117.355 12.3566 117.311 12.5797 117.312H25.6156C25.8387 117.311 26.0596 117.355 26.2659 117.44C26.4721 117.525 26.6594 117.65 26.8173 117.807C26.9752 117.965 27.1004 118.152 27.1858 118.358C27.2713 118.563 27.3153 118.784 27.3153 119.007C27.3153 119.23 27.2713 119.45 27.1858 119.656C27.1004 119.862 26.9752 120.049 26.8173 120.206C26.6594 120.364 26.4721 120.489 26.2659 120.574C26.0596 120.659 25.8387 120.703 25.6156 120.702Z" fill="#409775"/>
<path d="M81.1116 87.0933C80.8354 87.0936 80.5618 87.0401 80.3062 86.9358L34.9474 68.1386V9.30034C34.948 8.78005 35.1552 8.28125 35.5236 7.91335C35.8919 7.54545 36.3914 7.3385 36.9123 7.33789H123.93C124.451 7.3385 124.95 7.54545 125.319 7.91335C125.687 8.28125 125.894 8.78006 125.895 9.30034V68.1797L125.809 68.2161L81.9413 86.9266C81.6786 87.0368 81.3965 87.0936 81.1116 87.0933Z" fill="white"/>
<path d="M81.1117 87.2334C80.8172 87.2338 80.5255 87.1768 80.2528 87.0656L34.8071 68.2323V9.30038C34.8078 8.74292 35.0298 8.20848 35.4244 7.8143C35.8191 7.42011 36.3542 7.19839 36.9124 7.19775H123.93C124.488 7.19839 125.023 7.42011 125.418 7.8143C125.813 8.20848 126.035 8.74292 126.035 9.30038V68.2723L81.9965 87.0555C81.7164 87.1732 81.4156 87.2337 81.1117 87.2334ZM35.3685 67.8578L80.4669 86.5472C80.8876 86.7177 81.3587 86.7149 81.7772 86.5394L125.474 67.9021V9.30038C125.473 8.89159 125.311 8.49967 125.021 8.21061C124.732 7.92155 124.339 7.75894 123.93 7.75845H36.9124C36.5031 7.75894 36.1107 7.92155 35.8213 8.21061C35.5318 8.49967 35.369 8.89159 35.3685 9.30038L35.3685 67.8578Z" fill="#3F3D56"/>
<path d="M158.035 54.2969H157.979L125.754 68.0397L81.6646 86.8428C81.4923 86.9151 81.3075 86.9529 81.1206 86.9539C80.9337 86.9548 80.7484 86.919 80.5754 86.8484L35.0877 68.0004L2.07155 54.3193L2.02111 54.2969H1.96491C1.44396 54.2975 0.944513 54.5044 0.576146 54.8723C0.207779 55.2402 0.000578035 55.739 0 56.2593V141.486C0.000578777 142.006 0.207779 142.505 0.576146 142.873C0.944513 143.241 1.44396 143.448 1.96491 143.448H158.035C158.556 143.448 159.055 143.241 159.424 142.873C159.792 142.505 159.999 142.006 160 141.486V56.2593C159.999 55.739 159.792 55.2402 159.424 54.8723C159.055 54.5044 158.556 54.2975 158.035 54.2969ZM159.439 141.486C159.438 141.858 159.291 142.214 159.027 142.477C158.764 142.74 158.407 142.887 158.035 142.888H1.96491C1.59272 142.887 1.23582 142.74 0.972648 142.477C0.709471 142.214 0.561552 141.858 0.561404 141.486V56.2593C0.561912 55.8968 0.702698 55.5486 0.954324 55.2873C1.20595 55.0261 1.54894 54.8721 1.9116 54.8576L35.0877 68.606L80.3594 87.367C80.8494 87.5662 81.3986 87.5631 81.8864 87.3586L125.754 68.648L158.091 54.8576C158.453 54.8732 158.795 55.0276 159.046 55.2887C159.297 55.5498 159.438 55.8974 159.439 56.2593V141.486Z" fill="#3F3D56"/>
<path d="M80.6583 70.4094C78.9838 70.4125 77.3537 69.8717 76.0138 68.8686L75.9308 68.8063L58.44 55.4314C57.6299 54.8116 56.9501 54.0384 56.4392 53.1561C55.9284 52.2738 55.5965 51.2997 55.4626 50.2893C55.3287 49.2789 55.3953 48.2521 55.6588 47.2675C55.9222 46.2828 56.3772 45.3596 56.9978 44.5506C57.6185 43.7416 58.3926 43.0626 59.276 42.5523C60.1594 42.0421 61.1348 41.7107 62.1464 41.5769C63.1581 41.4432 64.1862 41.5097 65.1721 41.7728C66.158 42.0359 67.0823 42.4904 67.8923 43.1103L79.2216 51.7865L105.994 16.9146C106.615 16.1058 107.39 15.427 108.273 14.9171C109.157 14.4072 110.132 14.0761 111.144 13.9427C112.156 13.8093 113.184 13.8763 114.169 14.1398C115.155 14.4032 116.079 14.858 116.889 15.4782L116.723 15.7039L116.894 15.4815C118.527 16.7354 119.596 18.5852 119.866 20.6252C120.135 22.6651 119.584 24.7286 118.332 26.3629L86.8406 67.3806C86.1122 68.3258 85.1757 69.0907 84.1035 69.6159C83.0314 70.1412 81.8525 70.4127 80.6583 70.4094Z" fill="#409775"/>
</g>
<defs>
<clipPath id="clip0_182_2253">
<rect width="160" height="143.448" fill="white"/>
</clipPath>
</defs>
</svg>
