<svg width="97" height="86" viewBox="0 0 97 86" fill="none" xmlns="http://www.w3.org/2000/svg">
<g id="undraw_envelope_hem0 1">
<path id="Vector" d="M94.9136 32.6094H94.88L75.636 40.8267L49.3062 52.0697C49.2033 52.113 49.0929 52.1355 48.9813 52.1361C48.8697 52.1367 48.7591 52.1153 48.6557 52.073L21.4911 40.8032L1.77432 32.6228L1.7442 32.6094H1.71064C1.39953 32.6097 1.10128 32.7335 0.881296 32.9534C0.661315 33.1734 0.537578 33.4717 0.537231 33.7828V84.7427C0.537579 85.0538 0.661315 85.3521 0.881296 85.572C1.10128 85.792 1.39953 85.9158 1.71064 85.9161H94.9136C95.2247 85.9158 95.523 85.792 95.7429 85.572C95.9629 85.3521 96.0867 85.0538 96.087 84.7427V33.7828C96.0867 33.4717 95.9629 33.1734 95.7429 32.9534C95.523 32.7335 95.2247 32.6097 94.9136 32.6094Z" fill="white"/>
<path id="Vector_2" d="M94.9973 32.9438C94.9631 32.9438 94.9297 32.9333 94.9016 32.9137L48.5418 0.627375C48.4007 0.529577 48.233 0.477311 48.0614 0.477604C47.8897 0.477897 47.7222 0.530732 47.5815 0.629011L1.55551 32.9134C1.5191 32.9389 1.47408 32.9489 1.43032 32.9411C1.38657 32.9334 1.34766 32.9087 1.32215 32.8723C1.29663 32.8359 1.2866 32.7909 1.29425 32.7471C1.30191 32.7034 1.32661 32.6644 1.36295 32.6389L47.389 0.354493C47.586 0.216927 47.8205 0.142975 48.0608 0.14258C48.3012 0.142185 48.5359 0.215365 48.7334 0.352283L95.0933 32.6386C95.1226 32.659 95.1446 32.6882 95.1561 32.722C95.1676 32.7558 95.1681 32.7923 95.1573 32.8264C95.1466 32.8604 95.1253 32.8902 95.0966 32.9113C95.0678 32.9324 95.033 32.9438 94.9973 32.9438Z" fill="#262626"/>
<path id="Vector_3" d="M4.18542 34.0883L48.1067 1.53711L92.3615 36.4044L50.3697 61.2976L27.5719 56.1011L4.18542 34.0883Z" fill="#E9E9E9"/>
<path id="Vector_4" d="M29.4965 76.6739H7.79822C7.66498 76.6743 7.53298 76.6484 7.40975 76.5977C7.28653 76.5471 7.1745 76.4726 7.08008 76.3786C6.98566 76.2846 6.9107 76.1729 6.85949 76.0499C6.80827 75.9268 6.78181 75.7949 6.78162 75.6617C6.78142 75.5285 6.80749 75.3965 6.85834 75.2733C6.90919 75.1502 6.98382 75.0383 7.07796 74.944C7.1721 74.8497 7.28391 74.7749 7.40699 74.7238C7.53006 74.6728 7.66199 74.6465 7.79523 74.6465H29.4965C29.6297 74.6461 29.7617 74.672 29.8849 74.7227C30.0082 74.7734 30.1202 74.8478 30.2146 74.9419C30.309 75.0359 30.384 75.1476 30.4352 75.2706C30.4864 75.3936 30.5129 75.5255 30.5131 75.6587C30.5133 75.792 30.4872 75.9239 30.4363 76.0471C30.3855 76.1702 30.3109 76.2822 30.2167 76.3765C30.1226 76.4707 30.0108 76.5456 29.8877 76.5966C29.7646 76.6476 29.6327 76.6739 29.4995 76.6739H29.4965Z" fill="#349DD8"/>
<path id="Vector_5" d="M15.5831 72.3146H7.79822C7.66498 72.3149 7.53298 72.2891 7.40975 72.2384C7.28653 72.1877 7.1745 72.1132 7.08008 72.0192C6.98566 71.9252 6.9107 71.8135 6.85949 71.6905C6.80828 71.5675 6.78181 71.4356 6.78162 71.3023C6.78142 71.1691 6.80749 71.0371 6.85834 70.914C6.90919 70.7908 6.98382 70.6789 7.07796 70.5846C7.1721 70.4903 7.28392 70.4155 7.40699 70.3645C7.53007 70.3134 7.66199 70.2871 7.79523 70.2871H15.5831C15.8517 70.2871 16.1093 70.3937 16.2994 70.5834C16.4895 70.7732 16.5965 71.0307 16.5969 71.2993C16.5973 71.568 16.4911 71.8257 16.3016 72.0161C16.112 72.2065 15.8547 72.3138 15.5861 72.3146H15.5831Z" fill="#349DD8"/>
<path id="Vector_6" d="M94.6622 32.6094H94.6286L75.3846 40.8266L49.0547 52.0697C48.9519 52.113 48.8415 52.1355 48.7298 52.1361C48.6182 52.1367 48.5076 52.1153 48.4043 52.073L21.2397 40.8032L1.52287 32.6228L1.49276 32.6094H1.45917C1.14807 32.6097 0.849812 32.7335 0.629831 32.9534C0.40985 33.1734 0.286113 33.4717 0.285767 33.7828V84.7427C0.286113 85.0538 0.40985 85.3521 0.629831 85.572C0.849812 85.792 1.14807 85.9158 1.45917 85.9161H94.6622C94.9733 85.9158 95.2715 85.792 95.4915 85.572C95.7115 85.3521 95.8352 85.0538 95.8356 84.7427V33.7828C95.8352 33.4717 95.7115 33.1734 95.4915 32.9534C95.2715 32.7335 94.9733 32.6097 94.6622 32.6094ZM95.5003 84.7427C95.5002 84.965 95.4119 85.1781 95.2547 85.3353C95.0976 85.4924 94.8844 85.5807 94.6622 85.5808H1.45917C1.2369 85.5807 1.02377 85.4924 0.866601 85.3353C0.709434 85.1781 0.621098 84.965 0.621009 84.7427V33.7828C0.621313 33.566 0.705388 33.3578 0.855657 33.2016C1.00593 33.0454 1.21076 32.9533 1.42733 32.9446L21.2397 41.1653L48.2753 52.3832C48.5679 52.5022 48.8959 52.5004 49.1872 52.3781L75.3846 41.1904L94.6957 32.9446C94.9119 32.954 95.1162 33.0463 95.266 33.2024C95.4159 33.3585 95.4998 33.5664 95.5003 33.7828L95.5003 84.7427Z" fill="#262626"/>
<g id="Group 3840">
<path id="Vector_7" d="M48.7246 52.4679C48.928 52.468 49.1294 52.4274 49.3169 52.3486L49.3182 52.3481L75.5157 41.1604L75.5158 41.1604L75.5667 41.1386L75.7184 41.0737V40.9087V5.70272V5.70242C75.7179 5.32513 75.5679 4.96341 75.3011 4.69661C75.0343 4.42982 74.6726 4.27974 74.2953 4.2793H74.295L22.3293 4.2793L22.329 4.2793C21.9517 4.27974 21.59 4.42982 21.3232 4.69661C21.0564 4.96341 20.9063 5.32513 20.9059 5.70242V5.70272V40.8842V41.0511L21.0601 41.1151L48.1477 52.3546L48.149 52.3551C48.3317 52.4297 48.5272 52.468 48.7246 52.4679ZM48.7246 52.4679C48.7245 52.4679 48.7244 52.4679 48.7243 52.4679L48.7245 52.2179L48.7248 52.4679C48.7247 52.4679 48.7246 52.4679 48.7246 52.4679Z" fill="white" stroke="#262626" stroke-width="0.5"/>
<path id="Vector_8" d="M44.507 17.6801H26.0676C25.7123 17.6795 25.3718 17.538 25.1208 17.2865C24.8699 17.0351 24.7289 16.6944 24.7289 16.3391C24.7289 15.9838 24.8699 15.6431 25.1208 15.3917C25.3718 15.1402 25.7123 14.9987 26.0676 14.998H44.507C44.8623 14.9987 45.2028 15.1402 45.4538 15.3917C45.7048 15.6431 45.8457 15.9838 45.8457 16.3391C45.8457 16.6944 45.7048 17.0351 45.4538 17.2865C45.2028 17.538 44.8623 17.6795 44.507 17.6801Z" fill="#D9D9D9"/>
<path id="Vector_9" d="M34.9523 11.9809H26.0679C25.7122 11.9809 25.3711 11.8396 25.1196 11.5881C24.8681 11.3366 24.7268 10.9955 24.7268 10.6399C24.7268 10.2842 24.8681 9.94311 25.1196 9.69161C25.3711 9.44012 25.7122 9.29883 26.0679 9.29883H34.9523C35.308 9.29883 35.6491 9.44012 35.9006 9.69161C36.1521 9.94311 36.2934 10.2842 36.2934 10.6399C36.2934 10.9955 36.1521 11.3366 35.9006 11.5881C35.6491 11.8396 35.308 11.9809 34.9523 11.9809Z" fill="#008F8D"/>
<path id="Vector_10" d="M62.1037 31.0903H33.9416C33.586 31.0903 33.2449 30.949 32.9934 30.6975C32.7419 30.446 32.6006 30.1049 32.6006 29.7492C32.6006 29.3936 32.7419 29.0525 32.9934 28.801C33.2449 28.5495 33.586 28.4082 33.9416 28.4082H62.1037C62.4594 28.4082 62.8005 28.5495 63.052 28.801C63.3035 29.0525 63.4447 29.3936 63.4447 29.7492C63.4447 30.1049 63.3035 30.446 63.052 30.6975C62.8005 30.949 62.4594 31.0903 62.1037 31.0903Z" fill="#008F8D"/>
<path id="Vector_11" d="M62.1032 37.2934H33.9412C33.7649 37.2937 33.5902 37.2593 33.4273 37.192C33.2643 37.1248 33.1162 37.026 32.9914 36.9015C32.8666 36.7769 32.7676 36.629 32.7001 36.4661C32.6325 36.3033 32.5978 36.1287 32.5978 35.9524C32.5978 35.7761 32.6325 35.6015 32.7001 35.4386C32.7676 35.2758 32.8666 35.1278 32.9914 35.0033C33.1162 34.8787 33.2643 34.78 33.4273 34.7127C33.5902 34.6455 33.7649 34.611 33.9412 34.6113H62.1032C62.2795 34.611 62.4542 34.6455 62.6172 34.7127C62.7801 34.78 62.9282 34.8787 63.053 35.0033C63.1778 35.1278 63.2768 35.2758 63.3443 35.4386C63.4119 35.6015 63.4466 35.7761 63.4466 35.9524C63.4466 36.1287 63.4119 36.3033 63.3443 36.4661C63.2768 36.629 63.1778 36.7769 63.053 36.9015C62.9282 37.026 62.7801 37.1248 62.6172 37.192C62.4542 37.2593 62.2795 37.2937 62.1032 37.2934Z" fill="#D9D9D9"/>
</g>
</g>
</svg>
