<svg width="240" height="160" viewBox="0 0 240 160" fill="none" xmlns="http://www.w3.org/2000/svg">
<path d="M115.878 115.325L47.3589 133.009C45.0347 133.606 42.569 133.255 40.5029 132.032C38.4368 130.809 36.939 128.815 36.338 126.487L15.6171 45.8343C15.0214 43.5047 15.3719 41.0335 16.5919 38.9627C17.8118 36.8919 19.8015 35.3907 22.1243 34.7883L85.8705 18.3359L102.185 25.6563L122.386 104.278C122.981 106.608 122.631 109.079 121.411 111.15C120.191 113.221 118.201 114.722 115.878 115.325Z" fill="#E9E9E9"/>
<path d="M22.7728 37.3146C21.1187 37.7435 19.7018 38.8126 18.833 40.2872C17.9643 41.7618 17.7146 43.5216 18.1388 45.1805L38.861 125.833C39.2889 127.491 40.3556 128.911 41.8269 129.782C43.2982 130.653 45.054 130.903 46.7092 130.478L115.229 112.794C116.883 112.365 118.3 111.296 119.168 109.821C120.037 108.347 120.287 106.587 119.863 104.928L99.9753 27.5235L85.6366 21.0898L22.7728 37.3146Z" fill="white"/>
<path d="M102.011 26.0717L91.4069 28.8087C90.6328 29.0085 89.8111 28.8918 89.1228 28.4845C88.4344 28.0771 87.9357 27.4123 87.7364 26.6364L85.7195 18.7865C85.7107 18.7521 85.7118 18.716 85.7225 18.6822C85.7333 18.6484 85.7533 18.6184 85.7803 18.5955C85.8073 18.5726 85.8402 18.5577 85.8752 18.5527C85.9103 18.5477 85.946 18.5526 85.9783 18.567L102.041 25.7163C102.077 25.7323 102.106 25.759 102.126 25.7927C102.146 25.8264 102.155 25.8655 102.152 25.9046C102.149 25.9436 102.133 25.9807 102.108 26.0106C102.083 26.0406 102.049 26.062 102.011 26.0717Z" fill="#E9E9E9"/>
<path d="M96.4324 94.9481L65.2365 103C64.8503 103.098 64.4413 103.038 64.099 102.834C63.7566 102.63 63.5087 102.299 63.4094 101.912C63.3101 101.525 63.3675 101.115 63.569 100.771C63.7705 100.427 64.0998 100.176 64.4849 100.075L95.6808 92.0225C95.8729 91.9718 96.0731 91.9596 96.2699 91.9867C96.4667 92.0138 96.6562 92.0796 96.8275 92.1803C96.9988 92.2811 97.1486 92.4147 97.2682 92.5737C97.3878 92.7326 97.4748 92.9137 97.5244 93.1065C97.5739 93.2993 97.5849 93.5 97.5568 93.6971C97.5287 93.8942 97.4619 94.0837 97.3605 94.2548C97.259 94.426 97.1247 94.5753 96.9655 94.6943C96.8062 94.8133 96.6251 94.8995 96.4324 94.9481Z" fill="#C4C4C4"/>
<path d="M103.721 98.3344L66.5046 107.94C66.3126 107.991 66.1124 108.003 65.9156 107.976C65.7188 107.949 65.5293 107.883 65.358 107.782C65.1867 107.681 65.0369 107.548 64.9173 107.389C64.7977 107.23 64.7107 107.049 64.6611 106.856C64.6116 106.663 64.6006 106.462 64.6287 106.265C64.6568 106.068 64.7236 105.879 64.825 105.708C64.9265 105.536 65.0607 105.387 65.22 105.268C65.3793 105.149 65.5604 105.063 65.7531 105.014L102.969 95.4089C103.355 95.3116 103.764 95.3714 104.107 95.5753C104.449 95.7792 104.697 96.1106 104.796 96.4971C104.896 96.8837 104.838 97.2939 104.637 97.6381C104.435 97.9824 104.106 98.2327 103.721 98.3344Z" fill="#C4C4C4"/>
<path d="M52.504 112.697C55.4459 112.697 57.8308 110.307 57.8308 107.358C57.8308 104.41 55.4459 102.02 52.504 102.02C49.5621 102.02 47.1772 104.41 47.1772 107.358C47.1772 110.307 49.5621 112.697 52.504 112.697Z" fill="#008F8D"/>
<path d="M93.1153 80.9742L51.6837 91.6634C50.4863 91.9709 49.2161 91.7898 48.1518 91.1598C47.0875 90.5298 46.3159 89.5024 46.0065 88.303L37.3243 54.4972C37.0178 53.2973 37.1986 52.0245 37.8272 50.958C38.4557 49.8915 39.4806 49.1184 40.6771 48.8083L82.1084 38.1191C83.3058 37.8116 84.576 37.9927 85.6403 38.6227C86.7047 39.2526 87.4762 40.2801 87.7856 41.4795L96.4681 75.2852C96.7746 76.4852 96.5937 77.758 95.9652 78.8245C95.3366 79.891 94.3118 80.6641 93.1153 80.9742Z" fill="white"/>
<path d="M93.1153 80.9742L51.6837 91.6634C50.4863 91.9709 49.2161 91.7898 48.1518 91.1598C47.0875 90.5298 46.3159 89.5024 46.0065 88.303L37.3243 54.4972C37.0178 53.2973 37.1986 52.0245 37.8272 50.958C38.4557 49.8915 39.4806 49.1184 40.6771 48.8083L82.1084 38.1191C83.3058 37.8116 84.576 37.9927 85.6403 38.6227C86.7047 39.2526 87.4762 40.2801 87.7856 41.4795L96.4681 75.2852C96.7746 76.4852 96.5937 77.758 95.9652 78.8245C95.3366 79.891 94.3118 80.6641 93.1153 80.9742ZM40.8137 49.3397C39.758 49.6136 38.8538 50.296 38.2995 51.2372C37.7451 52.1784 37.5858 53.3016 37.8566 54.3603L46.539 88.1661C46.8124 89.2242 47.4932 90.1304 48.4323 90.686C49.3714 91.2417 50.492 91.4013 51.5484 91.1299L92.9789 80.4418C94.0346 80.1678 94.9388 79.4854 95.4932 78.5442C96.0475 77.603 96.2068 76.4799 95.9361 75.4211L87.2544 41.6153C86.9811 40.5572 86.3002 39.651 85.3611 39.0954C84.422 38.5398 83.3014 38.3801 82.245 38.6515L40.8137 49.3397Z" fill="#E9E9E9"/>
<path d="M80.0066 49.4869L59.0973 54.8816C58.9145 54.9327 58.7192 54.9124 58.5508 54.8248C58.3823 54.7372 58.2534 54.5887 58.19 54.4095C58.1605 54.3158 58.1503 54.2171 58.1601 54.1193C58.17 54.0216 58.1995 53.9269 58.2471 53.8409C58.2947 53.755 58.3592 53.6797 58.4367 53.6197C58.5143 53.5596 58.6032 53.516 58.6982 53.4915L79.983 48C80.8429 48.4367 80.6166 49.3298 80.0068 49.4872L80.0066 49.4869Z" fill="#E9E9E9"/>
<path d="M80.9499 53.1627L60.0406 58.5574C59.8578 58.6085 59.6625 58.5882 59.4941 58.5006C59.3257 58.413 59.1967 58.2645 59.1333 58.0853C59.1038 57.9916 59.0937 57.8928 59.1035 57.7951C59.1133 57.6974 59.1429 57.6026 59.1905 57.5167C59.238 57.4308 59.3025 57.3555 59.3801 57.2954C59.4576 57.2354 59.5466 57.1917 59.6415 57.1673L80.9264 51.6758C81.7863 52.1125 81.5599 53.0056 80.9502 53.1629L80.9499 53.1627Z" fill="#E9E9E9"/>
<path d="M56.058 61.8152L49.6766 63.461C49.5734 63.4877 49.4659 63.4937 49.3604 63.4787C49.2549 63.4638 49.1533 63.4281 49.0616 63.3738C48.9698 63.3195 48.8896 63.2476 48.8256 63.1622C48.7616 63.0768 48.7149 62.9796 48.6884 62.8761L46.7498 55.3302C46.7232 55.2267 46.7172 55.1191 46.7321 55.0133C46.7471 54.9075 46.7826 54.8058 46.8368 54.7138C46.891 54.6218 46.9628 54.5414 47.048 54.4773C47.1332 54.4131 47.2301 54.3664 47.3334 54.3398L53.7148 52.6934C53.9232 52.6399 54.1442 52.6715 54.3295 52.7811C54.5147 52.8908 54.649 53.0696 54.7029 53.2783L56.6415 60.8261C56.6681 60.9295 56.6741 61.0372 56.6592 61.143C56.6443 61.2487 56.6087 61.3505 56.5545 61.4425C56.5003 61.5345 56.4285 61.6148 56.3434 61.679C56.2582 61.7432 56.1612 61.7899 56.058 61.8165V61.8152Z" fill="#008F8D"/>
<path d="M82.823 60.7059L50.9107 68.9391C50.728 68.9902 50.5326 68.9699 50.3642 68.8823C50.1958 68.7946 50.0669 68.6462 50.0034 68.467C49.9739 68.3733 49.9638 68.2745 49.9736 68.1768C49.9834 68.079 50.013 67.9843 50.0606 67.8984C50.1081 67.8125 50.1727 67.7372 50.2502 67.6771C50.3278 67.6171 50.4167 67.5734 50.5117 67.549L82.7994 59.2188C83.6593 59.6555 83.4327 60.5485 82.823 60.7059Z" fill="#E9E9E9"/>
<path d="M83.7678 64.3853L51.8551 72.6188C51.6723 72.6699 51.477 72.6496 51.3086 72.562C51.1401 72.4743 51.0112 72.3259 50.9478 72.1466C50.9183 72.0529 50.9081 71.9542 50.9179 71.8565C50.9278 71.7587 50.9574 71.664 51.0049 71.5781C51.0525 71.4922 51.117 71.4169 51.1946 71.3568C51.2721 71.2967 51.3611 71.2531 51.456 71.2286L83.7437 62.8984C84.6037 63.3351 84.3773 64.2282 83.7676 64.3856L83.7678 64.3853Z" fill="#E9E9E9"/>
<path d="M84.7109 68.0575L52.7987 76.2906C52.6159 76.3418 52.4206 76.3215 52.2522 76.2338C52.0838 76.1462 51.9548 75.9978 51.8914 75.8185C51.8619 75.7248 51.8517 75.6261 51.8615 75.5284C51.8714 75.4306 51.901 75.3359 51.9485 75.25C51.9961 75.1641 52.0606 75.0888 52.1382 75.0287C52.2157 74.9686 52.3047 74.925 52.3996 74.9005L84.6871 66.5703C85.547 67.007 85.3206 67.9001 84.7109 68.0575Z" fill="#E9E9E9"/>
<path d="M85.6557 71.7333L53.7433 79.9664C53.5605 80.0176 53.3652 79.9973 53.1967 79.9096C53.0283 79.822 52.8994 79.6735 52.836 79.4943C52.8065 79.4006 52.7963 79.3019 52.8061 79.2041C52.8159 79.1064 52.8455 79.0117 52.8931 78.9258C52.9407 78.8399 53.0052 78.7646 53.0827 78.7045C53.1603 78.6444 53.2492 78.6008 53.3442 78.5763L85.6319 70.2461C86.4916 70.6828 86.2655 71.5759 85.6557 71.7333Z" fill="#E9E9E9"/>
<path d="M86.5993 75.4051L54.6871 83.6383C54.5043 83.6894 54.309 83.6691 54.1406 83.5815C53.9722 83.4939 53.8432 83.3454 53.7798 83.1662C53.7503 83.0725 53.7401 82.9737 53.75 82.876C53.7598 82.7782 53.7894 82.6835 53.8369 82.5976C53.8845 82.5117 53.949 82.4364 54.0266 82.3763C54.1041 82.3163 54.1931 82.2726 54.288 82.2482L86.5758 73.918C87.4354 74.3547 87.2091 75.2478 86.5993 75.4051Z" fill="#E9E9E9"/>
<path d="M52.8971 109.228C52.7811 109.259 52.6585 109.25 52.5478 109.204L52.541 109.201L51.0899 108.585C51.0226 108.556 50.9617 108.514 50.9105 108.462C50.8593 108.41 50.8189 108.348 50.7916 108.28C50.7643 108.212 50.7506 108.14 50.7512 108.066C50.7519 107.993 50.767 107.921 50.7956 107.853C50.8242 107.786 50.8657 107.725 50.9179 107.674C50.97 107.622 51.0318 107.582 51.0995 107.554C51.1673 107.527 51.2398 107.513 51.3128 107.514C51.3859 107.515 51.4581 107.53 51.5253 107.558L52.4656 107.959L53.6976 105.054C53.7554 104.918 53.8646 104.811 54.0014 104.755C54.1382 104.7 54.2913 104.701 54.427 104.759L54.4197 104.778L54.4272 104.759C54.5629 104.817 54.6701 104.927 54.7253 105.064C54.7804 105.201 54.779 105.354 54.7214 105.49L53.2719 108.906C53.2382 108.985 53.187 109.055 53.122 109.11C53.0571 109.166 52.9802 109.206 52.8974 109.227L52.8971 109.228Z" fill="white"/>
<path d="M183.144 136.547L113.684 123.011C111.329 122.549 109.253 121.17 107.911 119.176C106.569 117.182 106.071 114.737 106.526 112.375L122.376 30.6261C122.837 28.2661 124.212 26.1856 126.202 24.841C128.191 23.4964 130.631 22.9976 132.987 23.454L197.608 36.0466L209.206 49.6824L193.755 129.374C193.294 131.734 191.919 133.815 189.93 135.159C187.94 136.504 185.5 137.003 183.144 136.547Z" fill="#E9E9E9"/>
<path d="M132.49 26.0181C130.813 25.6931 129.075 26.0483 127.658 27.0058C126.242 27.9633 125.262 29.4449 124.934 31.1254L109.084 112.875C108.76 114.556 109.114 116.298 110.07 117.717C111.026 119.137 112.504 120.119 114.181 120.448L183.641 133.983C185.319 134.308 187.056 133.953 188.473 132.996C189.889 132.038 190.869 130.557 191.197 128.876L206.409 50.4199L196.217 38.4364L132.49 26.0181Z" fill="white"/>
<path d="M183.831 60.6877L152.209 54.5264C151.817 54.45 151.471 54.2205 151.247 53.8884C151.024 53.5564 150.941 53.1489 151.017 52.7558C151.093 52.3627 151.322 52.016 151.654 51.792C151.985 51.5681 152.392 51.4852 152.784 51.5617L184.407 57.7231C184.799 57.7996 185.145 58.0291 185.369 58.3611C185.592 58.6932 185.675 59.1006 185.599 59.4937C185.523 59.8869 185.294 60.2336 184.962 60.4575C184.631 60.6814 184.224 60.7643 183.832 60.6879L183.831 60.6877Z" fill="#008F8D"/>
<path d="M188.963 66.8805L151.239 59.5303C150.846 59.4538 150.5 59.2243 150.277 58.8923C150.053 58.5602 149.971 58.1528 150.047 57.7597C150.123 57.3665 150.352 57.0199 150.683 56.7959C151.015 56.572 151.421 56.4891 151.814 56.5656L189.538 63.9158C189.931 63.9923 190.277 64.2218 190.5 64.5538C190.724 64.8859 190.806 65.2933 190.73 65.6864C190.654 66.0796 190.425 66.4262 190.094 66.6502C189.762 66.8741 189.356 66.957 188.963 66.8805Z" fill="#008F8D"/>
<path d="M180.057 80.1486L148.436 73.9874C148.043 73.911 147.637 73.9939 147.306 74.2178C146.974 74.4417 146.745 74.7883 146.669 75.1815C146.593 75.5746 146.676 75.9819 146.899 76.314C147.123 76.646 147.469 76.8755 147.861 76.9519L179.482 83.1131C179.872 83.1837 180.274 83.0976 180.601 82.8734C180.928 82.6493 181.154 82.305 181.23 81.9153C181.305 81.5255 181.224 81.1216 181.005 80.7909C180.786 80.4603 180.445 80.2295 180.057 80.1486Z" fill="#C4C4C4"/>
<path d="M185.189 86.3454L147.465 78.9953C147.27 78.9545 147.068 78.9531 146.872 78.991C146.676 79.0289 146.49 79.1055 146.324 79.2162C146.157 79.3269 146.015 79.4696 145.904 79.636C145.794 79.8024 145.717 79.9892 145.679 80.1855C145.641 80.3818 145.642 80.5837 145.682 80.7796C145.723 80.9754 145.802 81.1612 145.914 81.3263C146.027 81.4914 146.171 81.6324 146.339 81.7411C146.507 81.8498 146.694 81.9241 146.89 81.9597L184.614 89.3098C184.81 89.3506 185.011 89.352 185.207 89.3141C185.403 89.2762 185.589 89.1997 185.756 89.0889C185.922 88.9782 186.064 88.8355 186.175 88.6691C186.286 88.5027 186.362 88.316 186.4 88.1196C186.439 87.9233 186.437 87.7214 186.397 87.5256C186.356 87.3297 186.278 87.1439 186.165 86.9788C186.052 86.8138 185.908 86.6728 185.74 86.564C185.573 86.4553 185.386 86.381 185.189 86.3454Z" fill="#C4C4C4"/>
<path d="M175.132 105.539L143.51 99.378C143.118 99.3015 142.772 99.072 142.549 98.74C142.325 98.4079 142.242 98.0005 142.318 97.6074C142.395 97.2142 142.624 96.8675 142.955 96.6436C143.286 96.4197 143.693 96.3368 144.085 96.4133L175.708 102.575C176.101 102.651 176.447 102.881 176.67 103.213C176.894 103.545 176.976 103.952 176.9 104.345C176.824 104.738 176.595 105.085 176.264 105.309C175.932 105.533 175.526 105.616 175.133 105.539L175.132 105.539Z" fill="#C4C4C4"/>
<path d="M180.264 111.736L142.54 104.386C142.147 104.309 141.801 104.08 141.578 103.748C141.354 103.416 141.272 103.008 141.348 102.615C141.424 102.222 141.653 101.875 141.984 101.651C142.316 101.427 142.722 101.345 143.115 101.421L180.839 108.771C181.232 108.848 181.578 109.077 181.801 109.409C182.025 109.741 182.107 110.149 182.031 110.542C181.955 110.935 181.726 111.282 181.395 111.506C181.063 111.73 180.657 111.812 180.264 111.736Z" fill="#C4C4C4"/>
<path d="M137.827 58.2225C140.715 58.7853 143.511 56.8953 144.072 54.0011C144.633 51.1069 142.747 48.3045 139.859 47.7417C136.971 47.1789 134.175 49.0689 133.614 51.9631C133.053 54.8573 134.939 57.6597 137.827 58.2225Z" fill="#008F8D"/>
<path d="M137.938 54.8773C137.82 54.8546 137.713 54.7941 137.633 54.7051L137.628 54.6995L136.581 53.5178C136.486 53.4067 136.438 53.2624 136.447 53.1161C136.457 52.9698 136.524 52.8333 136.634 52.7361C136.743 52.6389 136.887 52.5889 137.033 52.5969C137.179 52.6048 137.316 52.6701 137.414 52.7786L138.092 53.5455L140.449 51.4528C140.504 51.4043 140.568 51.367 140.637 51.3432C140.706 51.3193 140.779 51.3094 140.852 51.3138C140.925 51.3183 140.996 51.3371 141.062 51.3692C141.127 51.4013 141.186 51.446 141.235 51.5008L141.22 51.5143L141.235 51.5004C141.333 51.6112 141.383 51.7563 141.374 51.9038C141.365 52.0513 141.298 52.1893 141.187 52.2873L138.414 54.7477C138.35 54.8044 138.273 54.8455 138.191 54.8678C138.108 54.8901 138.022 54.8931 137.938 54.8765L137.938 54.8773Z" fill="white"/>
<path d="M140.261 76.5291C140.127 77.2174 139.86 77.8727 139.474 78.4574C139.088 79.0422 138.591 79.5451 138.011 79.9373C137.431 80.3295 136.78 80.6033 136.095 80.7432C135.409 80.8831 134.703 80.8862 134.016 80.7525C133.971 80.7446 133.926 80.7341 133.882 80.7209C132.859 80.4941 131.926 79.97 131.198 79.2141C130.471 78.4583 129.982 77.5043 129.793 76.4715C129.604 75.4387 129.723 74.3731 130.135 73.4078C130.547 72.4426 131.235 71.6206 132.111 71.0449C132.987 70.4691 134.013 70.1651 135.061 70.1709C136.108 70.1766 137.131 70.4919 138.001 71.0773C138.871 71.6626 139.549 72.4921 139.951 73.4618C140.353 74.4315 140.461 75.4985 140.261 76.5291Z" fill="#008F8D"/>
<path d="M129.128 103.074C132.016 103.637 134.812 101.747 135.374 98.8527C135.935 95.9585 134.048 93.156 131.16 92.5932C128.272 92.0304 125.476 93.9204 124.915 96.8146C124.354 99.7088 126.24 102.511 129.128 103.074Z" fill="#008F8D"/>
<path d="M208.871 49.9815L198.121 47.8867C197.336 47.7338 196.644 47.2747 196.197 46.6105C195.75 45.9462 195.584 45.1312 195.737 44.3448L197.28 36.3884C197.286 36.3536 197.303 36.3213 197.327 36.2954C197.351 36.2696 197.382 36.251 197.416 36.242C197.451 36.2329 197.487 36.2337 197.52 36.2442C197.554 36.2548 197.584 36.2747 197.607 36.3016L209.05 49.6725C209.075 49.7023 209.091 49.7392 209.094 49.7783C209.098 49.8173 209.089 49.8564 209.069 49.8903C209.05 49.9242 209.02 49.9511 208.984 49.9673C208.949 49.9835 208.909 49.9882 208.871 49.9807L208.871 49.9815Z" fill="#C4C4C4"/>
<path d="M134.801 132.403C134.414 132.797 133.891 133.02 133.346 133.023C132.802 133.026 132.28 132.808 131.897 132.418L112.137 112.319C111.753 111.928 111.539 111.398 111.542 110.843C111.544 110.289 111.762 109.756 112.149 109.362C112.536 108.968 113.059 108.745 113.603 108.742C114.148 108.739 114.669 108.957 115.053 109.347L134.812 129.447C135.196 129.837 135.41 130.367 135.408 130.922C135.405 131.476 135.187 132.009 134.801 132.403Z" fill="#434343"/>
<path d="M115.422 111.671C112.353 114.793 108.449 116.928 104.205 117.806C99.9599 118.683 95.5649 118.264 91.5754 116.601C87.5859 114.938 84.181 112.106 81.7913 108.463C79.4017 104.82 78.1345 100.53 78.1501 96.1351C78.1657 91.74 79.4634 87.4375 81.879 83.7716C84.2946 80.1058 87.7197 77.2413 91.7212 75.5403C95.7226 73.8393 100.121 73.3782 104.359 74.2154C108.598 75.0526 112.487 77.1504 115.534 80.2436C117.557 82.2975 119.159 84.7396 120.248 87.4305C121.337 90.1215 121.893 93.0085 121.882 95.9268C121.872 98.8451 121.296 101.738 120.188 104.439C119.079 107.14 117.46 109.598 115.422 111.671ZM88.463 84.299C86.1612 86.6408 84.5887 89.618 83.9445 92.854C83.3002 96.09 83.6131 99.4396 84.8436 102.479C86.074 105.519 88.1668 108.112 90.8572 109.93C93.5476 111.749 96.7149 112.711 99.9584 112.696C103.202 112.68 106.376 111.688 109.08 109.843C111.783 107.999 113.894 105.386 115.146 102.335C116.398 99.2834 116.735 95.9307 116.114 92.7007C115.492 89.4707 113.941 86.5084 111.656 84.1885C108.591 81.0776 104.426 79.3415 100.077 79.3622C95.7272 79.3829 91.5496 81.1588 88.463 84.299Z" fill="#434343"/>
</svg>
