<svg width="822" height="240" viewBox="0 0 822 240" fill="none" xmlns="http://www.w3.org/2000/svg">
<g clip-path="url(#clip0_4415_35745)">
<g clip-path="url(#clip1_4415_35745)">
<path d="M240.142 258.929V218.274H146.696V189.755L246.839 45.034H279.103V186.114H309.237V218.274H279.103V258.929H240.142ZM240.142 186.114V91.4538H248.969L177.135 196.429V186.114H240.142Z" fill="#B1DCDE"/>
<path d="M409.261 261.963C392.418 261.963 378.112 257.716 366.343 249.221C354.776 240.523 345.949 227.983 339.861 211.599C333.976 195.216 331.034 175.192 331.034 151.527C331.034 127.659 333.976 107.635 339.861 91.4538C345.949 75.0703 354.776 62.7322 366.343 54.4393C378.112 46.1464 392.418 42 409.261 42C426.306 42 440.612 46.1464 452.179 54.4393C463.948 62.7322 472.775 74.9692 478.66 91.1504C484.545 107.332 487.487 127.356 487.487 151.223C487.487 174.888 484.444 195.013 478.356 211.599C472.471 227.983 463.745 240.523 452.179 249.221C440.612 257.716 426.306 261.963 409.261 261.963ZM409.261 230.106C423.059 230.106 433.206 223.836 439.699 211.296C446.396 198.553 449.744 178.529 449.744 151.223C449.744 124.12 446.396 104.5 439.699 92.364C433.206 80.0258 423.059 73.8567 409.261 73.8567C395.665 73.8567 385.519 80.0258 378.822 92.364C372.126 104.5 368.778 124.221 368.778 151.527C368.778 178.63 372.126 198.553 378.822 211.296C385.519 223.836 395.665 230.106 409.261 230.106Z" fill="#B1DCDE"/>
<path d="M608.209 258.929V218.274H514.763V189.755L614.905 45.034H647.17V186.114H677.304V218.274H647.17V258.929H608.209ZM608.209 186.114V91.4538H617.036L545.201 196.429V186.114H608.209Z" fill="#B1DCDE"/>
</g>
<path d="M724.424 122.998L691 156.422L724.424 189.846L757.848 156.422L724.424 122.998Z" fill="#E0F1F2"/>
<path d="M86.6985 42.0007L57 71.6992L86.6985 101.398L116.397 71.6992L86.6985 42.0007Z" fill="#E0F1F2"/>
<path d="M137.639 73.6278L173.671 82.3594L182.402 46.3276L146.371 37.596L137.639 73.6278Z" fill="#E0F1F2"/>
<path d="M79.9212 131.226L87.8174 160.695L117.286 152.799L109.39 123.33L79.9212 131.226Z" fill="#E0F1F2"/>
<path d="M784.816 239.452L36.1843 240.003C35.5268 239.996 34.9966 239.037 35 237.859C35.0034 236.69 35.5317 235.744 36.1843 235.738L784.816 235.188C785.473 235.194 786.003 236.153 786 237.331C785.997 238.5 785.468 239.446 784.816 239.452Z" fill="#4BB0B1"/>
</g>
<defs>
<clipPath id="clip0_4415_35745">
<rect width="822" height="240" fill="white"/>
</clipPath>
<clipPath id="clip1_4415_35745">
<rect width="531" height="193" fill="white" transform="translate(146 42)"/>
</clipPath>
</defs>
</svg>
