<svg width="100" height="43" viewBox="0 0 100 43" fill="none" xmlns="http://www.w3.org/2000/svg">
<g clip-path="url(#clip0_8718_29226)">
<mask id="mask0_8718_29226" style="mask-type:luminance" maskUnits="userSpaceOnUse" x="0" y="0" width="100" height="43">
<path d="M100 0H0V42.915H100V0Z" fill="white"/>
</mask>
<g mask="url(#mask0_8718_29226)">
<mask id="mask1_8718_29226" style="mask-type:luminance" maskUnits="userSpaceOnUse" x="0" y="0" width="100" height="43">
<path fill-rule="evenodd" clip-rule="evenodd" d="M0 0H99.6348V42.7567H0V0Z" fill="white"/>
</mask>
<g mask="url(#mask1_8718_29226)">
<path d="M58.2991 36.4745V35.8235L62.5161 33.8413V34.5895L59.1056 36.1538L62.5064 37.7182L62.5161 38.4567L58.2991 36.4745ZM67.3938 36.8243C67.3938 36.2672 67.2481 35.8397 66.9566 35.5417C66.6715 35.2372 66.2634 35.085 65.7323 35.085C65.5833 35.085 65.4311 35.0947 65.2756 35.1142C65.1266 35.1336 64.9906 35.1563 64.8675 35.1822C64.7509 35.2081 64.589 35.2534 64.3817 35.3182L64.3719 35.6291L64.3331 36.4453C64.3266 36.5295 64.3234 36.6137 64.3234 36.698C64.3234 36.7757 64.3234 36.8534 64.3234 36.9312C64.3234 37.2227 64.3363 37.4656 64.3622 37.6599C64.3946 37.8478 64.4464 38.0194 64.5177 38.1749C64.6278 38.4016 64.793 38.583 65.0132 38.719C65.2335 38.8486 65.4894 38.9133 65.7809 38.9133C66.0205 38.9133 66.2408 38.8648 66.4416 38.7676C66.6424 38.6639 66.8108 38.5214 66.9468 38.3401C67.0894 38.1587 67.1995 37.9417 67.2772 37.6891C67.3549 37.4299 67.3938 37.1417 67.3938 36.8243ZM68.2197 36.8146C68.2197 37.2227 68.1647 37.5951 68.0545 37.932C67.9509 38.2623 67.7987 38.5441 67.5979 38.7773C67.4035 39.0105 67.1671 39.1919 66.8885 39.3214C66.61 39.451 66.3023 39.5158 65.9655 39.5158C65.5379 39.5158 65.1849 39.4283 64.9064 39.2534C64.6343 39.0785 64.4141 38.8 64.2456 38.4178L64.2262 39.4089H64.1096C64.0578 39.4024 64.006 39.3992 63.9541 39.3992C63.9088 39.3992 63.8699 39.3992 63.8375 39.3992C63.8116 39.3992 63.776 39.4024 63.7307 39.4089C63.6853 39.4089 63.627 39.4089 63.5558 39.4089H63.41C63.423 39.3247 63.4294 39.2502 63.4294 39.1854C63.4359 39.1206 63.4424 39.0688 63.4489 39.0299C63.4618 38.868 63.4748 38.6218 63.4877 38.2915C63.5072 37.9611 63.5266 37.5433 63.546 37.038L63.6141 35.1725L63.6626 33.3166L63.6724 32.9279L63.7987 32.9376H64.129H64.4303L64.5468 32.9279C64.5339 33.0639 64.5209 33.1838 64.508 33.2874C64.5015 33.3911 64.4918 33.498 64.4788 33.6081C64.4724 33.7182 64.4659 33.838 64.4594 33.9676C64.4529 34.0971 64.4464 34.2559 64.44 34.4437L64.4303 34.6769C64.5209 34.6639 64.5954 34.651 64.6537 34.638C64.7185 34.6251 64.7703 34.6121 64.8092 34.5992C65.0035 34.5668 65.1849 34.5409 65.3533 34.5214C65.5217 34.502 65.6966 34.4923 65.878 34.4923C66.6424 34.4923 67.2222 34.6899 67.6173 35.085C68.0189 35.4737 68.2197 36.0502 68.2197 36.8146ZM70.2776 33.4137C70.2647 33.6599 70.2517 33.8931 70.2388 34.1133C70.2258 34.3271 70.2128 34.57 70.1999 34.8421C70.1869 35.1077 70.1707 35.4218 70.1513 35.7846C70.1383 36.1409 70.1222 36.5814 70.1027 37.1061C70.0898 37.5206 70.0768 37.8769 70.0639 38.1749C70.0574 38.4729 70.0509 38.7158 70.0444 38.9036L70.0347 39.4089H69.9181C69.8598 39.4089 69.8047 39.4089 69.7529 39.4089C69.7076 39.4024 69.6655 39.3992 69.6266 39.3992C69.6072 39.3992 69.5715 39.4024 69.5197 39.4089C69.4679 39.4089 69.3966 39.4089 69.306 39.4089H69.1699L69.1991 38.8842C69.212 38.6639 69.225 38.4081 69.2379 38.1166C69.2574 37.8186 69.2768 37.4785 69.2962 37.0963C69.3157 36.6818 69.3319 36.3028 69.3448 35.9595C69.3643 35.6162 69.3772 35.2988 69.3837 35.0073C69.3966 34.7158 69.4064 34.4405 69.4128 34.1814C69.4193 33.9222 69.4258 33.6631 69.4323 33.404L69.442 32.9279L69.5877 32.9376H69.8792H70.1804L70.3068 32.9279L70.2776 33.4137ZM75.3076 36.8631C75.3076 36.2866 75.1715 35.8494 74.8995 35.5514C74.6339 35.2469 74.242 35.0947 73.7238 35.0947C73.1926 35.0947 72.778 35.2761 72.48 35.6388C72.1821 35.9951 72.0331 36.4971 72.0331 37.1449C72.0331 37.6955 72.1724 38.1295 72.4509 38.4469C72.7359 38.7644 73.1246 38.9231 73.6169 38.9231C74.1481 38.9231 74.5626 38.7417 74.8606 38.3789C75.1586 38.0162 75.3076 37.5109 75.3076 36.8631ZM76.1335 36.8729C76.1335 37.2939 76.0558 37.6923 75.9003 38.068C75.5116 39.0332 74.7343 39.5158 73.5683 39.5158C73.212 39.5158 72.8881 39.4607 72.5966 39.3506C72.3051 39.234 72.0558 39.072 71.8485 38.8648C71.6412 38.651 71.4792 38.3984 71.3626 38.1069C71.2525 37.8154 71.1975 37.4882 71.1975 37.1255C71.1975 36.7174 71.2558 36.3514 71.3724 36.0275C71.4954 35.7036 71.6671 35.4283 71.8873 35.2016C72.1076 34.9749 72.3764 34.8 72.6938 34.6769C73.0112 34.5538 73.3675 34.4923 73.7626 34.4923C74.5076 34.4923 75.0873 34.7028 75.5019 35.1239C75.923 35.5449 76.1335 36.1279 76.1335 36.8729ZM80.7772 35.3376C80.4857 35.2469 80.2493 35.1854 80.0679 35.153C79.8865 35.1142 79.7051 35.0947 79.5238 35.0947C78.9732 35.0947 78.5424 35.2761 78.2315 35.6388C77.9205 35.9951 77.7651 36.4971 77.7651 37.1449C77.7651 37.715 77.9076 38.1522 78.1926 38.4567C78.4776 38.7611 78.8954 38.9133 79.446 38.9133C79.6145 38.9133 79.7894 38.8971 79.9707 38.8648C80.1521 38.8259 80.3659 38.7676 80.612 38.6899L80.5926 38.8065L80.544 39.0397C80.5311 39.0915 80.5213 39.1401 80.5149 39.1854C80.5149 39.2308 80.5084 39.2955 80.4954 39.3797C80.4436 39.3927 80.395 39.4024 80.3497 39.4089C80.3108 39.4154 80.2784 39.4218 80.2525 39.4283C80.1035 39.4542 79.9416 39.4737 79.7667 39.4866C79.5918 39.5061 79.4298 39.5158 79.2809 39.5158C78.523 39.5158 77.94 39.315 77.5319 38.9133C77.1302 38.5052 76.9294 37.919 76.9294 37.1546C76.9294 36.766 76.9845 36.4032 77.0946 36.0664C77.2047 35.7295 77.3635 35.438 77.5707 35.1919C77.9594 34.7255 78.5748 34.4923 79.4169 34.4923C79.5205 34.4923 79.6209 34.4955 79.7181 34.502C79.8153 34.5085 79.9157 34.5182 80.0193 34.5312C80.1424 34.5441 80.2493 34.5603 80.34 34.5797C80.4307 34.5992 80.557 34.6316 80.7189 34.6769L80.7286 34.7838L80.7481 35.0073L80.7578 35.221L80.7772 35.3376ZM82.7764 32.9279C82.757 33.1417 82.7408 33.3263 82.7278 33.4818C82.7213 33.6372 82.7116 33.7959 82.6987 33.9579C82.6922 34.1133 82.6825 34.2882 82.6695 34.4826C82.663 34.6704 82.6566 34.9069 82.6501 35.1919L82.5821 37.0769C82.5691 37.3878 82.5594 37.6923 82.5529 37.9903C82.5464 38.2882 82.54 38.5927 82.5335 38.9036L82.5238 39.4089H82.3975C82.3392 39.4089 82.2841 39.4089 82.2323 39.4089C82.1869 39.4024 82.1448 39.3992 82.106 39.3992C82.0671 39.3992 82.0217 39.4024 81.9699 39.4089C81.9246 39.4089 81.8728 39.4089 81.8145 39.4089H81.6784C81.6979 39.1886 81.7108 38.9976 81.7173 38.8356C81.7302 38.6672 81.74 38.502 81.7464 38.3401C81.7594 38.1716 81.7691 37.987 81.7756 37.7862C81.7885 37.5854 81.8015 37.336 81.8145 37.038C81.8468 36.2089 81.8728 35.4963 81.8922 34.9004C81.9116 34.298 81.9213 33.8024 81.9213 33.4137V32.9279L82.0671 32.9376H82.3586H82.6501L82.7764 32.9279ZM85.6039 39.4089C85.5456 39.4089 85.4873 39.4089 85.429 39.4089C85.3707 39.4024 85.3157 39.3992 85.2639 39.3992C85.212 39.3992 85.157 39.4024 85.0987 39.4089C85.0404 39.4089 84.9788 39.4089 84.9141 39.4089H84.778L84.5254 39.0688C84.4088 38.9069 84.2954 38.7579 84.1853 38.6218C84.0752 38.4793 83.9715 38.3465 83.8744 38.2235L82.9124 37.0575L82.6598 36.7271L82.9416 36.4259L83.6898 35.6291C83.774 35.5384 83.8485 35.4575 83.9132 35.3862C83.9845 35.3085 84.0525 35.2308 84.1173 35.153C84.1821 35.0753 84.2501 34.9943 84.3213 34.9101C84.3991 34.8194 84.4865 34.7158 84.5837 34.5992H84.7294C84.8007 34.5992 84.8622 34.6024 84.9141 34.6089C84.9724 34.6089 85.0274 34.6089 85.0792 34.6089C85.1311 34.6089 85.1829 34.6089 85.2347 34.6089C85.293 34.6024 85.3578 34.5992 85.429 34.5992H85.5651L85.2833 34.8907C85.1537 35.0202 85.0274 35.1498 84.9043 35.2793C84.7877 35.4089 84.6679 35.5352 84.5448 35.6583C84.3894 35.8202 84.263 35.9498 84.1659 36.0469C84.0687 36.1441 83.9845 36.2283 83.9132 36.2996C83.8485 36.3708 83.7869 36.4388 83.7286 36.5036C83.6768 36.5684 83.6088 36.6461 83.5246 36.7368C83.6088 36.8534 83.6768 36.9409 83.7286 36.9992C83.7999 37.0899 83.8971 37.2129 84.0201 37.3684C84.1432 37.5239 84.2792 37.6955 84.4282 37.8834C84.5837 38.0648 84.7424 38.2559 84.9043 38.4567C85.0728 38.651 85.2347 38.8356 85.3902 39.0105L85.74 39.4089H85.6039ZM89.2428 35.2988C89.0355 35.221 88.8541 35.166 88.6987 35.1336C88.5497 35.1012 88.3877 35.085 88.2128 35.085C87.8954 35.085 87.6493 35.1401 87.4744 35.2502C87.2995 35.3538 87.212 35.5061 87.212 35.7069C87.212 35.9077 87.3254 36.1117 87.5521 36.319C87.578 36.3449 87.6039 36.3708 87.6298 36.3967C87.6558 36.4162 87.6881 36.4421 87.727 36.4745C87.7659 36.5069 87.8145 36.549 87.8728 36.6008C87.9375 36.6461 88.0185 36.7077 88.1157 36.7854C88.3748 36.9927 88.5594 37.1482 88.6695 37.2518C89.0258 37.5822 89.2039 37.932 89.2039 38.3012C89.2039 38.6639 89.0517 38.9587 88.7473 39.1854C88.4428 39.4057 88.0412 39.5158 87.5424 39.5158C87.4711 39.5158 87.3837 39.5125 87.28 39.5061C87.1764 39.4996 87.0728 39.4899 86.9691 39.4769C86.8784 39.4704 86.8007 39.4607 86.7359 39.4478C86.6711 39.4413 86.6064 39.4316 86.5416 39.4186C86.4833 39.4056 86.4217 39.3927 86.357 39.3797C86.2922 39.3603 86.2145 39.3409 86.1238 39.3214L86.1141 39.2048L86.0946 38.9522L86.0655 38.7093L86.0558 38.6121C86.2436 38.6899 86.3894 38.7449 86.493 38.7773C86.6031 38.8097 86.7262 38.8421 86.8622 38.8745C87.0436 38.9133 87.225 38.9328 87.4064 38.9328C87.7173 38.9328 87.9602 38.8712 88.1351 38.7482C88.31 38.6251 88.3975 38.4534 88.3975 38.2332C88.3975 38.0518 88.3327 37.8963 88.2031 37.7668C88.1513 37.715 88.093 37.6599 88.0282 37.6016C87.9634 37.5433 87.876 37.4688 87.7659 37.3781L87.4452 37.1158C87.2962 36.9992 87.1764 36.902 87.0857 36.8243C86.995 36.7401 86.9205 36.6688 86.8622 36.6105C86.5513 36.2996 86.3958 35.9789 86.3958 35.6486C86.3958 35.2923 86.5416 35.0105 86.8331 34.8032C87.1246 34.5959 87.523 34.4923 88.0282 34.4923C88.2031 34.4923 88.3813 34.502 88.5626 34.5214C88.744 34.5409 88.9578 34.5733 89.2039 34.6186V34.7158C89.2039 34.8129 89.2039 34.9004 89.2039 34.9781C89.2104 35.0494 89.2201 35.1239 89.2331 35.2016L89.2428 35.2988ZM93.2217 33.7441L92.1335 35.9692L90.8412 38.6316C90.5691 39.2016 90.3489 39.655 90.1805 39.9919C90.0185 40.3287 89.9116 40.5554 89.8598 40.672C89.7626 40.8664 89.6266 41.1579 89.4517 41.5465C89.3675 41.5465 89.306 41.5433 89.2671 41.5368C89.2282 41.5368 89.1861 41.5368 89.1408 41.5368C89.1084 41.5368 89.076 41.5368 89.0436 41.5368C89.0047 41.5433 88.9626 41.5465 88.9173 41.5465H88.8007L89.2477 40.6526L90.2485 38.6316L91.5505 35.9595C91.8355 35.3765 92.0655 34.9004 92.2404 34.5312C92.4217 34.1619 92.5513 33.8931 92.629 33.7247C92.6744 33.634 92.7262 33.5239 92.7845 33.3943C92.8428 33.2583 92.9141 33.1028 92.9983 32.9279L93.0954 32.9376H93.3092H93.523L93.6104 32.9279L93.2217 33.7441ZM94.0679 38.4567V37.7085L97.4687 36.1538L94.0679 34.5895V33.8413L98.2752 35.8235V36.4745L94.0679 38.4567Z" fill="#76787A"/>
<path fill-rule="evenodd" clip-rule="evenodd" d="M16.284 29.4323C16.2783 28.6437 16.2487 27.9582 16.1941 27.3773C17.0597 27.7918 17.8407 28.0846 18.5362 28.255C19.2321 28.4254 19.9038 28.5109 20.552 28.5109C21.1751 28.5109 21.7581 28.4048 22.3006 28.1931C22.8443 27.9813 23.2577 27.6821 23.5411 27.2959C23.8241 26.9101 23.9747 26.468 23.9917 25.9688C24.0022 25.6789 23.9658 25.4064 23.8836 25.1534C23.8006 24.8995 23.6629 24.6429 23.4682 24.3805C23.2739 24.119 22.933 23.7659 22.4467 23.3214C21.9597 22.8777 21.2686 22.2647 20.3734 21.4842L19.4791 20.6995C19.1415 20.4003 18.8358 20.1032 18.5633 19.8084C18.2913 19.5141 18.0641 19.2315 17.8832 18.9615C17.7014 18.6918 17.5629 18.4465 17.4666 18.2263C17.3702 18.0064 17.2977 17.7611 17.2492 17.4914C17.201 17.2214 17.1811 16.9453 17.1909 16.6631C17.216 15.9485 17.4342 15.2801 17.8467 14.6574C18.2585 14.0344 18.8637 13.536 19.6617 13.1623C20.4593 12.7886 21.5022 12.6016 22.7888 12.6016C23.7119 12.6016 24.8411 12.7259 26.1775 12.9757C26.1755 13.5105 26.2107 14.1667 26.2832 14.9441C25.0281 14.4951 23.8815 14.2712 22.8431 14.2712C22.1289 14.2712 21.5269 14.3886 21.0366 14.6242C20.5471 14.8599 20.171 15.1615 19.9091 15.5291C19.6471 15.8967 19.5091 16.2748 19.4957 16.6631C19.4876 16.8955 19.5131 17.1218 19.5714 17.342C19.6305 17.5623 19.7228 17.7716 19.8487 17.9712C20.0293 18.2619 20.256 18.5546 20.5281 18.8493C20.8002 19.1445 21.1783 19.504 21.6613 19.9271C21.7824 20.0267 22.2443 20.4165 23.0471 21.0983C23.8496 21.7789 24.4338 22.306 24.7981 22.6801C25.1637 23.0538 25.4524 23.4012 25.6658 23.7206C25.8783 24.0404 26.0407 24.385 26.152 24.7546C26.2637 25.1238 26.3127 25.5246 26.2973 25.9566C26.2743 26.6214 26.1095 27.234 25.8034 27.7939C25.4973 28.3554 25.0698 28.8141 24.522 29.1708C23.9734 29.5279 23.3686 29.7809 22.7075 29.9303C22.0459 30.0805 21.3585 30.155 20.6443 30.155C20.071 30.155 19.4807 30.1117 18.8734 30.0242C18.2662 29.9372 17.4026 29.74 16.284 29.4323Z" fill="#FEFEFE"/>
<path fill-rule="evenodd" clip-rule="evenodd" d="M31.6394 29.8811L32.1167 25.1969L32.7734 16.439L32.8775 14.5325C32.9026 14.0511 32.9264 13.4985 32.9475 12.8758C34.8232 12.8843 36.7455 12.888 38.7131 12.888L42.6862 12.8758H43.9562C43.8777 13.4532 43.8202 14.0341 43.783 14.62L42.6769 14.5576C42.4032 14.5406 41.932 14.5285 41.2635 14.5204C40.5959 14.5123 39.9329 14.5074 39.2775 14.5074C37.3171 14.5074 35.9507 14.5204 35.1775 14.5451L34.7479 20.3754C36.026 20.4005 37.1722 20.4127 38.1856 20.4127C39.2904 20.4127 40.7405 20.3961 42.536 20.3629C42.4579 20.9442 42.4 21.5175 42.3639 22.0819L38.0779 22.0451C37.239 22.0451 36.071 22.0621 34.5742 22.0953L34.1333 28.2495L35.4293 28.2617C37.7815 28.2617 39.3414 28.2532 40.1111 28.2366C40.8801 28.22 41.7809 28.1831 42.8133 28.1244C42.7336 28.739 42.6761 29.3244 42.6396 29.8811C40.6388 29.8641 38.9487 29.856 37.5702 29.856L31.6394 29.8811Z" fill="#FEFEFE"/>
<path fill-rule="evenodd" clip-rule="evenodd" d="M48.5679 29.8811C48.8326 27.7382 49.0873 25.12 49.3318 22.026C49.5768 18.9325 49.7683 15.8823 49.9067 12.8758C50.48 12.8843 50.9156 12.888 51.2152 12.888L52.3752 12.8758L51.7015 20.7681L51.1432 28.2115L53.5092 28.2236C55.2703 28.2236 56.5092 28.2183 57.229 28.2054C57.9468 28.1932 58.6436 28.1661 59.3181 28.1244C59.2493 28.6511 59.1873 29.2366 59.1314 29.8811C57.2468 29.8641 55.5816 29.856 54.1371 29.856L48.5679 29.8811Z" fill="#FEFEFE"/>
<path fill-rule="evenodd" clip-rule="evenodd" d="M63.7393 29.8811L64.0255 27.0155L64.4943 21.0487L64.8741 15.1677C64.8939 14.8276 64.9105 14.4872 64.9223 14.1467L64.9538 12.8758L66.238 12.888L67.4478 12.8758C67.2255 14.9519 67.038 17.1195 66.885 19.3791C66.6263 22.9997 66.4081 26.5009 66.2324 29.8811L65.0615 29.856C64.9117 29.856 64.4716 29.8641 63.7393 29.8811Z" fill="#FEFEFE"/>
<path fill-rule="evenodd" clip-rule="evenodd" d="M71.9619 29.4323C71.9562 28.6437 71.9262 27.9582 71.8716 27.3773C72.7376 27.7918 73.5181 28.0846 74.2145 28.255C74.9104 28.4254 75.5817 28.5109 76.2295 28.5109C76.8526 28.5109 77.4355 28.4048 77.9785 28.1931C78.5218 27.9813 78.9356 27.6821 79.2185 27.2959C79.5015 26.9101 79.6517 26.468 79.6692 25.9688C79.6801 25.6789 79.6432 25.4064 79.5611 25.1534C79.4785 24.8995 79.3404 24.6429 79.1457 24.3805C78.9513 24.119 78.6113 23.7659 78.1242 23.3214C77.6372 22.8777 76.9461 22.2647 76.0517 21.4842L75.1574 20.6995C74.819 20.4003 74.5137 20.1032 74.2416 19.8084C73.9696 19.5141 73.7416 19.2315 73.5607 18.9615C73.3789 18.6918 73.2404 18.4465 73.1449 18.2263C73.0477 18.0064 72.9756 17.7611 72.9275 17.4914C72.8785 17.2214 72.8586 16.9453 72.8687 16.6631C72.8934 15.9485 73.1117 15.2801 73.5242 14.6574C73.9364 14.0344 74.5412 13.536 75.3392 13.1623C76.1372 12.7886 77.1801 12.6016 78.4671 12.6016C79.3894 12.6016 80.5185 12.7259 81.855 12.9757C81.8534 13.5105 81.8882 14.1667 81.9606 14.9441C80.706 14.4951 79.5594 14.2712 78.521 14.2712C77.8072 14.2712 77.2044 14.3886 76.7149 14.6242C76.2246 14.8599 75.8493 15.1615 75.5866 15.5291C75.325 15.8967 75.1866 16.2748 75.1732 16.6631C75.1651 16.8955 75.1906 17.1218 75.2489 17.342C75.3084 17.5623 75.4007 17.7716 75.5266 17.9712C75.7068 18.2619 75.9339 18.5546 76.2056 18.8493C76.4777 19.1445 76.8558 19.504 77.3396 19.9271C77.4607 20.0267 77.9226 20.4165 78.725 21.0983C79.5271 21.7789 80.1113 22.306 80.4756 22.6801C80.8412 23.0538 81.1299 23.4012 81.3432 23.7206C81.5558 24.0404 81.7181 24.385 81.8303 24.7546C81.9416 25.1238 81.9902 25.5246 81.9748 25.9566C81.9521 26.6214 81.7878 27.234 81.4809 27.7939C81.1748 28.3554 80.7477 28.8141 80.1999 29.1708C79.6509 29.5279 79.0461 29.7809 78.3849 29.9303C77.7238 30.0805 77.036 30.155 76.3222 30.155C75.7489 30.155 75.1586 30.1117 74.5513 30.0242C73.9436 29.9372 73.0809 29.74 71.9619 29.4323Z" fill="#FEFEFE"/>
<path fill-rule="evenodd" clip-rule="evenodd" d="M87.3174 29.8811L87.7943 25.1969L88.4514 16.439L88.555 14.5325C88.5801 14.0511 88.604 13.4985 88.6259 12.8758C90.5016 12.8843 92.4231 12.888 94.3915 12.888L98.3639 12.8758H99.6348C99.5563 13.4532 99.4988 14.0341 99.4615 14.62L98.3546 14.5576C98.0809 14.5406 97.6105 14.5285 96.9413 14.5204C96.2733 14.5123 95.6113 14.5074 94.955 14.5074C92.9947 14.5074 91.6283 14.5204 90.855 14.5451L90.4259 20.3754C91.7036 20.4005 92.8502 20.4127 93.8639 20.4127C94.9684 20.4127 96.4186 20.3961 98.2145 20.3629C98.1356 20.9442 98.0785 21.5175 98.0413 22.0819L93.7554 22.0451C92.9166 22.0451 91.7486 22.0621 90.2526 22.0953L89.8113 28.2495L91.1073 28.2617C93.4591 28.2617 95.0198 28.2532 95.7895 28.2366C96.5579 28.22 97.4587 28.1831 98.4915 28.1244C98.4113 28.739 98.3538 29.3244 98.3174 29.8811C96.317 29.8641 94.6271 29.856 93.2486 29.856L87.3174 29.8811Z" fill="#FEFEFE"/>
<path fill-rule="evenodd" clip-rule="evenodd" d="M16.284 29.4323C16.2783 28.6437 16.2487 27.9582 16.1941 27.3773C17.0597 27.7918 17.8407 28.0846 18.5362 28.255C19.2321 28.4254 19.9038 28.5109 20.552 28.5109C21.1751 28.5109 21.7581 28.4048 22.3006 28.1931C22.8443 27.9813 23.2577 27.6821 23.5411 27.2959C23.8241 26.9101 23.9747 26.468 23.9917 25.9688C24.0022 25.6789 23.9658 25.4064 23.8836 25.1534C23.8006 24.8995 23.6629 24.6429 23.4682 24.3805C23.2739 24.119 22.933 23.7659 22.4467 23.3214C21.9597 22.8777 21.2686 22.2647 20.3734 21.4842L19.4791 20.6995C19.1415 20.4003 18.8358 20.1032 18.5633 19.8084C18.2913 19.5141 18.0641 19.2315 17.8832 18.9615C17.7014 18.6918 17.5629 18.4465 17.4666 18.2263C17.3702 18.0064 17.2977 17.7611 17.2492 17.4914C17.201 17.2214 17.1811 16.9453 17.1909 16.6631C17.216 15.9485 17.4342 15.2801 17.8467 14.6574C18.2585 14.0344 18.8637 13.536 19.6617 13.1623C20.4593 12.7886 21.5022 12.6016 22.7888 12.6016C23.7119 12.6016 24.8411 12.7259 26.1775 12.9757C26.1755 13.5105 26.2107 14.1667 26.2832 14.9441C25.0281 14.4951 23.8815 14.2712 22.8431 14.2712C22.1289 14.2712 21.5269 14.3886 21.0366 14.6242C20.5471 14.8599 20.171 15.1615 19.9091 15.5291C19.6471 15.8967 19.5091 16.2748 19.4957 16.6631C19.4876 16.8955 19.5131 17.1218 19.5714 17.342C19.6305 17.5623 19.7228 17.7716 19.8487 17.9712C20.0293 18.2619 20.256 18.5546 20.5281 18.8493C20.8002 19.1445 21.1783 19.504 21.6613 19.9271C21.7824 20.0267 22.2443 20.4165 23.0471 21.0983C23.8496 21.7789 24.4338 22.306 24.7981 22.6801C25.1637 23.0538 25.4524 23.4012 25.6658 23.7206C25.8783 24.0404 26.0407 24.385 26.152 24.7546C26.2637 25.1238 26.3127 25.5246 26.2973 25.9566C26.2743 26.6214 26.1095 27.234 25.8034 27.7939C25.4973 28.3554 25.0698 28.8141 24.522 29.1708C23.9734 29.5279 23.3686 29.7809 22.7075 29.9303C22.0459 30.0805 21.3585 30.155 20.6443 30.155C20.071 30.155 19.4807 30.1117 18.8734 30.0242C18.2662 29.9372 17.4026 29.74 16.284 29.4323Z" fill="#0066B2"/>
<path fill-rule="evenodd" clip-rule="evenodd" d="M31.6394 29.8811L32.1167 25.1969L32.7734 16.439L32.8775 14.5325C32.9026 14.0511 32.9264 13.4985 32.9475 12.8758C34.8232 12.8843 36.7455 12.888 38.7131 12.888L42.6862 12.8758H43.9562C43.8777 13.4532 43.8202 14.0341 43.783 14.62L42.6769 14.5576C42.4032 14.5406 41.932 14.5285 41.2635 14.5204C40.5959 14.5123 39.9329 14.5074 39.2775 14.5074C37.3171 14.5074 35.9507 14.5204 35.1775 14.5451L34.7479 20.3754C36.026 20.4005 37.1722 20.4127 38.1856 20.4127C39.2904 20.4127 40.7405 20.3961 42.536 20.3629C42.4579 20.9442 42.4 21.5175 42.3639 22.0819L38.0779 22.0451C37.239 22.0451 36.071 22.0621 34.5742 22.0953L34.1333 28.2495L35.4293 28.2617C37.7815 28.2617 39.3414 28.2532 40.1111 28.2366C40.8801 28.22 41.7809 28.1831 42.8133 28.1244C42.7336 28.739 42.6761 29.3244 42.6396 29.8811C40.6388 29.8641 38.9487 29.856 37.5702 29.856L31.6394 29.8811Z" fill="#0066B2"/>
<path fill-rule="evenodd" clip-rule="evenodd" d="M48.5679 29.8811C48.8326 27.7382 49.0873 25.12 49.3318 22.026C49.5768 18.9325 49.7683 15.8823 49.9067 12.8758C50.48 12.8843 50.9156 12.888 51.2152 12.888L52.3752 12.8758L51.7015 20.7681L51.1432 28.2115L53.5092 28.2236C55.2703 28.2236 56.5092 28.2183 57.229 28.2054C57.9468 28.1932 58.6436 28.1661 59.3181 28.1244C59.2493 28.6511 59.1873 29.2366 59.1314 29.8811C57.2468 29.8641 55.5816 29.856 54.1371 29.856L48.5679 29.8811Z" fill="#0066B2"/>
<path fill-rule="evenodd" clip-rule="evenodd" d="M63.7393 29.8811L64.0255 27.0155L64.4943 21.0487L64.8741 15.1677C64.8939 14.8276 64.9105 14.4872 64.9223 14.1467L64.9538 12.8758L66.238 12.888L67.4478 12.8758C67.2255 14.9519 67.038 17.1195 66.885 19.3791C66.6263 22.9997 66.4081 26.5009 66.2324 29.8811L65.0615 29.856C64.9117 29.856 64.4716 29.8641 63.7393 29.8811Z" fill="#0066B2"/>
<path fill-rule="evenodd" clip-rule="evenodd" d="M71.9619 29.4323C71.9562 28.6437 71.9262 27.9582 71.8716 27.3773C72.7376 27.7918 73.5181 28.0846 74.2145 28.255C74.9104 28.4254 75.5817 28.5109 76.2295 28.5109C76.8526 28.5109 77.4355 28.4048 77.9785 28.1931C78.5218 27.9813 78.9356 27.6821 79.2185 27.2959C79.5015 26.9101 79.6517 26.468 79.6692 25.9688C79.6801 25.6789 79.6432 25.4064 79.5611 25.1534C79.4785 24.8995 79.3404 24.6429 79.1457 24.3805C78.9513 24.119 78.6113 23.7659 78.1242 23.3214C77.6372 22.8777 76.9461 22.2647 76.0517 21.4842L75.1574 20.6995C74.819 20.4003 74.5137 20.1032 74.2416 19.8084C73.9696 19.5141 73.7416 19.2315 73.5607 18.9615C73.3789 18.6918 73.2404 18.4465 73.1449 18.2263C73.0477 18.0064 72.9756 17.7611 72.9275 17.4914C72.8785 17.2214 72.8586 16.9453 72.8687 16.6631C72.8934 15.9485 73.1117 15.2801 73.5242 14.6574C73.9364 14.0344 74.5412 13.536 75.3392 13.1623C76.1372 12.7886 77.1801 12.6016 78.4671 12.6016C79.3894 12.6016 80.5185 12.7259 81.855 12.9757C81.8534 13.5105 81.8882 14.1667 81.9606 14.9441C80.706 14.4951 79.5594 14.2712 78.521 14.2712C77.8072 14.2712 77.2044 14.3886 76.7149 14.6242C76.2246 14.8599 75.8493 15.1615 75.5866 15.5291C75.325 15.8967 75.1866 16.2748 75.1732 16.6631C75.1651 16.8955 75.1906 17.1218 75.2489 17.342C75.3084 17.5623 75.4007 17.7716 75.5266 17.9712C75.7068 18.2619 75.9339 18.5546 76.2056 18.8493C76.4777 19.1445 76.8558 19.504 77.3396 19.9271C77.4607 20.0267 77.9226 20.4165 78.725 21.0983C79.5271 21.7789 80.1113 22.306 80.4756 22.6801C80.8412 23.0538 81.1299 23.4012 81.3432 23.7206C81.5558 24.0404 81.7181 24.385 81.8303 24.7546C81.9416 25.1238 81.9902 25.5246 81.9748 25.9566C81.9521 26.6214 81.7878 27.234 81.4809 27.7939C81.1748 28.3554 80.7477 28.8141 80.1999 29.1708C79.6509 29.5279 79.0461 29.7809 78.3849 29.9303C77.7238 30.0805 77.036 30.155 76.3222 30.155C75.7489 30.155 75.1586 30.1117 74.5513 30.0242C73.9436 29.9372 73.0809 29.74 71.9619 29.4323Z" fill="#0066B2"/>
<path fill-rule="evenodd" clip-rule="evenodd" d="M87.3174 29.8811L87.7943 25.1969L88.4514 16.439L88.555 14.5325C88.5801 14.0511 88.604 13.4985 88.6259 12.8758C90.5016 12.8843 92.4231 12.888 94.3915 12.888L98.3639 12.8758H99.6348C99.5563 13.4532 99.4988 14.0341 99.4615 14.62L98.3546 14.5576C98.0809 14.5406 97.6105 14.5285 96.9413 14.5204C96.2733 14.5123 95.6113 14.5074 94.955 14.5074C92.9947 14.5074 91.6283 14.5204 90.855 14.5451L90.4259 20.3754C91.7036 20.4005 92.8502 20.4127 93.8639 20.4127C94.9684 20.4127 96.4186 20.3961 98.2145 20.3629C98.1356 20.9442 98.0785 21.5175 98.0413 22.0819L93.7554 22.0451C92.9166 22.0451 91.7486 22.0621 90.2526 22.0953L89.8113 28.2495L91.1073 28.2617C93.4591 28.2617 95.0198 28.2532 95.7895 28.2366C96.5579 28.22 97.4587 28.1831 98.4915 28.1244C98.4113 28.739 98.3538 29.3244 98.3174 29.8811C96.317 29.8641 94.6271 29.856 93.2486 29.856L87.3174 29.8811Z" fill="#0066B2"/>
<path fill-rule="evenodd" clip-rule="evenodd" d="M22.5945 41.6575C21.2593 41.6575 19.9548 41.5251 18.6913 41.2797C18.6815 41.1907 18.6738 41.1073 18.6609 41.0105C18.65 40.9279 18.6317 40.8332 18.6176 40.7453C18.852 40.7461 19.084 40.7518 19.324 40.7433C20.1172 40.7133 20.9066 40.6364 21.6706 40.502C22.4342 40.3693 23.173 40.1879 23.8666 39.9677C24.4577 39.7806 25.007 39.5612 25.524 39.3308C25.6985 39.7612 25.8572 40.1843 25.9892 40.5923C26.071 40.8453 26.1423 41.0911 26.2079 41.3328C25.0346 41.5421 23.8285 41.6575 22.5945 41.6575ZM16.0022 40.5615C16.7338 40.6652 17.5131 40.7299 18.3269 40.7457C18.3374 40.781 18.35 40.8182 18.3601 40.8526C18.3998 40.9882 18.4338 41.1154 18.4657 41.2388C17.6236 41.0656 16.8026 40.8352 16.0022 40.5615ZM12.8459 39.1798C12.5289 39.007 12.2176 38.8244 11.9111 38.6353C11.9087 38.6252 11.9054 38.6146 11.903 38.6045C12.6151 38.7389 13.4002 38.8438 14.2609 38.8936C15.2755 38.9458 16.3864 38.9138 17.5544 38.7738C17.6265 38.9235 17.6941 39.0713 17.7581 39.2167C17.8386 39.3984 17.9107 39.5746 17.9787 39.7478C16.9261 39.7296 15.9002 39.6523 14.9411 39.5268C14.1977 39.4312 13.4977 39.3106 12.8459 39.1798ZM11.3366 37.0661C11.7568 37.0636 12.1965 37.045 12.6706 37.0061C12.9702 36.9721 13.2823 36.9454 13.5998 36.892C13.7593 36.8673 13.9212 36.8438 14.0844 36.8154C14.2475 36.7835 14.4135 36.7507 14.5807 36.7175C14.6645 36.7009 14.7487 36.6839 14.8338 36.6661C14.918 36.6462 15.0026 36.6256 15.088 36.6053C15.2585 36.5632 15.4313 36.5207 15.6058 36.4778C15.7775 36.4304 15.9504 36.3786 16.1257 36.328C16.4532 36.8069 16.7483 37.2798 17.0107 37.741C16.7366 37.7766 16.4625 37.8126 16.1921 37.8365C15.8362 37.8774 15.4828 37.894 15.1362 37.9207C14.9625 37.9325 14.7908 37.9349 14.6204 37.9426C14.4496 37.9503 14.2807 37.9584 14.1135 37.9572C13.9463 37.9592 13.7807 37.9612 13.6172 37.9632C13.4544 37.9604 13.2925 37.9576 13.1338 37.9547C13.054 37.9535 12.9742 37.9535 12.8961 37.9503C12.818 37.947 12.7398 37.943 12.6625 37.9393C12.5079 37.9312 12.3552 37.9284 12.205 37.9171C12.0228 37.9057 11.852 37.8887 11.6775 37.8738C11.5815 37.6106 11.4726 37.3426 11.3366 37.0661ZM9.71514 34.7268C10.1718 34.4284 10.69 34.0835 11.2649 33.6899C11.7803 33.3361 12.3419 32.9426 12.9386 32.5122C13.8285 33.4215 14.6572 34.3563 15.373 35.2908C15.3751 35.2932 15.3767 35.296 15.3787 35.2984C15.3074 35.3244 15.2362 35.3499 15.1641 35.3721C14.9925 35.428 14.822 35.4839 14.6532 35.5385L14.5265 35.5802L14.4002 35.6167C14.3155 35.6418 14.2317 35.6661 14.1483 35.6908C13.8155 35.794 13.4852 35.8729 13.1649 35.9588C13.0038 35.9964 12.8447 36.0333 12.688 36.0697C12.6099 36.0871 12.5321 36.1069 12.454 36.1231C12.3767 36.1385 12.2994 36.1535 12.2232 36.1685C11.7787 36.2616 11.3609 36.326 10.9585 36.3802C10.6261 35.8304 10.2119 35.2725 9.71514 34.7268ZM10.6099 37.7604C10.2641 37.5086 9.92364 37.2491 9.59449 36.9766C9.83579 37.0061 10.1002 37.028 10.3763 37.0446C10.3844 37.0555 10.3933 37.0665 10.4014 37.0774C10.5698 37.3154 10.7196 37.5531 10.8597 37.7895C10.7771 37.7798 10.69 37.7709 10.6099 37.7604ZM8.19409 35.7041C8.38073 35.5851 8.60826 35.441 8.87101 35.2729C9.26129 35.6681 9.6289 36.0766 9.95967 36.4908C9.89287 36.4964 9.81919 36.5041 9.75482 36.5098C9.51878 36.5223 9.29692 36.5373 9.09044 36.5401C8.78437 36.2693 8.48356 35.9924 8.19409 35.7041ZM7.4451 34.9155C7.53012 34.7061 7.62688 34.4746 7.73619 34.2231C7.93781 34.394 8.13984 34.5721 8.34186 34.7588C8.45644 34.8657 8.56656 34.9762 8.67789 35.0855C8.45279 35.2883 8.26008 35.4628 8.10097 35.6086C7.87708 35.3823 7.65805 35.1519 7.4451 34.9155ZM7.37344 34.1499C7.32526 34.3405 7.28356 34.5159 7.24429 34.6835C7.06089 34.4742 6.88073 34.2616 6.70623 34.045C6.68761 33.8357 6.67101 33.6142 6.65644 33.381C6.90988 33.562 7.16575 33.7596 7.42202 33.9677C7.40583 34.028 7.38842 34.0916 7.37344 34.1499ZM6.6119 31.0349C6.61878 30.66 6.63903 30.2689 6.6621 29.8624C6.69166 29.4563 6.72283 29.0349 6.77182 28.6005C6.81271 28.2171 6.86737 27.8187 6.9285 27.4155C7.16939 27.5847 7.4115 27.7547 7.65967 27.9369C8.14874 28.2972 8.65401 28.6908 9.16534 29.1017C9.13781 29.164 9.10907 29.2276 9.08194 29.2891C8.99611 29.4786 8.91676 29.6681 8.83943 29.8547C8.76291 30.0418 8.68397 30.2244 8.61271 30.4065C8.32283 31.1337 8.0783 31.8211 7.87101 32.4499C7.81352 32.6272 7.76008 32.7989 7.70907 32.9665C7.34834 32.7167 6.98032 32.5001 6.6115 32.3037C6.60299 31.9041 6.60137 31.4827 6.6119 31.0349ZM5.78194 32.8069C5.85886 32.8531 5.93457 32.8948 6.01231 32.9446C6.07749 32.9855 6.14388 33.0333 6.20947 33.0766C6.23295 33.2223 6.25644 33.3661 6.28073 33.5033C6.10907 33.2754 5.94388 33.0422 5.78194 32.8069ZM5.28032 31.4839C5.10826 30.709 4.94105 29.8353 4.80137 28.8713C4.66899 27.9527 4.56858 26.9487 4.51433 25.875C5.00218 26.1523 5.51514 26.4669 6.0532 26.8207C5.86251 28.6495 5.89652 30.3337 6.03741 31.747C6.04712 31.8438 6.05846 31.9349 6.06939 32.0292C5.82445 31.9179 5.58073 31.8195 5.33943 31.7357C5.31959 31.6515 5.29975 31.5705 5.28032 31.4839ZM2.52769 24.9086C2.89328 25.0474 3.28761 25.2252 3.70866 25.4389C3.73579 25.7673 3.76777 26.0895 3.80421 26.4053C3.95643 27.66 4.17708 28.8163 4.42971 29.8515C4.54874 30.3381 4.67303 30.796 4.79976 31.2276C3.71352 29.294 2.93579 27.1661 2.52769 24.9086ZM2.19571 21.2612C2.19571 19.8851 2.33417 18.5414 2.59368 17.2418C2.81838 17.2968 3.04955 17.3596 3.28923 17.4385C3.60583 17.5422 3.93619 17.6681 4.27587 17.8094C4.26089 17.8669 4.2451 17.9244 4.23255 17.9818C4.19004 18.1685 4.14793 18.3547 4.10542 18.5406C4.06413 18.726 4.03255 18.913 3.99611 19.098C3.9783 19.1912 3.96129 19.2831 3.94348 19.3762L3.90056 19.6535C3.87303 19.8385 3.84065 20.0223 3.81838 20.2065C3.7204 20.9414 3.66575 21.6673 3.63498 22.3762C3.60826 23.0863 3.61635 23.7798 3.64348 24.4527C3.65036 24.5928 3.6621 24.7276 3.67101 24.8652C3.24105 24.7134 2.83417 24.5944 2.45724 24.5126C2.2872 23.4535 2.19571 22.3681 2.19571 21.2612ZM5.42567 10.2499C5.94631 10.515 6.56696 10.8446 7.27222 11.2385C7.19935 11.3442 7.12688 11.4499 7.0532 11.5563C6.83336 11.8689 6.63781 12.2021 6.43214 12.5341C6.33052 12.7009 6.23984 12.8754 6.14227 13.0474C6.09409 13.1337 6.04631 13.2203 5.99814 13.3074C5.94955 13.3936 5.90745 13.4843 5.8621 13.5733C5.77303 13.7519 5.68356 13.9304 5.5949 14.1086C5.51312 14.2899 5.43133 14.4717 5.35036 14.6527C5.26615 14.8325 5.1949 15.0171 5.12162 15.2005L5.0119 15.4754L4.95765 15.6126L4.90826 15.7519C4.84307 15.9373 4.77749 16.1223 4.71271 16.3065C4.65077 16.492 4.59571 16.679 4.53741 16.8648C4.50947 16.9572 4.47911 17.0499 4.45279 17.143C4.44186 17.1851 4.43052 17.2268 4.41878 17.2689C3.80259 17.0754 3.22 16.9426 2.67587 16.864C3.20097 14.4742 4.14429 12.2442 5.42567 10.2499ZM10.2374 5.03286C10.288 5.04865 10.3354 5.06201 10.3872 5.07901C10.7103 5.17173 11.0536 5.30735 11.4236 5.4361C11.4694 5.4531 11.5172 5.46727 11.5633 5.4863C11.6095 5.50573 11.656 5.52517 11.7038 5.5442C11.7977 5.58266 11.8933 5.62112 11.9908 5.6608C12.088 5.69966 12.1868 5.73853 12.2868 5.77861C12.337 5.79845 12.3876 5.81828 12.4382 5.83812C12.4888 5.85958 12.5386 5.88347 12.5896 5.90533C12.6131 5.91586 12.6378 5.92638 12.6613 5.93731C12.4791 6.06727 12.2969 6.19723 12.1107 6.33084C11.9819 6.4195 11.8601 6.52112 11.7342 6.61788C11.6087 6.71626 11.4823 6.81505 11.3548 6.91505C10.3483 7.72638 9.34065 8.67011 8.39976 9.77577C8.28518 9.91667 8.1698 10.0576 8.0536 10.2001C7.9949 10.2713 7.93741 10.3426 7.8787 10.4142C7.82162 10.4871 7.76737 10.5624 7.71109 10.6369C7.68801 10.6681 7.66453 10.6997 7.64105 10.7312C7.61473 10.7203 7.58518 10.7074 7.55886 10.6964C6.82 10.3976 6.16251 10.1596 5.6034 9.97254C6.86413 8.07942 8.43255 6.40938 10.2374 5.03286ZM15.8686 2.00169C16.4653 2.16606 17.0973 2.35877 17.756 2.58873C17.9892 2.66971 18.2208 2.75351 18.4512 2.83934C18.0305 3.01019 17.5929 3.19643 17.1382 3.40331C17.0281 3.4523 16.9172 3.5025 16.8042 3.55311C16.6941 3.60695 16.5815 3.66201 16.469 3.71748C16.2431 3.82882 16.0131 3.94299 15.7783 4.05918C15.5459 4.18063 15.3127 4.31059 15.0722 4.44015C14.9528 4.50533 14.8321 4.57092 14.7099 4.63812C14.5908 4.70857 14.4706 4.78063 14.3496 4.8531C14.2277 4.92517 14.105 4.99885 13.9819 5.07294C13.8734 5.13691 13.7645 5.20371 13.6581 5.27335C13.6111 5.25756 13.5633 5.24055 13.5168 5.22476C13.271 5.14217 13.0297 5.06241 12.7933 4.98671C12.1135 4.7944 11.4706 4.6527 10.884 4.5616C12.4062 3.49197 14.0803 2.62598 15.8686 2.00169ZM15.2439 7.15999C15.3629 7.21909 15.4819 7.27861 15.6006 7.33731C15.7192 7.39642 15.839 7.45229 15.954 7.51828C16.186 7.64501 16.418 7.7693 16.6479 7.89116C16.7637 7.95148 16.8783 8.01181 16.9921 8.07132C17.0491 8.10088 17.1058 8.13043 17.1629 8.15998C17.22 8.18913 17.2738 8.22314 17.3297 8.25391C17.3787 8.28185 17.4253 8.30816 17.4747 8.33569C16.8678 8.76363 16.1921 9.26606 15.4483 9.8782C14.8771 10.3572 14.2637 10.8891 13.6415 11.5025C13.1823 11.9511 12.7107 12.4369 12.2398 12.9677C12.1564 12.9207 12.0726 12.8742 11.99 12.828C11.7876 12.7167 11.5876 12.6061 11.3904 12.4972C11.1913 12.3928 10.9941 12.2895 10.7994 12.1879C10.7018 12.1373 10.6054 12.0875 10.5087 12.0377C10.4123 11.9899 10.3159 11.9426 10.2208 11.8948C10.0293 11.8013 9.84146 11.7074 9.65563 11.6191C9.31271 11.4572 8.98235 11.3069 8.65886 11.1644L8.70988 11.0936L8.79692 10.9831L8.96939 10.764L9.14105 10.5454C9.19773 10.4725 9.25441 10.3989 9.31554 10.33C10.2629 9.19359 11.3042 8.17375 12.3803 7.28023C12.7771 6.95027 13.1787 6.64298 13.5807 6.34622C13.6755 6.39197 13.7706 6.43812 13.867 6.48468C14.0876 6.59075 14.3147 6.69723 14.5463 6.80411C14.7751 6.92031 15.0074 7.03934 15.2439 7.15999ZM8.26048 18.9523C7.28073 18.4183 6.33174 17.975 5.42931 17.6268C5.45198 17.5462 5.47425 17.4652 5.49935 17.3851L5.58235 17.1312C5.63943 16.9616 5.69044 16.7891 5.75239 16.6199C5.81473 16.4507 5.87749 16.2806 5.93984 16.1094L5.9872 15.981L6.03943 15.8547C6.07425 15.7697 6.10866 15.6851 6.14388 15.5997C6.21312 15.4296 6.28113 15.2576 6.36089 15.0899C6.43741 14.9211 6.51433 14.7511 6.59206 14.5806C6.67627 14.4134 6.76048 14.245 6.8451 14.0762C6.88801 13.9924 6.92769 13.9061 6.97344 13.824L7.11069 13.5762L7.24753 13.328C7.29287 13.2454 7.3366 13.162 7.3872 13.0827C7.48518 12.9211 7.58235 12.7604 7.67951 12.5997L7.75279 12.4786L7.82971 12.3612L7.98558 12.1264L8.14065 11.892L8.21554 11.7786C9.20461 12.3539 10.3123 13.0329 11.5159 13.8235C10.3564 15.2466 9.21028 16.947 8.26048 18.9523ZM6.87992 22.5746C6.5536 23.7106 6.31392 24.8365 6.1621 25.924C6.15967 25.9406 6.15805 25.9567 6.15563 25.9737C5.57951 25.6697 5.02081 25.4041 4.48842 25.1818C4.4872 25.1458 4.48599 25.1094 4.48518 25.0733C4.48437 25.0005 4.48397 24.9276 4.48356 24.8543C4.48194 24.7082 4.48032 24.5604 4.47911 24.4114C4.48113 24.2628 4.48397 24.113 4.48558 23.962C4.4872 23.8863 4.48801 23.811 4.48963 23.7345C4.49206 23.6584 4.49571 23.5823 4.49854 23.5061C4.50461 23.3527 4.51109 23.1984 4.51716 23.043C4.52769 22.8891 4.53781 22.7325 4.54874 22.5754C4.5536 22.4968 4.55927 22.4183 4.56453 22.3389C4.57182 22.2604 4.57992 22.181 4.5868 22.1017C4.63903 21.4652 4.73133 20.8163 4.84024 20.1555C4.87101 19.9908 4.90097 19.8248 4.93174 19.6584C4.96008 19.4912 5.00218 19.326 5.0366 19.1584C5.09652 18.8572 5.17708 18.5572 5.25279 18.2539C5.37668 18.3146 5.49895 18.3733 5.62486 18.4381C6.34712 18.8102 7.10745 19.2547 7.8949 19.7588C7.49368 20.6895 7.15603 21.6357 6.87992 22.5746ZM11.1058 22.0385C11.5597 22.392 12.0204 22.7632 12.4844 23.1491C12.4589 23.1875 12.4325 23.2219 12.407 23.2604C12.1394 23.6685 11.8666 24.0701 11.6184 24.4823C11.4917 24.6871 11.367 24.8912 11.2427 25.094C11.1232 25.3001 11.0046 25.5049 10.8872 25.7082C10.8285 25.8102 10.7706 25.9114 10.7119 26.0126C10.6568 26.1154 10.6006 26.2175 10.5451 26.3191C10.4354 26.5231 10.3261 26.7252 10.218 26.9256C10.1143 27.1284 10.0119 27.3296 9.91028 27.5296C9.86008 27.6292 9.80988 27.728 9.76008 27.8268C9.71271 27.9268 9.66453 28.026 9.61757 28.1248C9.61433 28.132 9.61109 28.1385 9.60785 28.1458C9.07425 27.7576 8.54146 27.3859 8.01392 27.0515C7.70299 26.8543 7.39449 26.6685 7.08882 26.4908C7.1289 26.2742 7.16129 26.0636 7.20664 25.8426C7.40826 24.8782 7.6698 23.8725 8.00461 22.8414C8.26413 22.0511 8.56332 21.2442 8.9115 20.4312C9.62405 20.9207 10.3568 21.4567 11.1058 22.0385ZM11.6722 31.2689C11.8819 31.4644 12.084 31.6652 12.2884 31.8644C11.6168 32.4604 10.9884 33.0191 10.4305 33.5163C10.0645 33.8426 9.72648 34.1442 9.42081 34.4183C9.29125 34.2859 9.16413 34.1531 9.02445 34.0231C8.74307 33.7624 8.44915 33.5235 8.15077 33.296C8.3115 32.9487 8.48842 32.5766 8.68356 32.181C9.04389 31.4462 9.47303 30.6284 9.95603 29.7523C10.5228 30.2292 11.0953 30.73 11.6722 31.2689ZM17.2054 35.9758C17.2516 35.96 17.2969 35.9442 17.3423 35.9284C17.3876 35.911 17.4325 35.8932 17.4779 35.8758C17.5686 35.8401 17.6597 35.8045 17.7508 35.7689C17.933 35.696 18.1192 35.6268 18.303 35.547C18.486 35.4661 18.6702 35.3839 18.856 35.3013C20.0463 34.7596 21.1698 34.1142 22.1933 33.4369C22.3657 33.679 22.5354 33.9207 22.6994 34.162C23.137 34.8069 23.539 35.4491 23.9107 36.0847C22.3892 36.6126 20.5382 37.1567 18.3686 37.5434C18.1459 37.579 17.9257 37.6114 17.705 37.6446C17.4896 37.1418 17.2301 36.6146 16.9265 36.0713C17.0192 36.0393 17.1115 36.0082 17.2054 35.9758ZM24.6811 37.4843C24.8917 37.8964 25.0799 38.3013 25.2564 38.7009C23.6613 39.2272 21.6581 39.6616 19.2884 39.7406C18.9965 39.7503 18.707 39.7507 18.418 39.7507C18.3362 39.4215 18.2285 39.0657 18.103 38.696C18.2552 38.6733 18.4038 38.6576 18.5576 38.6312C20.0941 38.3604 21.5807 37.9118 22.8994 37.3823C23.0641 37.3163 23.2269 37.2499 23.3884 37.1855C23.5483 37.1187 23.703 37.0442 23.8577 36.9754C24.0074 36.9065 24.1556 36.8389 24.3018 36.7717C24.4326 37.0102 24.5605 37.2482 24.6811 37.4843ZM26.7139 41.2356C26.5925 40.5518 26.4172 39.8146 26.167 39.0329C26.6107 38.8098 27.0184 38.579 27.384 38.3523C28.3172 37.7778 28.9819 37.224 29.3767 36.8786C29.7641 36.5227 29.8937 36.3839 29.6965 36.5349C29.5973 36.6098 29.4572 36.7102 29.2747 36.8284C29.0896 36.943 28.8682 37.0847 28.5985 37.2325C28.0649 37.5341 27.3613 37.8908 26.4913 38.2495C26.3261 38.3171 26.1483 38.3839 25.9706 38.4507C25.7346 37.7806 25.4487 37.0831 25.1135 36.364C25.2645 36.2855 25.42 36.2049 25.5653 36.1304C25.82 35.9831 26.0641 35.8426 26.2969 35.709C26.4123 35.6414 26.5249 35.5758 26.6346 35.5114C26.7411 35.443 26.8447 35.3766 26.9451 35.3126C27.1443 35.1835 27.3309 35.0628 27.5034 34.9515C27.5884 34.8948 27.6718 34.843 27.7479 34.7883C27.8236 34.7337 27.8965 34.6818 27.9649 34.632C28.1014 34.5329 28.2216 34.445 28.3265 34.3681C28.7411 34.0608 28.8823 33.9365 28.6722 34.0616C28.4609 34.1863 28.0742 34.3806 27.5281 34.6406C27.2512 34.762 26.935 34.9013 26.5807 35.0567C26.4058 35.1381 26.2135 35.2082 26.0159 35.2891C25.8188 35.3693 25.6119 35.4531 25.3953 35.5406C25.2119 35.611 25.0172 35.6843 24.82 35.7576C24.3908 34.8964 23.8953 34.0094 23.3212 33.1041C23.2568 33.0021 23.1868 32.8984 23.1204 32.7956C23.6504 32.4094 24.1576 32.0292 24.6119 31.6474C25.1305 31.2341 25.5844 30.8126 26.0006 30.4401C26.1054 30.3478 26.2034 30.2531 26.2977 30.1608C26.3929 30.0685 26.4848 29.9786 26.5734 29.892C26.7508 29.7183 26.9159 29.5547 27.0682 29.4049C27.3674 29.0997 27.6054 28.8341 27.7872 28.6349C28.1483 28.2341 28.2666 28.075 28.0747 28.2446C27.8836 28.4138 27.5184 28.6823 27.0066 29.0531C26.4827 29.409 25.8168 29.8746 24.9937 30.3976C24.8917 30.4644 24.7876 30.5325 24.6811 30.6021C24.5755 30.6709 24.4629 30.7369 24.3516 30.8069C24.1281 30.9462 23.8961 31.0903 23.6556 31.241C23.537 31.3179 23.4115 31.3887 23.2856 31.4632C23.1597 31.5377 23.0321 31.6134 22.9026 31.6908C22.7803 31.764 22.6552 31.8389 22.5297 31.9142C22.3111 31.5976 22.0807 31.2794 21.8447 30.9604C21.4516 31.0053 21.0504 31.0296 20.6443 31.0296C20.5427 31.0296 20.437 31.0207 20.3342 31.0183C20.7366 31.5082 21.1301 32.0001 21.503 32.4936C20.5415 33.0292 19.4844 33.5806 18.3143 34.1138C18.137 34.194 17.9609 34.2742 17.7848 34.3539C17.6091 34.432 17.4301 34.5029 17.2548 34.5782C16.9253 34.7231 16.5929 34.8474 16.2653 34.9758C16.1548 34.8053 16.0402 34.6341 15.9208 34.462C15.3305 33.6098 14.6297 32.7373 13.8228 31.8652C14.4913 31.3697 15.1985 30.8276 15.9334 30.243L15.4143 30.1001L15.4095 29.4385C15.4087 29.324 15.4062 29.2159 15.4042 29.1053C14.6083 29.8082 13.8382 30.4904 13.1151 31.1312C12.8917 30.9074 12.6641 30.6843 12.4265 30.4624C11.7949 29.8721 11.1431 29.324 10.486 28.8082C10.554 28.6891 10.6172 28.575 10.6868 28.4543C11.4868 27.075 12.4236 25.577 13.4832 23.9984C14.3107 24.7183 15.15 25.4916 15.9921 26.3106L16.5722 26.5883C17.3791 26.975 18.1099 27.2503 18.7443 27.4057C18.8933 27.4422 19.0419 27.4737 19.1888 27.5017C20.3123 26.4997 21.3892 25.4742 22.3828 24.4705C22.2487 24.3341 22.0779 24.1693 21.8568 23.9673C21.7649 23.8839 21.6589 23.7883 21.5536 23.6932C20.5277 24.5944 19.4034 25.5827 18.1836 26.6543C18.1706 26.641 18.1581 26.6272 18.1451 26.6138C16.8674 25.3001 15.5297 24.0847 14.1787 22.9839C15.1131 21.641 16.071 20.3592 16.9925 19.1835C16.8637 18.9729 16.7491 18.7677 16.6653 18.5774C16.607 18.4442 16.5564 18.3021 16.5115 18.1547C16.2366 18.4426 15.9585 18.7385 15.6734 19.058C14.8605 19.9742 14.0103 21.0122 13.1641 22.1794C12.6074 21.7519 12.05 21.3442 11.4957 20.9596C10.7597 20.4486 10.0281 19.981 9.30745 19.5519C10.1718 17.6936 11.2423 15.9515 12.3828 14.4057C13.5674 15.2134 14.818 16.1191 16.1139 17.1316C16.1929 17.1936 16.2698 17.2576 16.3479 17.3203C16.3236 17.0924 16.3091 16.8628 16.3172 16.6325C16.3277 16.3288 16.3779 16.0337 16.4455 15.7422C16.3994 15.7069 16.3532 15.6717 16.3074 15.6369C16.2054 15.5592 16.1042 15.4806 16.001 15.4053C15.8969 15.3316 15.7937 15.2572 15.6904 15.1831C15.4836 15.0357 15.2771 14.8895 15.0722 14.7438C14.8633 14.6041 14.6564 14.4644 14.45 14.3264C14.3463 14.2576 14.2435 14.1891 14.1406 14.1211C14.0366 14.0551 13.9325 13.9899 13.8293 13.9248C13.622 13.7952 13.4164 13.6665 13.2127 13.5389C13.1747 13.5163 13.1378 13.4944 13.0998 13.4721C13.6641 12.7628 14.2366 12.0997 14.7985 11.4912C14.9666 11.3138 15.1261 11.1341 15.2921 10.9661C15.4572 10.7976 15.6192 10.6316 15.7775 10.4693C15.9382 10.3082 16.0994 10.1547 16.2544 10.0025C16.3317 9.92598 16.4087 9.85067 16.4844 9.77658C16.5621 9.70411 16.639 9.63245 16.7151 9.56201C17.1131 9.18752 17.4884 8.84986 17.8386 8.54217C17.8864 8.56889 17.9358 8.59683 17.9828 8.62355C18.1989 8.74217 18.4091 8.85837 18.6147 8.97213C18.8196 9.08792 19.0131 9.20938 19.2054 9.32031C19.5872 9.54622 19.9463 9.7531 20.2747 9.93853C21.5524 10.7308 22.339 11.158 22.0617 10.9466C21.9232 10.8414 21.6998 10.6284 21.388 10.3268C21.2321 10.1758 21.0528 10.0033 20.8528 9.81019C20.7512 9.71464 20.6483 9.60897 20.5321 9.50857C20.4155 9.40776 20.2933 9.30209 20.1662 9.19197C19.9103 8.97294 19.6305 8.7365 19.3257 8.48549C19.2487 8.42355 19.173 8.35756 19.0917 8.29723C19.0095 8.2365 18.9257 8.17496 18.8411 8.11262C18.7532 8.04784 18.6585 7.98023 18.5674 7.91424C18.9629 7.58023 19.3058 7.29966 19.5722 7.08063C20.2034 6.57578 20.4249 6.37658 20.107 6.59642C19.9487 6.70614 19.724 6.84946 19.437 7.028C19.2941 7.11748 19.139 7.22112 18.9666 7.33124C18.7957 7.44298 18.6062 7.55958 18.4087 7.69359C18.3852 7.70938 18.3568 7.72881 18.333 7.74501C18.3257 7.74015 18.3188 7.73529 18.3119 7.73003C18.1293 7.59966 17.9402 7.46687 17.7447 7.33124C17.5455 7.20209 17.3358 7.07577 17.1216 6.94501C16.9074 6.81464 16.6864 6.68306 16.4593 6.54986C16.3467 6.48104 16.2265 6.42233 16.1066 6.35999C15.9864 6.29845 15.8645 6.23691 15.7415 6.17416C15.4937 6.05108 15.2496 5.92557 15.0022 5.81221C14.8613 5.75229 14.7232 5.69602 14.584 5.63772C14.9382 5.39926 15.2917 5.16808 15.6415 4.9527C16.7192 4.29035 17.7613 3.72517 18.7293 3.2608C18.8536 3.20007 18.9726 3.1446 19.0941 3.08671C19.5439 3.26485 19.9811 3.44865 20.3977 3.63489C20.5006 3.67983 20.6026 3.72558 20.7034 3.76971C20.8026 3.81667 20.9014 3.86282 20.9985 3.90898C21.1925 4.00129 21.3852 4.0859 21.5653 4.17942C21.7479 4.26889 21.9245 4.35594 22.0941 4.43974C22.2617 4.52719 22.4224 4.611 22.5755 4.69035C23.1876 5.01059 23.6694 5.27739 23.9666 5.43853C24.2653 5.59804 24.3832 5.64501 24.2536 5.55027C24.1236 5.45634 23.9151 5.26363 23.6192 4.99318C23.4682 4.86201 23.2949 4.71181 23.1014 4.54379C22.9062 4.37618 22.6815 4.20209 22.437 4.00776C21.939 3.63367 21.3427 3.20533 20.6176 2.79643C20.4868 2.72153 20.3475 2.64784 20.2087 2.57416C21.4759 2.01424 22.5277 1.62072 23.2419 1.35027C24.2245 0.994403 24.5795 0.849463 24.1018 0.996022C23.8629 1.06971 23.5309 1.16242 23.1091 1.27659C22.8965 1.33003 22.667 1.40412 22.4135 1.4778C22.1593 1.5523 21.884 1.63327 21.5872 1.72072C21.0447 1.89359 20.4277 2.09683 19.752 2.34177C19.2427 2.09157 18.6908 1.85189 18.0848 1.64015C17.9212 1.58347 17.7577 1.53124 17.5933 1.48104C19.1941 1.0778 20.8686 0.861204 22.5945 0.861204C28.1994 0.861204 33.267 3.11303 36.9585 6.76646C33.0577 2.60979 27.5257 -0.000335693 21.373 -0.000335693C9.56453 -0.000335693 -0.000244141 9.57497 -0.000244141 21.3823C-0.000244141 33.1875 9.56453 42.7567 21.373 42.7567C29.0281 42.7567 35.716 38.7292 39.4949 32.6916C36.5678 37.0171 32.0164 40.1499 26.7139 41.2356Z" fill="#76787A"/>
</g>
</g>
</g>
<defs>
<clipPath id="clip0_8718_29226">
<rect width="100" height="42.915" fill="white"/>
</clipPath>
</defs>
</svg>
