<svg width="160" height="160" viewBox="0 0 160 160" xmlns="http://www.w3.org/2000/svg">
  <!-- Transparent background -->

  <g fill="black" shape-rendering="crispEdges" transform="translate(12,36) scale(1.2)">
    <!-- OWN (top row) -->

    <!-- O -->
    <rect x="0" y="0" width="8" height="32"/>
    <rect x="0" y="0" width="32" height="8"/>
    <rect x="24" y="0" width="8" height="32"/>
    <rect x="0" y="24" width="32" height="8"/>

    <!-- W -->
    <rect x="40" y="0" width="8" height="32"/>
    <rect x="56" y="0" width="8" height="32"/>
    <rect x="72" y="0" width="8" height="32"/>
    <rect x="48" y="24" width="8" height="8"/>
    <rect x="64" y="24" width="8" height="8"/>

    <!-- N -->
    <rect x="88" y="0" width="8" height="32"/>
    <rect x="112" y="0" width="8" height="32"/>
    <rect x="96" y="8" width="8" height="8"/>
    <rect x="104" y="16" width="8" height="8"/>

    <!-- SSO (bottom row) -->
    <g transform="translate(0,44)">
      <!-- S -->
      <rect x="0" y="0" width="32" height="8"/>
      <rect x="0" y="8" width="8" height="8"/>
      <rect x="0" y="16" width="32" height="8"/>
      <rect x="24" y="24" width="8" height="8"/>

      <!-- S -->
      <rect x="40" y="0" width="32" height="8"/>
      <rect x="40" y="8" width="8" height="8"/>
      <rect x="40" y="16" width="32" height="8"/>
      <rect x="64" y="24" width="8" height="8"/>

      <!-- O -->
      <rect x="80" y="0" width="8" height="32"/>
      <rect x="80" y="0" width="32" height="8"/>
      <rect x="104" y="0" width="8" height="32"/>
      <rect x="80" y="24" width="32" height="8"/>
    </g>
  </g>
</svg>
