<svg width="822" height="240" viewBox="0 0 822 240" fill="none" xmlns="http://www.w3.org/2000/svg">
<g clip-path="url(#clip0_4415_35761)">
<g clip-path="url(#clip1_4415_35761)">
<path d="M222.525 266C212.874 266 203.329 264.952 193.888 262.855C184.657 260.759 175.951 257.823 167.769 254.05C159.797 250.276 152.874 245.873 147 240.841L160.217 210.022C169.867 217.36 179.832 222.916 190.112 226.69C200.392 230.254 210.986 232.036 221.895 232.036C235.112 232.036 245.392 228.681 252.734 221.972C260.287 215.054 264.063 205.829 264.063 194.298C264.063 182.557 260.497 173.123 253.364 165.994C246.231 158.657 236.476 154.988 224.098 154.988C215.077 154.988 207 156.77 199.867 160.334C192.734 163.688 186.231 168.93 180.357 176.058H153.294V41.1448H289.553V74.48H192.629V144.924H182.245C187.699 137.586 194.832 131.926 203.643 127.942C212.664 123.959 222.63 121.967 233.539 121.967C247.595 121.967 259.762 125.007 270.042 131.087C280.532 136.957 288.609 145.239 294.273 155.931C300.147 166.414 303.084 178.679 303.084 192.726C303.084 207.192 299.833 219.981 293.329 231.092C286.825 241.994 277.49 250.59 265.322 256.88C253.364 262.96 239.098 266 222.525 266Z" fill="#B1DCDE"/>
<path d="M410.899 266C393.486 266 378.696 261.597 366.528 252.792C354.57 243.777 345.444 230.778 339.15 213.796C333.066 196.814 330.024 176.058 330.024 151.528C330.024 126.789 333.066 106.033 339.15 89.2607C345.444 72.2786 354.57 59.4897 366.528 50.8938C378.696 42.2979 393.486 38 410.899 38C428.521 38 443.311 42.2979 455.269 50.8938C467.437 59.4897 476.563 72.1738 482.647 88.9462C488.731 105.719 491.773 126.474 491.773 151.214C491.773 175.743 488.626 196.604 482.332 213.796C476.248 230.778 467.227 243.777 455.269 252.792C443.311 261.597 428.521 266 410.899 266ZM410.899 232.979C425.164 232.979 435.654 226.48 442.367 213.481C449.29 200.273 452.752 179.517 452.752 151.214C452.752 123.12 449.29 102.783 442.367 90.2041C435.654 77.4152 425.164 71.0207 410.899 71.0207C396.843 71.0207 386.353 77.4152 379.43 90.2041C372.507 102.783 369.045 123.225 369.045 151.528C369.045 179.622 372.507 200.273 379.43 213.481C386.353 226.48 396.843 232.979 410.899 232.979Z" fill="#B1DCDE"/>
<path d="M596.755 266C586.685 266 576.825 264.952 567.175 262.855C557.734 260.968 548.923 258.138 540.741 254.364C532.559 250.59 525.426 246.083 519.342 240.841L532.559 210.022C542.419 217.57 552.489 223.126 562.769 226.69C573.049 230.254 583.958 232.036 595.496 232.036C604.727 232.036 612.489 230.778 618.783 228.262C625.077 225.746 629.797 221.972 632.944 216.941C636.301 211.909 637.979 205.829 637.979 198.701C637.979 188.218 634.413 180.461 627.28 175.429C620.357 170.188 610.182 167.567 596.755 167.567H561.196V134.232H592.979C600.951 134.232 607.769 132.974 613.433 130.458C619.098 127.732 623.503 123.959 626.65 119.137C629.797 114.314 631.371 108.444 631.371 101.526C631.371 91.8814 628.119 84.5434 621.615 79.5117C615.322 74.48 606.091 71.9641 593.923 71.9641C583.014 71.9641 572.839 73.851 563.398 77.6248C553.958 81.189 544.937 86.8497 536.335 94.6069L523.119 64.4165C531.93 56.0303 542.944 49.531 556.161 44.9186C569.377 40.3062 583.119 38 597.384 38C612.699 38 625.811 40.411 636.72 45.2331C647.629 49.8455 655.916 56.5545 661.58 65.36C667.455 73.9559 670.392 84.4386 670.392 96.8083C670.392 110.017 666.72 121.443 659.378 131.087C652.035 140.521 641.965 146.811 629.168 149.956V146.182C639.238 147.859 647.839 151.214 654.972 156.246C662.105 161.277 667.559 167.672 671.336 175.429C675.112 183.186 677 192.097 677 202.16C677 215.159 673.748 226.48 667.245 236.124C660.741 245.768 651.51 253.211 639.552 258.452C627.594 263.484 613.329 266 596.755 266Z" fill="#B1DCDE"/>
</g>
<path d="M724.424 122.998L691 156.422L724.424 189.846L757.848 156.422L724.424 122.998Z" fill="#E0F1F2"/>
<path d="M57.6985 98.0007L28 127.699L57.6985 157.398L87.397 127.699L57.6985 98.0007Z" fill="#E0F1F2"/>
<path d="M90 89.0302L126.032 97.7617L134.763 61.7299L98.7315 52.9984L90 89.0302Z" fill="#E0F1F2"/>
<path d="M79.9202 178.894L87.8164 208.363L117.285 200.467L109.389 170.998L79.9202 178.894Z" fill="#E0F1F2"/>
<path d="M784.816 239.452L36.1843 240.003C35.5268 239.996 34.9966 239.037 35 237.859C35.0034 236.69 35.5317 235.744 36.1843 235.738L784.816 235.188C785.473 235.194 786.003 236.153 786 237.331C785.997 238.5 785.468 239.446 784.816 239.452Z" fill="#4BB0B1"/>
</g>
<defs>
<clipPath id="clip0_4415_35761">
<rect width="822" height="240" fill="white"/>
</clipPath>
<clipPath id="clip1_4415_35761">
<rect width="531" height="204" fill="white" transform="translate(146 32)"/>
</clipPath>
</defs>
</svg>
