<svg width="182" height="78" viewBox="0 0 182 78" fill="none" xmlns="http://www.w3.org/2000/svg">
<mask id="mask0_11080_2" style="mask-type:luminance" maskUnits="userSpaceOnUse" x="0" y="0" width="182" height="78">
<path d="M181.877 0H0.12262V78H181.877V0Z" fill="white"/>
</mask>
<g mask="url(#mask0_11080_2)">
<mask id="mask1_11080_2" style="mask-type:luminance" maskUnits="userSpaceOnUse" x="0" y="0" width="182" height="78">
<path fill-rule="evenodd" clip-rule="evenodd" d="M0.12262 0H181.214V77.7123H0.12262V0Z" fill="white"/>
</mask>
<g mask="url(#mask1_11080_2)">
<path d="M106.084 66.2941V65.1109L113.749 61.5082V62.868L107.55 65.7113L113.731 68.5546L113.749 69.8968L106.084 66.2941ZM122.614 66.9299C122.614 65.9174 122.349 65.1403 121.82 64.5987C121.301 64.0454 120.56 63.7687 119.594 63.7687C119.324 63.7687 119.047 63.7863 118.764 63.8217C118.494 63.857 118.246 63.8982 118.023 63.9453C117.811 63.9924 117.516 64.0748 117.14 64.1925L117.122 64.7577L117.051 66.2411C117.039 66.3942 117.034 66.5472 117.034 66.7003C117.034 66.8416 117.034 66.9829 117.034 67.1242C117.034 67.654 117.057 68.0955 117.104 68.4487C117.163 68.7901 117.257 69.1021 117.387 69.3847C117.587 69.7968 117.887 70.1264 118.287 70.3737C118.688 70.6091 119.153 70.7269 119.683 70.7269C120.118 70.7269 120.519 70.6386 120.884 70.462C121.249 70.2736 121.555 70.0146 121.802 69.6849C122.061 69.3552 122.261 68.9608 122.402 68.5017C122.544 68.0307 122.614 67.5068 122.614 66.9299ZM124.115 66.9122C124.115 67.654 124.015 68.3309 123.815 68.9432C123.627 69.5436 123.35 70.0558 122.985 70.4796C122.632 70.9035 122.202 71.2331 121.696 71.4686C121.19 71.7041 120.63 71.8218 120.018 71.8218C119.241 71.8218 118.599 71.6629 118.093 71.345C117.599 71.0271 117.198 70.5208 116.892 69.8262L116.857 71.6275H116.645C116.551 71.6158 116.457 71.6099 116.362 71.6099C116.28 71.6099 116.209 71.6099 116.151 71.6099C116.103 71.6099 116.039 71.6158 115.956 71.6275C115.874 71.6275 115.768 71.6275 115.638 71.6275H115.374C115.397 71.4745 115.409 71.3391 115.409 71.2214C115.421 71.1036 115.432 71.0094 115.444 70.9388C115.468 70.6445 115.491 70.1971 115.515 69.5966C115.55 68.9962 115.585 68.2368 115.621 67.3184L115.744 63.9276L115.833 60.5545L115.85 59.8481L116.08 59.8657H116.68H117.228L117.44 59.8481C117.416 60.0953 117.393 60.3131 117.369 60.5015C117.357 60.6899 117.34 60.8842 117.316 61.0843C117.304 61.2845 117.293 61.5023 117.281 61.7377C117.269 61.9732 117.257 62.2617 117.246 62.6031L117.228 63.027C117.393 63.0034 117.528 62.9799 117.634 62.9563C117.752 62.9328 117.846 62.9092 117.917 62.8857C118.27 62.8268 118.599 62.7797 118.906 62.7444C119.212 62.7091 119.53 62.6914 119.859 62.6914C121.249 62.6914 122.302 63.0505 123.02 63.7687C123.75 64.4751 124.115 65.5229 124.115 66.9122ZM127.856 60.7311C127.832 61.1785 127.809 61.6023 127.785 62.0027C127.762 62.3912 127.738 62.8327 127.714 63.3272C127.691 63.8099 127.661 64.3809 127.626 65.0402C127.603 65.6878 127.573 66.4884 127.538 67.442C127.514 68.1956 127.491 68.8431 127.467 69.3847C127.455 69.9263 127.444 70.3678 127.432 70.7092L127.414 71.6275H127.202C127.096 71.6275 126.996 71.6275 126.902 71.6275C126.82 71.6158 126.743 71.6099 126.672 71.6099C126.637 71.6099 126.572 71.6158 126.478 71.6275C126.384 71.6275 126.255 71.6275 126.09 71.6275H125.842L125.895 70.6739C125.919 70.2736 125.943 69.8085 125.966 69.2787C126.001 68.7371 126.037 68.119 126.072 67.4244C126.107 66.6709 126.137 65.9821 126.16 65.3581C126.196 64.7341 126.219 64.1572 126.231 63.6274C126.255 63.0976 126.272 62.5972 126.284 62.1263C126.296 61.6553 126.307 61.1844 126.319 60.7134L126.337 59.8481L126.602 59.8657H127.132H127.679L127.909 59.8481L127.856 60.7311ZM136.998 67.0005C136.998 65.9527 136.751 65.158 136.256 64.6164C135.773 64.063 135.061 63.7863 134.119 63.7863C133.154 63.7863 132.4 64.116 131.859 64.7753C131.317 65.4229 131.046 66.3353 131.046 67.5127C131.046 68.5134 131.299 69.3023 131.806 69.8792C132.324 70.4561 133.03 70.7445 133.925 70.7445C134.89 70.7445 135.644 70.4149 136.186 69.7556C136.727 69.0962 136.998 68.1779 136.998 67.0005ZM138.499 67.0182C138.499 67.7835 138.358 68.5076 138.075 69.1904C137.369 70.9447 135.956 71.8218 133.837 71.8218C133.189 71.8218 132.6 71.7217 132.071 71.5216C131.541 71.3097 131.088 71.0153 130.711 70.6386C130.334 70.25 130.04 69.7909 129.828 69.2611C129.628 68.7313 129.528 68.1367 129.528 67.4774C129.528 66.7356 129.634 66.0704 129.845 65.4817C130.069 64.8931 130.381 64.3927 130.781 63.9806C131.182 63.5685 131.67 63.2506 132.247 63.027C132.824 62.8033 133.472 62.6914 134.19 62.6914C135.544 62.6914 136.598 63.074 137.351 63.8393C138.116 64.6046 138.499 65.6642 138.499 67.0182ZM146.939 64.2279C146.409 64.063 145.98 63.9512 145.65 63.8923C145.32 63.8217 144.991 63.7863 144.661 63.7863C143.66 63.7863 142.877 64.116 142.312 64.7753C141.747 65.4229 141.465 66.3353 141.465 67.5127C141.465 68.5488 141.724 69.3435 142.242 69.8968C142.76 70.4502 143.519 70.7269 144.52 70.7269C144.826 70.7269 145.144 70.6974 145.473 70.6386C145.803 70.5679 146.192 70.462 146.639 70.3207L146.604 70.5326L146.515 70.9565C146.492 71.0506 146.474 71.139 146.462 71.2214C146.462 71.3038 146.451 71.4215 146.427 71.5746C146.333 71.5981 146.245 71.6158 146.162 71.6275C146.092 71.6393 146.033 71.6511 145.986 71.6629C145.715 71.71 145.42 71.7453 145.103 71.7688C144.785 71.8042 144.49 71.8218 144.22 71.8218C142.842 71.8218 141.782 71.4568 141.041 70.7269C140.311 69.9851 139.946 68.9196 139.946 67.5303C139.946 66.8239 140.046 66.1646 140.246 65.5524C140.446 64.9402 140.735 64.4103 141.111 63.963C141.818 63.1153 142.936 62.6914 144.467 62.6914C144.655 62.6914 144.838 62.6973 145.014 62.7091C145.191 62.7208 145.373 62.7385 145.562 62.762C145.785 62.7856 145.98 62.815 146.145 62.8503C146.309 62.8857 146.539 62.9445 146.833 63.027L146.851 63.2212L146.886 63.6274L146.904 64.0159L146.939 64.2279ZM150.573 59.8481C150.538 60.2366 150.508 60.5722 150.485 60.8547C150.473 61.1373 150.455 61.4257 150.432 61.7201C150.42 62.0026 150.402 62.3205 150.379 62.6737C150.367 63.0152 150.355 63.4449 150.343 63.963L150.22 67.3891C150.196 67.9542 150.178 68.5076 150.167 69.0491C150.155 69.5907 150.143 70.1441 150.131 70.7092L150.114 71.6275H149.884C149.778 71.6275 149.678 71.6275 149.584 71.6275C149.501 71.6158 149.425 71.6099 149.354 71.6099C149.284 71.6099 149.201 71.6158 149.107 71.6275C149.025 71.6275 148.93 71.6275 148.824 71.6275H148.577C148.613 71.2272 148.636 70.8799 148.648 70.5856C148.671 70.2795 148.689 69.9792 148.701 69.6849C148.724 69.3788 148.742 69.0433 148.754 68.6783C148.777 68.3133 148.801 67.86 148.824 67.3184C148.883 65.8114 148.93 64.5163 148.966 63.4331C149.001 62.3382 149.019 61.4375 149.019 60.7311V59.8481L149.284 59.8657H149.813H150.343L150.573 59.8481ZM155.712 71.6275C155.606 71.6275 155.5 71.6275 155.394 71.6275C155.288 71.6158 155.188 71.6099 155.094 71.6099C155 71.6099 154.9 71.6158 154.794 71.6275C154.688 71.6275 154.576 71.6275 154.458 71.6275H154.211L153.752 71.0094C153.54 70.7151 153.334 70.4443 153.134 70.1971C152.933 69.938 152.745 69.6967 152.568 69.473L150.82 67.3537L150.361 66.7533L150.873 66.2058L152.233 64.7577C152.386 64.5928 152.521 64.4457 152.639 64.3162C152.769 64.1749 152.892 64.0336 153.01 63.8923C153.128 63.751 153.251 63.6039 153.381 63.4508C153.522 63.286 153.681 63.0976 153.858 62.8857H154.123C154.252 62.8857 154.364 62.8916 154.458 62.9033C154.564 62.9033 154.664 62.9033 154.758 62.9033C154.853 62.9033 154.947 62.9033 155.041 62.9033C155.147 62.8916 155.265 62.8857 155.394 62.8857H155.641L155.129 63.4155C154.894 63.651 154.664 63.8864 154.44 64.1219C154.229 64.3574 154.011 64.5869 153.787 64.8106C153.504 65.105 153.275 65.3405 153.098 65.5171C152.922 65.6937 152.769 65.8467 152.639 65.9762C152.521 66.1057 152.41 66.2294 152.304 66.3471C152.209 66.4648 152.086 66.6061 151.933 66.7709C152.086 66.9829 152.209 67.1418 152.304 67.2478C152.433 67.4126 152.61 67.6363 152.833 67.9189C153.057 68.2014 153.304 68.5134 153.575 68.8549C153.858 69.1845 154.146 69.5319 154.44 69.8968C154.747 70.25 155.041 70.5856 155.323 70.9035L155.959 71.6275H155.712ZM162.326 64.1572C161.949 64.0159 161.619 63.9159 161.337 63.857C161.066 63.7981 160.772 63.7687 160.454 63.7687C159.877 63.7687 159.43 63.8688 159.112 64.0689C158.794 64.2573 158.635 64.534 158.635 64.8989C158.635 65.2639 158.841 65.6348 159.253 66.0116C159.3 66.0586 159.347 66.1057 159.394 66.1528C159.441 66.1882 159.5 66.2353 159.571 66.2941C159.641 66.353 159.73 66.4295 159.836 66.5237C159.953 66.6061 160.101 66.718 160.277 66.8593C160.748 67.236 161.084 67.5186 161.284 67.707C161.931 68.3074 162.255 68.9432 162.255 69.6143C162.255 70.2736 161.978 70.8093 161.425 71.2214C160.872 71.6217 160.142 71.8218 159.235 71.8218C159.106 71.8218 158.947 71.8159 158.758 71.8042C158.57 71.7924 158.382 71.7747 158.193 71.7512C158.028 71.7394 157.887 71.7217 157.769 71.6982C157.652 71.6864 157.534 71.6688 157.416 71.6452C157.31 71.6217 157.198 71.5981 157.081 71.5746C156.963 71.5392 156.822 71.5039 156.657 71.4686L156.639 71.2567L156.604 70.7975L156.551 70.356L156.533 70.1794C156.875 70.3207 157.14 70.4208 157.328 70.4796C157.528 70.5385 157.752 70.5974 157.999 70.6562C158.329 70.7269 158.658 70.7622 158.988 70.7622C159.553 70.7622 159.995 70.6503 160.313 70.4266C160.63 70.2029 160.789 69.8909 160.789 69.4906C160.789 69.161 160.672 68.8784 160.436 68.6429C160.342 68.5488 160.236 68.4487 160.118 68.3427C160.001 68.2368 159.842 68.1014 159.641 67.9365L159.059 67.4597C158.788 67.2478 158.57 67.0712 158.405 66.9299C158.24 66.7768 158.105 66.6473 157.999 66.5414C157.434 65.9762 157.151 65.3934 157.151 64.793C157.151 64.1454 157.416 63.6333 157.946 63.2565C158.476 62.8798 159.2 62.6914 160.118 62.6914C160.436 62.6914 160.76 62.7091 161.09 62.7444C161.419 62.7797 161.808 62.8386 162.255 62.921V63.0976C162.255 63.2742 162.255 63.4331 162.255 63.5744C162.267 63.7039 162.285 63.8393 162.308 63.9806L162.326 64.1572ZM169.558 61.3316L167.58 65.3758L165.231 70.2147C164.736 71.2508 164.336 72.0749 164.03 72.6872C163.736 73.2994 163.541 73.7115 163.447 73.9234C163.271 74.2766 163.023 74.8064 162.706 75.5128C162.552 75.5128 162.441 75.5069 162.37 75.4952C162.299 75.4952 162.223 75.4952 162.14 75.4952C162.082 75.4952 162.023 75.4952 161.964 75.4952C161.893 75.5069 161.817 75.5128 161.734 75.5128H161.522L162.335 73.8881L164.154 70.2147L166.52 65.3581C167.038 64.2985 167.456 63.4331 167.774 62.762C168.104 62.091 168.339 61.6023 168.48 61.2962C168.563 61.1314 168.657 60.9313 168.763 60.6958C168.869 60.4485 168.998 60.166 169.152 59.8481L169.328 59.8657H169.717H170.105L170.264 59.8481L169.558 61.3316ZM171.096 69.8968V68.537L177.277 65.7113L171.096 62.868V61.5082L178.743 65.1109V66.2941L171.096 69.8968Z" fill="#76787A"/>
<path fill-rule="evenodd" clip-rule="evenodd" d="M29.7197 53.4947C29.7094 52.0612 29.6557 50.8155 29.5563 49.7595C31.1296 50.513 32.549 51.045 33.8132 51.3548C35.0781 51.6646 36.2989 51.8199 37.477 51.8199C38.6095 51.8199 39.6691 51.6271 40.6551 51.2422C41.6434 50.8574 42.3947 50.3136 42.9098 49.6116C43.4242 48.9103 43.6979 48.1068 43.7288 47.1995C43.7479 46.6726 43.6817 46.1774 43.5323 45.7175C43.3815 45.2561 43.1313 44.7896 42.7773 44.3128C42.4241 43.8374 41.8045 43.1957 40.9208 42.3878C40.0356 41.5813 38.7795 40.4672 37.1525 39.0485L35.527 37.6224C34.9133 37.0786 34.3578 36.5385 33.8625 36.0028C33.368 35.4678 32.9552 34.9542 32.6263 34.4634C32.2959 33.9733 32.0442 33.5274 31.8691 33.1271C31.694 32.7275 31.5623 32.2816 31.474 31.7915C31.3864 31.3007 31.3503 30.7989 31.368 30.286C31.4136 28.9872 31.8102 27.7723 32.5601 26.6406C33.3084 25.5081 34.4085 24.6023 35.8589 23.9231C37.3085 23.2439 39.2041 22.904 41.5426 22.904C43.2203 22.904 45.2726 23.1299 47.7016 23.5839C47.698 24.5559 47.762 25.7488 47.8937 27.1616C45.6126 26.3455 43.5286 25.9386 41.6412 25.9386C40.3431 25.9386 39.2489 26.152 38.3578 26.5803C37.4682 27.0085 36.7846 27.5567 36.3085 28.2249C35.8324 28.893 35.5815 29.5803 35.5572 30.286C35.5425 30.7084 35.5888 31.1197 35.6948 31.52C35.8022 31.9203 35.97 32.3008 36.1988 32.6635C36.527 33.1919 36.9391 33.7239 37.4336 34.2596C37.9281 34.796 38.6154 35.4495 39.4932 36.2184C39.7133 36.3994 40.5529 37.1081 42.0121 38.3472C43.4705 39.5842 44.5323 40.5423 45.1946 41.2222C45.8591 41.9014 46.3837 42.5327 46.7715 43.1133C47.1578 43.6946 47.4529 44.3209 47.6553 44.9927C47.8584 45.6638 47.9474 46.3923 47.9194 47.1774C47.8775 48.3857 47.578 49.499 47.0217 50.5167C46.4654 51.5373 45.6884 52.371 44.6928 53.0193C43.6957 53.6683 42.5963 54.1282 41.3947 54.3998C40.1923 54.6728 38.9428 54.8082 37.6448 54.8082C36.6028 54.8082 35.53 54.7294 34.4262 54.5705C33.3224 54.4123 31.7528 54.0539 29.7197 53.4947Z" fill="#FEFEFE"/>
<path fill-rule="evenodd" clip-rule="evenodd" d="M57.6288 54.3103L58.4964 45.7965L59.6899 29.8786L59.879 26.4135C59.9246 25.5386 59.9681 24.5342 60.0063 23.4024C63.4155 23.4179 66.9093 23.4245 70.4855 23.4245L77.7069 23.4024H80.0152C79.8725 24.4517 79.768 25.5077 79.7003 26.5725L77.69 26.4591C77.1925 26.4282 76.336 26.4062 75.1211 26.3914C73.9077 26.3767 72.7027 26.3679 71.5113 26.3679C67.9483 26.3679 65.4648 26.3914 64.0594 26.4363L63.2786 37.0333C65.6017 37.0789 67.6849 37.101 69.5267 37.101C71.5349 37.101 74.1704 37.0708 77.4339 37.0105C77.2919 38.0672 77.1866 39.1091 77.1211 40.1349L69.331 40.0679C67.8063 40.0679 65.6834 40.0988 62.963 40.1592L62.1616 51.3448L64.5171 51.3669C68.7924 51.3669 71.6276 51.3514 73.0264 51.3213C74.4243 51.2911 76.0615 51.2241 77.9379 51.1174C77.793 52.2345 77.6885 53.2985 77.6223 54.3103C73.9857 54.2794 70.9138 54.2647 68.4082 54.2647L57.6288 54.3103Z" fill="#FEFEFE"/>
<path fill-rule="evenodd" clip-rule="evenodd" d="M88.3973 54.3103C88.8785 50.4154 89.3414 45.6567 89.7858 40.0334C90.231 34.4107 90.5791 28.8668 90.8307 23.4024C91.8727 23.4179 92.6645 23.4245 93.209 23.4245L95.3172 23.4024L94.0928 37.7471L93.078 51.2757L97.3783 51.2977C100.579 51.2977 102.831 51.2882 104.139 51.2646C105.444 51.2425 106.71 51.1932 107.936 51.1174C107.811 52.0748 107.699 53.1388 107.597 54.3103C104.172 54.2794 101.145 54.2647 98.5196 54.2647L88.3973 54.3103Z" fill="#FEFEFE"/>
<path fill-rule="evenodd" clip-rule="evenodd" d="M115.972 54.3103L116.492 49.102L117.344 38.257L118.034 27.5681C118.07 26.95 118.101 26.3311 118.122 25.7123L118.179 23.4024L120.513 23.4245L122.712 23.4024C122.308 27.1759 121.967 31.1156 121.689 35.2224C121.219 41.8031 120.822 48.1667 120.503 54.3103L118.375 54.2647C118.103 54.2647 117.303 54.2794 115.972 54.3103Z" fill="#FEFEFE"/>
<path fill-rule="evenodd" clip-rule="evenodd" d="M130.917 53.4947C130.907 52.0612 130.852 50.8155 130.753 49.7595C132.327 50.513 133.745 51.045 135.011 51.3548C136.276 51.6646 137.496 51.8199 138.673 51.8199C139.806 51.8199 140.866 51.6271 141.852 51.2422C142.84 50.8574 143.592 50.3136 144.106 49.6116C144.621 48.9103 144.894 48.1068 144.925 47.1995C144.945 46.6726 144.878 46.1774 144.729 45.7175C144.579 45.2561 144.328 44.7896 143.974 44.3128C143.621 43.8374 143.002 43.1957 142.117 42.3878C141.232 41.5813 139.976 40.4672 138.35 39.0485L136.725 37.6224C136.11 37.0786 135.555 36.5385 135.06 36.0028C134.566 35.4678 134.152 34.9542 133.823 34.4634C133.492 33.9733 133.241 33.5274 133.067 33.1271C132.89 32.7275 132.759 32.2816 132.672 31.7915C132.583 31.3007 132.547 30.7989 132.565 30.286C132.61 28.9872 133.007 27.7723 133.756 26.6406C134.506 25.5081 135.605 24.6023 137.055 23.9231C138.506 23.2439 140.401 22.904 142.74 22.904C144.417 22.904 146.469 23.1299 148.898 23.5839C148.895 24.5559 148.958 25.7488 149.09 27.1616C146.81 26.3455 144.726 25.9386 142.838 25.9386C141.541 25.9386 140.445 26.152 139.556 26.5803C138.665 27.0085 137.982 27.5567 137.505 28.2249C137.03 28.893 136.778 29.5803 136.754 30.286C136.739 30.7084 136.785 31.1197 136.891 31.52C136.999 31.9203 137.167 32.3008 137.396 32.6635C137.723 33.1919 138.136 33.7239 138.63 34.2596C139.125 34.796 139.812 35.4495 140.691 36.2184C140.911 36.3994 141.751 37.1081 143.209 38.3472C144.667 39.5842 145.729 40.5423 146.391 41.2222C147.055 41.9014 147.58 42.5327 147.968 43.1133C148.354 43.6946 148.649 44.3209 148.853 44.9927C149.056 45.6638 149.144 46.3923 149.116 47.1774C149.075 48.3857 148.776 49.499 148.218 50.5167C147.662 51.5373 146.886 52.371 145.89 53.0193C144.892 53.6683 143.793 54.1282 142.591 54.3998C141.389 54.6728 140.139 54.8082 138.842 54.8082C137.8 54.8082 136.727 54.7294 135.623 54.5705C134.519 54.4123 132.951 54.0539 130.917 53.4947Z" fill="#FEFEFE"/>
<path fill-rule="evenodd" clip-rule="evenodd" d="M158.826 54.3103L159.693 45.7965L160.887 29.8786L161.076 26.4135C161.121 25.5386 161.165 24.5342 161.204 23.4024C164.614 23.4179 168.106 23.4245 171.684 23.4245L178.904 23.4024H181.214C181.071 24.4517 180.966 25.5077 180.899 26.5725L178.887 26.4591C178.389 26.4282 177.534 26.4062 176.318 26.3914C175.104 26.3767 173.901 26.3679 172.708 26.3679C169.145 26.3679 166.661 26.3914 165.256 26.4363L164.476 37.0333C166.798 37.0789 168.882 37.101 170.725 37.101C172.732 37.101 175.368 37.0708 178.632 37.0105C178.489 38.0672 178.385 39.1091 178.317 40.1349L170.528 40.0679C169.003 40.0679 166.88 40.0988 164.161 40.1592L163.359 51.3448L165.714 51.3669C169.989 51.3669 172.826 51.3514 174.224 51.3213C175.621 51.2911 177.258 51.2241 179.136 51.1174C178.99 52.2345 178.885 53.2985 178.819 54.3103C175.183 54.2794 172.112 54.2647 169.606 54.2647L158.826 54.3103Z" fill="#FEFEFE"/>
<path fill-rule="evenodd" clip-rule="evenodd" d="M29.7197 53.4947C29.7094 52.0612 29.6557 50.8155 29.5563 49.7595C31.1296 50.513 32.549 51.045 33.8132 51.3548C35.0781 51.6646 36.2989 51.8199 37.477 51.8199C38.6095 51.8199 39.6691 51.6271 40.6551 51.2422C41.6434 50.8574 42.3947 50.3136 42.9098 49.6116C43.4242 48.9103 43.6979 48.1068 43.7288 47.1995C43.7479 46.6726 43.6817 46.1774 43.5323 45.7175C43.3815 45.2561 43.1313 44.7896 42.7773 44.3128C42.4241 43.8374 41.8045 43.1957 40.9208 42.3878C40.0356 41.5813 38.7795 40.4672 37.1525 39.0485L35.527 37.6224C34.9133 37.0786 34.3578 36.5385 33.8625 36.0028C33.368 35.4678 32.9552 34.9542 32.6263 34.4634C32.2959 33.9733 32.0442 33.5274 31.8691 33.1271C31.694 32.7275 31.5623 32.2816 31.474 31.7915C31.3864 31.3007 31.3503 30.7989 31.368 30.286C31.4136 28.9872 31.8102 27.7723 32.5601 26.6406C33.3084 25.5081 34.4085 24.6023 35.8589 23.9231C37.3085 23.2439 39.2041 22.904 41.5426 22.904C43.2203 22.904 45.2726 23.1299 47.7016 23.5839C47.698 24.5559 47.762 25.7488 47.8937 27.1616C45.6126 26.3455 43.5286 25.9386 41.6412 25.9386C40.3431 25.9386 39.2489 26.152 38.3578 26.5803C37.4682 27.0085 36.7846 27.5567 36.3085 28.2249C35.8324 28.893 35.5815 29.5803 35.5572 30.286C35.5425 30.7084 35.5888 31.1197 35.6948 31.52C35.8022 31.9203 35.97 32.3008 36.1988 32.6635C36.527 33.1919 36.9391 33.7239 37.4336 34.2596C37.9281 34.796 38.6154 35.4495 39.4932 36.2184C39.7133 36.3994 40.5529 37.1081 42.0121 38.3472C43.4705 39.5842 44.5323 40.5423 45.1946 41.2222C45.8591 41.9014 46.3837 42.5327 46.7715 43.1133C47.1578 43.6946 47.4529 44.3209 47.6553 44.9927C47.8584 45.6638 47.9474 46.3923 47.9194 47.1774C47.8775 48.3857 47.578 49.499 47.0217 50.5167C46.4654 51.5373 45.6884 52.371 44.6928 53.0193C43.6957 53.6683 42.5963 54.1282 41.3947 54.3998C40.1923 54.6728 38.9428 54.8082 37.6448 54.8082C36.6028 54.8082 35.53 54.7294 34.4262 54.5705C33.3224 54.4123 31.7528 54.0539 29.7197 53.4947Z" fill="#0066B2"/>
<path fill-rule="evenodd" clip-rule="evenodd" d="M57.6288 54.3103L58.4964 45.7965L59.6899 29.8786L59.879 26.4135C59.9246 25.5386 59.9681 24.5342 60.0063 23.4024C63.4155 23.4179 66.9093 23.4245 70.4855 23.4245L77.7069 23.4024H80.0152C79.8725 24.4517 79.768 25.5077 79.7003 26.5725L77.69 26.4591C77.1925 26.4282 76.336 26.4062 75.1211 26.3914C73.9077 26.3767 72.7027 26.3679 71.5113 26.3679C67.9483 26.3679 65.4648 26.3914 64.0594 26.4363L63.2786 37.0333C65.6017 37.0789 67.6849 37.101 69.5267 37.101C71.5349 37.101 74.1704 37.0708 77.4339 37.0105C77.2919 38.0672 77.1866 39.1091 77.1211 40.1349L69.331 40.0679C67.8063 40.0679 65.6834 40.0988 62.963 40.1592L62.1616 51.3448L64.5171 51.3669C68.7924 51.3669 71.6276 51.3514 73.0264 51.3213C74.4243 51.2911 76.0615 51.2241 77.9379 51.1174C77.793 52.2345 77.6885 53.2985 77.6223 54.3103C73.9857 54.2794 70.9138 54.2647 68.4082 54.2647L57.6288 54.3103Z" fill="#0066B2"/>
<path fill-rule="evenodd" clip-rule="evenodd" d="M88.3973 54.3103C88.8785 50.4154 89.3414 45.6567 89.7858 40.0334C90.231 34.4107 90.5791 28.8668 90.8307 23.4024C91.8727 23.4179 92.6645 23.4245 93.209 23.4245L95.3172 23.4024L94.0928 37.7471L93.078 51.2757L97.3783 51.2977C100.579 51.2977 102.831 51.2882 104.139 51.2646C105.444 51.2425 106.71 51.1932 107.936 51.1174C107.811 52.0748 107.699 53.1388 107.597 54.3103C104.172 54.2794 101.145 54.2647 98.5196 54.2647L88.3973 54.3103Z" fill="#0066B2"/>
<path fill-rule="evenodd" clip-rule="evenodd" d="M115.972 54.3103L116.492 49.102L117.344 38.257L118.034 27.5681C118.07 26.95 118.101 26.3311 118.122 25.7123L118.179 23.4024L120.513 23.4245L122.712 23.4024C122.308 27.1759 121.967 31.1156 121.689 35.2224C121.219 41.8031 120.822 48.1667 120.503 54.3103L118.375 54.2647C118.103 54.2647 117.303 54.2794 115.972 54.3103Z" fill="#0066B2"/>
<path fill-rule="evenodd" clip-rule="evenodd" d="M130.917 53.4947C130.907 52.0612 130.852 50.8155 130.753 49.7595C132.327 50.513 133.745 51.045 135.011 51.3548C136.276 51.6646 137.496 51.8199 138.673 51.8199C139.806 51.8199 140.866 51.6271 141.852 51.2422C142.84 50.8574 143.592 50.3136 144.106 49.6116C144.621 48.9103 144.894 48.1068 144.925 47.1995C144.945 46.6726 144.878 46.1774 144.729 45.7175C144.579 45.2561 144.328 44.7896 143.974 44.3128C143.621 43.8374 143.002 43.1957 142.117 42.3878C141.232 41.5813 139.976 40.4672 138.35 39.0485L136.725 37.6224C136.11 37.0786 135.555 36.5385 135.06 36.0028C134.566 35.4678 134.152 34.9542 133.823 34.4634C133.492 33.9733 133.241 33.5274 133.067 33.1271C132.89 32.7275 132.759 32.2816 132.672 31.7915C132.583 31.3007 132.547 30.7989 132.565 30.286C132.61 28.9872 133.007 27.7723 133.756 26.6406C134.506 25.5081 135.605 24.6023 137.055 23.9231C138.506 23.2439 140.401 22.904 142.74 22.904C144.417 22.904 146.469 23.1299 148.898 23.5839C148.895 24.5559 148.958 25.7488 149.09 27.1616C146.81 26.3455 144.726 25.9386 142.838 25.9386C141.541 25.9386 140.445 26.152 139.556 26.5803C138.665 27.0085 137.982 27.5567 137.505 28.2249C137.03 28.893 136.778 29.5803 136.754 30.286C136.739 30.7084 136.785 31.1197 136.891 31.52C136.999 31.9203 137.167 32.3008 137.396 32.6635C137.723 33.1919 138.136 33.7239 138.63 34.2596C139.125 34.796 139.812 35.4495 140.691 36.2184C140.911 36.3994 141.751 37.1081 143.209 38.3472C144.667 39.5842 145.729 40.5423 146.391 41.2222C147.055 41.9014 147.58 42.5327 147.968 43.1133C148.354 43.6946 148.649 44.3209 148.853 44.9927C149.056 45.6638 149.144 46.3923 149.116 47.1774C149.075 48.3857 148.776 49.499 148.218 50.5167C147.662 51.5373 146.886 52.371 145.89 53.0193C144.892 53.6683 143.793 54.1282 142.591 54.3998C141.389 54.6728 140.139 54.8082 138.842 54.8082C137.8 54.8082 136.727 54.7294 135.623 54.5705C134.519 54.4123 132.951 54.0539 130.917 53.4947Z" fill="#0066B2"/>
<path fill-rule="evenodd" clip-rule="evenodd" d="M158.826 54.3103L159.693 45.7965L160.887 29.8786L161.076 26.4135C161.121 25.5386 161.165 24.5342 161.204 23.4024C164.614 23.4179 168.106 23.4245 171.684 23.4245L178.904 23.4024H181.214C181.071 24.4517 180.966 25.5077 180.899 26.5725L178.887 26.4591C178.389 26.4282 177.534 26.4062 176.318 26.3914C175.104 26.3767 173.901 26.3679 172.708 26.3679C169.145 26.3679 166.661 26.3914 165.256 26.4363L164.476 37.0333C166.798 37.0789 168.882 37.101 170.725 37.101C172.732 37.101 175.368 37.0708 178.632 37.0105C178.489 38.0672 178.385 39.1091 178.317 40.1349L170.528 40.0679C169.003 40.0679 166.88 40.0988 164.161 40.1592L163.359 51.3448L165.714 51.3669C169.989 51.3669 172.826 51.3514 174.224 51.3213C175.621 51.2911 177.258 51.2241 179.136 51.1174C178.99 52.2345 178.885 53.2985 178.819 54.3103C175.183 54.2794 172.112 54.2647 169.606 54.2647L158.826 54.3103Z" fill="#0066B2"/>
<path fill-rule="evenodd" clip-rule="evenodd" d="M41.1893 75.7145C38.7625 75.7145 36.3916 75.4738 34.095 75.0279C34.0773 74.866 34.0634 74.7144 34.0398 74.5386C34.0199 74.3885 33.9868 74.2163 33.9611 74.0566C34.3871 74.0581 34.8088 74.0684 35.2451 74.0529C36.6867 73.9985 38.1216 73.8586 39.5101 73.6143C40.8979 73.3731 42.2408 73.0435 43.5014 72.6432C44.5757 72.3032 45.5742 71.9044 46.5139 71.4857C46.8311 72.2679 47.1195 73.0368 47.3594 73.7784C47.5081 74.2383 47.6376 74.685 47.7568 75.1243C45.6243 75.5047 43.4322 75.7145 41.1893 75.7145ZM29.2075 73.7225C30.5372 73.9109 31.9537 74.0286 33.4327 74.0573C33.4519 74.1213 33.4747 74.189 33.4931 74.2516C33.5652 74.4981 33.627 74.7292 33.6851 74.9536C32.1546 74.6386 30.6623 74.2199 29.2075 73.7225ZM23.4708 71.2112C22.8946 70.897 22.3288 70.5651 21.7717 70.2215C21.7673 70.2031 21.7614 70.184 21.757 70.1656C23.0514 70.4099 24.4782 70.6005 26.0426 70.691C27.8866 70.7859 29.9058 70.7278 32.0287 70.4731C32.1597 70.7454 32.2826 71.014 32.3989 71.2782C32.5453 71.6086 32.6763 71.9287 32.7999 72.2436C30.8867 72.2105 29.0221 72.0699 27.2788 71.8418C25.9278 71.6682 24.6555 71.4489 23.4708 71.2112ZM20.7276 67.3693C21.4914 67.3649 22.2905 67.3311 23.1522 67.2604C23.6967 67.1986 24.264 67.1501 24.841 67.0529C25.1309 67.008 25.4252 66.9654 25.7218 66.9138C26.0183 66.8557 26.32 66.7961 26.6239 66.7358C26.7762 66.7056 26.9293 66.6747 27.0838 66.6423C27.2369 66.6063 27.3907 66.5687 27.5459 66.5319C27.8557 66.4554 28.1699 66.3781 28.4871 66.3001C28.7991 66.2141 29.1133 66.1199 29.4319 66.0279C30.0272 66.8984 30.5637 67.7579 31.0405 68.596C30.5423 68.6608 30.0441 68.7262 29.5526 68.7697C28.9058 68.844 28.2634 68.8741 27.6335 68.9227C27.3178 68.9441 27.0058 68.9485 26.696 68.9625C26.3855 68.9764 26.0787 68.9912 25.7747 68.9889C25.4708 68.9926 25.1699 68.9963 24.8726 69C24.5768 68.9948 24.2824 68.9897 23.994 68.9845C23.849 68.9823 23.7041 68.9823 23.562 68.9764C23.42 68.9705 23.278 68.9632 23.1375 68.9566C22.8564 68.9418 22.579 68.9367 22.306 68.9161C21.9748 68.8955 21.6643 68.8646 21.3471 68.8374C21.1727 68.3591 20.9748 67.8719 20.7276 67.3693ZM17.7805 63.1176C18.6105 62.5753 19.5524 61.9483 20.5973 61.2331C21.534 60.59 22.5547 59.8747 23.6393 59.0925C25.2567 60.7452 26.763 62.4443 28.064 64.1426C28.0677 64.1471 28.0706 64.1522 28.0743 64.1566C27.9448 64.2037 27.8153 64.2501 27.6843 64.2905C27.3723 64.3921 27.0625 64.4936 26.7556 64.593L26.5253 64.6688L26.2957 64.735C26.1419 64.7806 25.9896 64.8248 25.838 64.8697C25.2332 65.0573 24.6327 65.2008 24.0507 65.3568C23.7578 65.4252 23.4686 65.4922 23.1838 65.5584C23.0418 65.5901 22.9005 65.6261 22.7585 65.6555C22.618 65.6835 22.4774 65.7107 22.3391 65.738C21.5311 65.9072 20.7717 66.0242 20.0403 66.1228C19.4361 65.1235 18.6834 64.1095 17.7805 63.1176ZM19.4067 68.6313C18.7783 68.1736 18.1594 67.7019 17.5612 67.2067C17.9998 67.2604 18.4803 67.3002 18.9821 67.3303C18.9968 67.3502 19.013 67.3701 19.0277 67.3899C19.3339 67.8226 19.6061 68.2546 19.8607 68.6843C19.7106 68.6666 19.5524 68.6505 19.4067 68.6313ZM15.0159 64.8939C15.3551 64.6776 15.7687 64.4156 16.2462 64.1103C16.9556 64.8284 17.6237 65.5709 18.2249 66.3237C18.1035 66.334 17.9696 66.348 17.8526 66.3583C17.4236 66.3811 17.0204 66.4083 16.6451 66.4135C16.0888 65.9212 15.542 65.4179 15.0159 64.8939ZM13.6546 63.4605C13.8091 63.0801 13.985 62.6592 14.1837 62.2022C14.5501 62.5127 14.9173 62.8365 15.2845 63.1757C15.4927 63.37 15.6929 63.5709 15.8952 63.7696C15.4861 64.1382 15.1358 64.4554 14.8467 64.7203C14.4397 64.3089 14.0416 63.8902 13.6546 63.4605ZM13.5243 62.069C13.4368 62.4156 13.361 62.7342 13.2896 63.0389C12.9563 62.6584 12.6288 62.2721 12.3117 61.8784C12.2778 61.498 12.2476 61.0955 12.2211 60.6716C12.6818 61.0006 13.1468 61.3597 13.6126 61.7379C13.5832 61.8475 13.5516 61.9631 13.5243 62.069ZM12.1402 56.4074C12.1527 55.726 12.1895 55.0152 12.2314 54.2764C12.2852 53.5383 12.3418 52.7723 12.4309 51.9827C12.5052 51.2859 12.6045 50.5618 12.7156 49.8289C13.1535 50.1365 13.5935 50.4455 14.0446 50.7767C14.9335 51.4316 15.8518 52.1468 16.7812 52.8937C16.7312 53.007 16.6789 53.1226 16.6296 53.2344C16.4736 53.5788 16.3294 53.9232 16.1888 54.2624C16.0498 54.6024 15.9063 54.9342 15.7768 55.2654C15.2499 56.5869 14.8054 57.8364 14.4287 58.9792C14.3242 59.3015 14.2271 59.6135 14.1344 59.9181C13.4787 59.4641 12.8098 59.0704 12.1395 58.7135C12.124 57.9873 12.1211 57.2212 12.1402 56.4074ZM10.6317 59.6282C10.7715 59.7121 10.9091 59.7879 11.0504 59.8784C11.1689 59.9527 11.2896 60.0395 11.4088 60.1183C11.4514 60.3832 11.4941 60.6444 11.5383 60.8939C11.2263 60.4796 10.926 60.0557 10.6317 59.6282ZM9.71999 57.2234C9.40726 55.815 9.10335 54.2271 8.84948 52.475C8.60886 50.8054 8.42637 48.9805 8.32777 47.029C9.21446 47.5331 10.1468 48.1048 11.1247 48.7479C10.7781 52.0718 10.84 55.1329 11.096 57.7018C11.1137 57.8776 11.1343 58.0432 11.1542 58.2146C10.709 58.0123 10.266 57.8335 9.82743 57.6811C9.79137 57.5281 9.75531 57.3809 9.71999 57.2234ZM4.71695 45.2725C5.38143 45.5249 6.09814 45.848 6.86343 46.2365C6.91273 46.8333 6.97086 47.419 7.03709 47.993C7.31377 50.2734 7.7148 52.3749 8.17397 54.2565C8.39031 55.141 8.61622 55.9732 8.84654 56.7577C6.87226 53.2432 5.45869 49.3756 4.71695 45.2725ZM4.11356 38.6433C4.11356 36.1421 4.36522 33.6998 4.8369 31.3378C5.24529 31.4378 5.66546 31.5519 6.10109 31.6954C6.67652 31.8838 7.27697 32.1126 7.89435 32.3694C7.86712 32.4739 7.83843 32.5784 7.81562 32.6829C7.73835 33.0221 7.66182 33.3606 7.58456 33.6984C7.5095 34.0354 7.45211 34.3753 7.38588 34.7116C7.3535 34.8809 7.3226 35.0479 7.29022 35.2171L7.21222 35.7212C7.16218 36.0575 7.10331 36.3916 7.06284 36.7264C6.88477 38.0619 6.78543 39.3813 6.7295 40.6698C6.68093 41.9605 6.69565 43.221 6.74495 44.444C6.75746 44.6986 6.7788 44.9436 6.79499 45.1938C6.01352 44.9178 5.27399 44.7015 4.58892 44.5529C4.27986 42.6279 4.11356 40.6551 4.11356 38.6433ZM9.98416 18.6296C10.9305 19.1116 12.0585 19.7106 13.3404 20.4266C13.2079 20.6186 13.0762 20.8107 12.9423 21.0042C12.5427 21.5723 12.1873 22.1779 11.8135 22.7813C11.6288 23.0845 11.464 23.4016 11.2866 23.7144C11.199 23.8711 11.1122 24.0286 11.0247 24.1868C10.9364 24.3435 10.8598 24.5083 10.7774 24.6702C10.6155 24.9947 10.4529 25.3192 10.2917 25.643C10.1431 25.9727 9.99446 26.3031 9.84729 26.632C9.69424 26.9587 9.56473 27.2943 9.43154 27.6276L9.23212 28.1272L9.13352 28.3767L9.04375 28.6298C8.92528 28.9668 8.80607 29.3031 8.68833 29.6379C8.57575 29.975 8.47567 30.3149 8.36971 30.6527C8.31894 30.8204 8.26375 30.989 8.21592 31.1582C8.19605 31.2347 8.17545 31.3105 8.15411 31.3871C7.03414 31.0353 5.97526 30.794 4.98627 30.6512C5.94067 26.3075 7.6552 22.2544 9.98416 18.6296ZM18.7297 9.14749C18.8217 9.17619 18.9078 9.20047 19.002 9.23137C19.5892 9.39988 20.2132 9.64639 20.8858 9.88039C20.9689 9.9113 21.0557 9.93705 21.1396 9.97164C21.2235 10.007 21.3081 10.0423 21.395 10.0769C21.5657 10.1468 21.7394 10.2167 21.9167 10.2888C22.0933 10.3594 22.2728 10.4301 22.4546 10.5029C22.5458 10.539 22.6378 10.575 22.7298 10.6111C22.8218 10.6501 22.9123 10.6935 23.005 10.7332C23.0477 10.7524 23.0926 10.7715 23.1353 10.7914C22.8041 11.0276 22.473 11.2638 22.1345 11.5066C21.9005 11.6678 21.679 11.8525 21.4502 12.0283C21.2221 12.2071 20.9925 12.3867 20.7607 12.5684C18.9314 14.0431 17.0998 15.7584 15.3897 17.768C15.1815 18.024 14.9717 18.2801 14.7606 18.5391C14.6539 18.6686 14.5494 18.7981 14.4427 18.9284C14.3389 19.0608 14.2403 19.1977 14.138 19.3331C14.0961 19.3898 14.0534 19.4472 14.0107 19.5046C13.9629 19.4847 13.9092 19.4611 13.8614 19.4413C12.5184 18.8982 11.3234 18.4655 10.3072 18.1256C12.5986 14.6848 15.4493 11.6494 18.7297 9.14749ZM28.9647 3.63819C30.0493 3.93695 31.198 4.28721 32.3952 4.70517C32.819 4.85234 33.2399 5.00466 33.6586 5.16066C32.8941 5.47119 32.0986 5.80968 31.2723 6.1857C31.0721 6.27474 30.8705 6.36598 30.6652 6.45797C30.4651 6.55583 30.2605 6.65591 30.0559 6.75672C29.6453 6.95908 29.2274 7.16659 28.8006 7.37777C28.3782 7.59853 27.9543 7.83473 27.5172 8.0702C27.3002 8.18868 27.0809 8.30788 26.8587 8.43003C26.6423 8.55807 26.4238 8.68905 26.2037 8.82077C25.9823 8.95175 25.7593 9.08568 25.5356 9.22034C25.3384 9.3366 25.1404 9.45802 24.9469 9.58458C24.8616 9.55588 24.7747 9.52498 24.6901 9.49628C24.2434 9.34617 23.8049 9.2012 23.3751 9.0636C22.1397 8.71407 20.9711 8.45653 19.9049 8.29096C22.6717 6.34685 25.7144 4.77287 28.9647 3.63819ZM27.8292 13.0136C28.0456 13.1211 28.2619 13.2292 28.4775 13.3359C28.6931 13.4434 28.9109 13.5449 29.1199 13.6649C29.5416 13.8952 29.9632 14.1211 30.3812 14.3426C30.5916 14.4522 30.7999 14.5619 31.0066 14.67C31.1104 14.7238 31.2134 14.7775 31.3172 14.8312C31.4209 14.8842 31.5188 14.946 31.6203 15.0019C31.7094 15.0527 31.794 15.1005 31.8838 15.1505C30.7807 15.9283 29.5526 16.8415 28.2008 17.9541C27.1626 18.8246 26.0477 19.7915 24.9167 20.9064C24.0823 21.7217 23.225 22.6047 22.3692 23.5694C22.2177 23.484 22.0653 23.3994 21.9152 23.3155C21.5473 23.1132 21.1838 22.9123 20.8254 22.7143C20.4634 22.5245 20.105 22.3368 19.7511 22.1521C19.5737 22.0602 19.3986 21.9697 19.2227 21.8791C19.0476 21.7923 18.8725 21.7062 18.6996 21.6194C18.3515 21.4494 18.0101 21.2787 17.6723 21.1183C17.049 20.8239 16.4486 20.5509 15.8607 20.2919L15.9534 20.1631L16.1116 19.9623L16.4251 19.5642L16.737 19.1668C16.8401 19.0344 16.9431 18.9004 17.0542 18.7753C18.7761 16.7098 20.6687 14.8562 22.6246 13.2322C23.3457 12.6325 24.0757 12.074 24.8064 11.5346C24.9786 11.6177 25.1515 11.7016 25.3266 11.7862C25.7277 11.979 26.1405 12.1726 26.5614 12.3668C26.9771 12.578 27.3995 12.7944 27.8292 13.0136ZM15.1366 34.4467C13.3558 33.4761 11.631 32.6704 9.99078 32.0375C10.032 31.8911 10.0725 31.7439 10.1181 31.5982L10.2689 31.1369C10.3727 30.8285 10.4654 30.5151 10.578 30.2075C10.6913 29.8999 10.8054 29.5908 10.9187 29.2796L11.0048 29.0463L11.0997 28.8167C11.163 28.6622 11.2255 28.5084 11.2896 28.3531C11.4154 28.0441 11.539 27.7314 11.684 27.4267C11.823 27.1199 11.9629 26.8108 12.1041 26.501C12.2572 26.1971 12.4103 25.891 12.564 25.5841C12.642 25.4318 12.7142 25.2751 12.7973 25.1257L13.0468 24.6754L13.2955 24.2243C13.3779 24.0742 13.4574 23.9226 13.5494 23.7784C13.7274 23.4848 13.904 23.1926 14.0806 22.9005L14.2138 22.6805L14.3536 22.4671L14.6369 22.0403L14.9188 21.6142L15.0549 21.4082C16.8526 22.4538 18.8659 23.6879 21.0535 25.125C18.9461 27.7115 16.8629 30.8021 15.1366 34.4467ZM12.6273 41.0304C12.0342 43.0951 11.5986 45.1415 11.3227 47.118C11.3183 47.1482 11.3153 47.1776 11.3109 47.2085C10.2638 46.6559 9.24831 46.1732 8.28067 45.7692C8.27846 45.7037 8.27626 45.6375 8.27479 45.572C8.27331 45.4396 8.27258 45.3071 8.27184 45.1739C8.2689 44.9083 8.26595 44.6397 8.26375 44.3689C8.26743 44.0988 8.27258 43.8266 8.27552 43.5521C8.27846 43.4145 8.27993 43.2776 8.28288 43.1386C8.28729 43.0002 8.29392 42.8619 8.29907 42.7235C8.31011 42.4447 8.32188 42.1643 8.33292 41.8817C8.35205 41.6021 8.37045 41.3173 8.39031 41.0318C8.39914 40.8891 8.40944 40.7463 8.41901 40.6021C8.43226 40.4593 8.44697 40.3151 8.45948 40.1709C8.55441 39.0141 8.72218 37.8346 8.92012 36.6337C8.97605 36.3342 9.0305 36.0325 9.08643 35.73C9.13794 35.4261 9.21446 35.1259 9.27701 34.8213C9.38592 34.2738 9.53235 33.7285 9.66995 33.1774C9.89512 33.2878 10.1174 33.3944 10.3462 33.5122C11.659 34.1884 13.0409 34.9964 14.4721 35.9125C13.7429 37.6042 13.1292 39.3239 12.6273 41.0304ZM20.3081 40.0561C21.133 40.6985 21.9704 41.3733 22.8137 42.0745C22.7673 42.1444 22.7195 42.207 22.6731 42.2769C22.1867 43.0186 21.6908 43.7486 21.2397 44.4977C21.0094 44.87 20.7827 45.2409 20.5568 45.6095C20.3398 45.9841 20.1242 46.3564 19.9108 46.7258C19.8041 46.9113 19.6988 47.0952 19.5921 47.2792C19.4921 47.4661 19.3898 47.6515 19.289 47.8362C19.0896 48.2071 18.8909 48.5743 18.6944 48.9385C18.506 49.3072 18.3199 49.6729 18.1352 50.0364C18.0439 50.2174 17.9527 50.397 17.8622 50.5765C17.7761 50.7583 17.6885 50.9386 17.6031 51.1181C17.5973 51.1314 17.5914 51.1431 17.5855 51.1564C16.6156 50.4507 15.6473 49.7752 14.6884 49.1674C14.1233 48.809 13.5626 48.4713 13.007 48.1482C13.0799 47.7545 13.1387 47.3719 13.2212 46.9701C13.5876 45.2173 14.063 43.3895 14.6715 41.5153C15.1432 40.0789 15.687 38.6124 16.3198 37.1348C17.6149 38.0244 18.9468 38.9987 20.3081 40.0561ZM21.3376 56.8327C21.7188 57.1881 22.0859 57.5531 22.4575 57.9151C21.2368 58.9983 20.0947 60.0138 19.0807 60.9174C18.4155 61.5105 17.8011 62.0587 17.2455 62.5569C17.01 62.3163 16.779 62.0749 16.5251 61.8387C16.0137 61.3648 15.4795 60.9307 14.9372 60.5171C15.2293 59.8858 15.5509 59.2095 15.9055 58.4906C16.5604 57.155 17.3404 55.6686 18.2183 54.0762C19.2485 54.9431 20.289 55.8533 21.3376 56.8327ZM31.3944 65.3877C31.4783 65.359 31.5607 65.3303 31.6431 65.3016C31.7256 65.27 31.8072 65.2376 31.8897 65.2059C32.0545 65.1412 32.2201 65.0764 32.3856 65.0117C32.7168 64.8792 33.0552 64.7534 33.3893 64.6084C33.7219 64.4613 34.0567 64.3119 34.3945 64.1618C36.5579 63.1772 38.5999 62.0043 40.4601 60.7732C40.7736 61.2132 41.0819 61.6525 41.3799 62.0911C42.1754 63.2633 42.9061 64.4304 43.5816 65.5856C40.8162 66.5452 37.4519 67.5342 33.5085 68.2369C33.1038 68.3017 32.7035 68.3605 32.3025 68.4209C31.911 67.5069 31.4393 66.5489 30.8874 65.5614C31.0559 65.5032 31.2237 65.4466 31.3944 65.3877ZM44.9819 68.1295C45.3645 68.8786 45.7067 69.6144 46.0275 70.3407C43.1283 71.2973 39.4873 72.0869 35.1804 72.2304C34.6498 72.248 34.1237 72.2488 33.5983 72.2488C33.4497 71.6505 33.2539 71.0037 33.0258 70.3319C33.3025 70.2907 33.5725 70.262 33.8522 70.2141C36.6447 69.7218 39.3468 68.9065 41.7434 67.944C42.0429 67.8241 42.3387 67.7034 42.6323 67.5864C42.923 67.465 43.2041 67.3296 43.4852 67.2045C43.7574 67.0794 44.0268 66.9565 44.2924 66.8344C44.5301 67.2678 44.7626 67.7005 44.9819 68.1295ZM48.6766 74.9477C48.4558 73.7049 48.1372 72.365 47.6824 70.9441C48.4889 70.5386 49.2299 70.1192 49.8944 69.7071C51.5905 68.663 52.7988 67.6563 53.5163 67.0286C54.2205 66.3818 54.4559 66.1294 54.0976 66.4039C53.9173 66.54 53.6627 66.7225 53.3308 66.9374C52.9945 67.1456 52.592 67.4032 52.102 67.6718C51.1321 68.22 49.8532 68.8683 48.2719 69.5202C47.9716 69.6431 47.6486 69.7645 47.3256 69.8859C46.8966 68.6681 46.3771 67.4002 45.7678 66.0934C46.0422 65.9506 46.3248 65.8042 46.589 65.6688C47.0518 65.4009 47.4955 65.1456 47.9187 64.9028C48.1284 64.7799 48.3329 64.6607 48.5324 64.5437C48.7259 64.4193 48.9143 64.2986 49.0968 64.1824C49.4588 63.9476 49.798 63.7284 50.1115 63.526C50.266 63.423 50.4176 63.3288 50.5559 63.2295C50.6935 63.1301 50.826 63.0359 50.9504 62.9454C51.1983 62.7651 51.4169 62.6054 51.6075 62.4656C52.361 61.9071 52.6178 61.6812 52.2359 61.9086C51.8518 62.1352 51.149 62.4885 50.1564 62.9609C49.6531 63.1816 49.0784 63.4348 48.4345 63.7173C48.1166 63.8652 47.7671 63.9925 47.408 64.1397C47.0496 64.2854 46.6736 64.4377 46.2799 64.5967C45.9466 64.7247 45.5926 64.8579 45.2343 64.9911C44.4543 63.4259 43.5536 61.8137 42.5102 60.1683C42.3932 59.9829 42.2659 59.7945 42.1452 59.6076C43.1084 58.9056 44.0304 58.2146 44.8561 57.5207C45.7987 56.7694 46.6236 56.0034 47.38 55.3264C47.5706 55.1587 47.7487 54.9865 47.9201 54.8187C48.0931 54.6509 48.2601 54.4876 48.4212 54.3301C48.7435 54.0144 49.0438 53.7171 49.3204 53.4449C49.8642 52.89 50.2969 52.4073 50.6273 52.0453C51.2837 51.3168 51.4986 51.0276 51.1498 51.3359C50.8024 51.6435 50.1387 52.1314 49.2086 52.8054C48.2564 53.4522 47.0459 54.2985 45.55 55.2492C45.3645 55.3706 45.1754 55.4942 44.9819 55.6208C44.7898 55.7459 44.5853 55.8658 44.3829 55.9931C43.9767 56.2462 43.5551 56.5082 43.118 56.7819C42.9024 56.9218 42.6743 57.0505 42.4454 57.1859C42.2166 57.3213 41.9848 57.4589 41.7493 57.5995C41.5271 57.7327 41.2997 57.8688 41.0716 58.0057C40.6742 57.4302 40.2555 56.8518 39.8265 56.272C39.112 56.3537 38.3828 56.3978 37.6447 56.3978C37.46 56.3978 37.268 56.3816 37.0811 56.3772C37.8125 57.2676 38.5277 58.1617 39.2055 59.0587C37.4578 60.0322 35.5365 61.0344 33.4099 62.0035C33.0876 62.1492 32.7675 62.2949 32.4474 62.4399C32.1281 62.5819 31.8028 62.7107 31.4842 62.8475C30.8852 63.111 30.2811 63.3369 29.6858 63.5701C29.4849 63.2604 29.2767 62.9491 29.0596 62.6364C27.9867 61.0874 26.713 59.5016 25.2464 57.9166C26.4613 57.0159 27.7468 56.0306 29.0824 54.9681L28.139 54.7083L28.1302 53.5059C28.1287 53.2977 28.1243 53.1012 28.1206 52.9003C26.674 54.1778 25.2744 55.4177 23.9601 56.5825C23.554 56.1756 23.1404 55.7702 22.7085 55.3669C21.5605 54.294 20.3758 53.2977 19.1815 52.3602C19.3052 52.1439 19.42 51.9364 19.5465 51.7171C21.0006 49.2101 22.7033 46.4874 24.629 43.6183C26.1331 44.9267 27.6585 46.3321 29.1891 47.8208L30.2436 48.3256C31.7101 49.0283 33.0383 49.5287 34.1914 49.8112C34.4622 49.8775 34.7322 49.9349 34.9994 49.9856C37.0413 48.1644 38.9987 46.3005 40.8045 44.4763C40.5609 44.2284 40.2504 43.9289 39.8486 43.5617C39.6816 43.4101 39.4888 43.2364 39.2974 43.0635C37.4328 44.7015 35.3894 46.4977 33.1722 48.4455C33.1487 48.4212 33.1259 48.3962 33.1023 48.3719C30.78 45.9841 28.3487 43.7751 25.8932 41.7743C27.5916 39.3335 29.3326 37.0038 31.0074 34.8669C30.7734 34.4842 30.5651 34.1112 30.4128 33.7653C30.3068 33.5232 30.2149 33.2649 30.1332 32.9971C29.6335 33.5203 29.128 34.0582 28.61 34.6388C27.1324 36.304 25.5871 38.1907 24.0492 40.3122C23.0374 39.5351 22.0241 38.7941 21.0167 38.0951C19.679 37.1664 18.3493 36.3165 17.0395 35.5365C18.6105 32.159 20.5561 28.9926 22.629 26.1831C24.7821 27.6511 27.0551 29.2972 29.4106 31.1376C29.5541 31.2502 29.6939 31.3665 29.8359 31.4805C29.7917 31.0662 29.7653 30.649 29.78 30.2303C29.7991 29.6784 29.8904 29.142 30.0132 28.6122C29.9294 28.5481 29.8455 28.4841 29.7623 28.4208C29.5769 28.2796 29.3929 28.1368 29.2053 27.9999C29.0162 27.866 28.8285 27.7306 28.6409 27.596C28.2649 27.3281 27.8896 27.0625 27.5172 26.7976C27.1375 26.5437 26.7615 26.2898 26.3862 26.0389C26.1979 25.9138 26.011 25.7894 25.8241 25.6658C25.6349 25.5459 25.4458 25.4274 25.2582 25.3089C24.8814 25.0735 24.5076 24.8395 24.1375 24.6077C24.0683 24.5665 24.0014 24.5267 23.9322 24.4863C24.958 23.1971 25.9984 21.9917 27.0198 20.8858C27.3252 20.5634 27.6151 20.2367 27.9168 19.9314C28.217 19.6252 28.5114 19.3235 28.7991 19.0285C29.0912 18.7356 29.3841 18.4567 29.6659 18.18C29.8065 18.041 29.9463 17.9041 30.0839 17.7694C30.2252 17.6377 30.365 17.5075 30.5033 17.3794C31.2267 16.6988 31.9088 16.0851 32.5453 15.5258C32.6321 15.5744 32.7219 15.6252 32.8073 15.6737C33.2002 15.8893 33.5821 16.1005 33.9559 16.3073C34.3283 16.5178 34.68 16.7385 35.0295 16.9401C35.7234 17.3507 36.3761 17.7268 36.9729 18.0638C39.2952 19.5038 40.725 20.2801 40.2209 19.896C39.9693 19.7047 39.5631 19.3177 38.9965 18.7694C38.7132 18.495 38.3872 18.1815 38.0237 17.8305C37.839 17.6568 37.6521 17.4648 37.4409 17.2823C37.229 17.0991 37.0068 16.907 36.7757 16.7069C36.3106 16.3088 35.8022 15.879 35.2481 15.4228C35.1083 15.3102 34.9707 15.1903 34.8228 15.0806C34.6734 14.9703 34.5211 14.8584 34.3673 14.7451C34.2076 14.6274 34.0354 14.5045 33.8698 14.3845C34.5887 13.7775 35.212 13.2675 35.6962 12.8694C36.8434 11.9518 37.2459 11.5898 36.6683 11.9893C36.3805 12.1888 35.9721 12.4492 35.4504 12.7738C35.1907 12.9364 34.9088 13.1248 34.5954 13.3249C34.2848 13.528 33.9405 13.7399 33.5814 13.9835C33.5387 14.0122 33.4872 14.0475 33.4438 14.0769C33.4305 14.0681 33.418 14.0593 33.4055 14.0497C33.0736 13.8128 32.73 13.5714 32.3746 13.3249C32.0125 13.0902 31.6314 12.8606 31.2421 12.6229C30.8528 12.386 30.4511 12.1468 30.0383 11.9047C29.8337 11.7796 29.6151 11.6729 29.3973 11.5596C29.1788 11.4478 28.9573 11.3359 28.7336 11.2218C28.2833 10.9981 27.8395 10.77 27.3899 10.564C27.1339 10.4551 26.8829 10.3528 26.6298 10.2468C27.2737 9.81343 27.9161 9.39326 28.5518 9.00179C30.5107 7.79794 32.4048 6.7707 34.1642 5.92668C34.3901 5.81631 34.6064 5.71549 34.8272 5.61027C35.6447 5.93404 36.4394 6.26812 37.1966 6.60661C37.3835 6.68829 37.5689 6.77144 37.7522 6.85165C37.9324 6.937 38.112 7.02089 38.2886 7.10478C38.6411 7.27255 38.9913 7.42634 39.3188 7.59632C39.6507 7.75894 39.9715 7.91715 40.2798 8.06947C40.5844 8.22841 40.8766 8.38073 41.1547 8.52496C42.2673 9.10702 43.143 9.59194 43.6831 9.88481C44.2262 10.1747 44.4403 10.2601 44.2048 10.0879C43.9686 9.91719 43.5897 9.56692 43.0518 9.07537C42.7773 8.83696 42.4623 8.56396 42.1106 8.25858C41.7559 7.95394 41.3475 7.63753 40.9031 7.28432C39.998 6.6044 38.9141 5.82587 37.5962 5.08266C37.3585 4.94653 37.1054 4.81261 36.853 4.67868C39.1562 3.661 41.0679 2.94576 42.3659 2.45421C44.1518 1.8074 44.7972 1.54397 43.9289 1.81034C43.4947 1.94427 42.8913 2.11278 42.1246 2.32029C41.7383 2.41742 41.321 2.55208 40.8604 2.686C40.3983 2.8214 39.8979 2.96857 39.3585 3.12751C38.3725 3.44172 37.2511 3.81112 36.0229 4.25631C35.0972 3.80155 34.0943 3.36593 32.9927 2.98108C32.6954 2.87806 32.3981 2.78314 32.0994 2.69189C35.0089 1.95899 38.0524 1.56531 41.1893 1.56531C51.3764 1.56531 60.587 5.6581 67.2965 12.2984C60.2066 4.74344 50.152 -0.000583649 38.9693 -0.000583649C17.5067 -0.000583649 0.122314 17.403 0.122314 38.8633C0.122314 60.3199 17.5067 77.7123 38.9693 77.7123C52.8827 77.7123 65.0382 70.3922 71.9066 59.4185C66.5864 67.2803 58.314 72.9743 48.6766 74.9477Z" fill="#76787A"/>
</g>
</g>
</svg>
