<svg width="34" height="32" viewBox="0 0 34 32" fill="none" xmlns="http://www.w3.org/2000/svg">
<g clip-path="url(#clip0_4095_6603)">
<rect x="0.361633" width="33.2767" height="32" rx="4.27723" fill="none"/>
<path d="M26.1588 6.37913C25.9332 6.24443 25.753 6.05371 25.5513 5.88922C24.1681 4.76399 22.6012 4.0035 20.885 3.53982C20.2072 3.35625 19.5185 3.23348 18.8192 3.17626C18.2523 3.13097 17.6831 3.09044 17.1138 3.12382C16.3261 3.1703 15.5432 3.2609 14.7723 3.4385C14.7174 3.45161 14.6494 3.45161 14.6076 3.53028C14.9728 3.63995 15.3236 3.77345 15.659 3.94033C15.8034 4.01185 15.9227 4.00946 16.0695 3.95463C16.6901 3.72696 17.3262 3.5434 17.9623 3.36221C18.0184 3.34553 18.0757 3.32288 18.1557 3.35149C18.0363 3.45757 17.8979 3.4838 17.7726 3.52909C17.2928 3.70551 16.8202 3.8998 16.35 4.10005C16.3023 4.12032 16.2247 4.11436 16.2247 4.18826C16.2247 4.24786 16.2927 4.25382 16.3345 4.27766C17.1305 4.72227 17.8406 5.2825 18.5101 5.89756C18.5304 5.91664 18.5531 5.93332 18.5387 5.97027C18.4588 5.99769 18.4051 5.93452 18.3466 5.90233C17.436 5.40051 16.5075 4.93444 15.5397 4.55062C15.4645 4.52082 15.4072 4.52201 15.3356 4.55658C14.4453 4.98927 13.5824 5.47203 12.7518 6.0108C12.6444 6.07994 12.6802 6.11927 12.7637 6.15503C13.5108 6.47806 14.2161 6.87618 14.8785 7.34821C14.9549 7.40304 15.0062 7.3792 15.0706 7.3351C15.3785 7.12769 15.69 6.92386 15.9991 6.71765C16.0492 6.68427 16.0946 6.64136 16.1746 6.64017C16.0803 6.79274 15.9299 6.87141 15.8082 6.97869C15.6327 7.13127 15.4466 7.27311 15.2628 7.41615C15.1613 7.49482 15.1804 7.5425 15.2783 7.61402C16.0063 8.14803 16.6472 8.78217 17.3047 9.39604C17.3107 9.402 17.3095 9.4163 17.3143 9.43656C17.2534 9.46636 17.214 9.42107 17.1699 9.39604C16.455 8.97884 15.7402 8.56046 15.0229 8.14565C14.6601 7.93466 14.6565 7.93466 14.3474 8.21716C13.4488 9.03963 12.5955 9.90621 11.8257 10.8538C11.7398 10.9599 11.7434 11.01 11.8615 11.0779C12.4964 11.4474 13.0943 11.8718 13.6851 12.3069C13.7567 12.3593 13.7877 12.4106 13.7782 12.5C13.7519 12.7634 13.6839 13.0244 13.7364 13.2926C13.7423 13.3248 13.7423 13.363 13.7054 13.3796C13.6695 13.3963 13.6433 13.3701 13.617 13.3487C12.9058 12.7694 12.1563 12.2425 11.4092 11.7109C11.2767 11.6167 11.2182 11.6322 11.1252 11.7633C10.4879 12.6609 9.9198 13.6002 9.43288 14.5883C9.36366 14.729 9.36962 14.8017 9.51642 14.8887C10.2349 15.313 10.9199 15.7875 11.5822 16.294C11.698 16.3823 11.7529 16.3668 11.8317 16.2583C12.4129 15.4573 13.0549 14.7063 13.7244 13.9768C13.7961 13.8982 13.845 13.8994 13.8772 13.9971C13.9333 14.1735 14.0168 14.3368 14.1111 14.4942C14.1589 14.574 14.1159 14.6145 14.0729 14.6682C13.5299 15.3512 13.0191 16.058 12.506 16.7625C12.4164 16.8865 12.4188 16.9532 12.5453 17.0557C13.3175 17.6851 14.0526 18.3562 14.7448 19.0714C14.851 19.181 14.9167 19.1667 15.0169 19.0773C15.5074 18.6423 16.0015 18.2108 16.4932 17.7769C16.6221 17.6636 16.7534 17.5516 16.8763 17.43C16.9563 17.3513 17.0112 17.3633 17.0851 17.4372C17.1937 17.548 17.3107 17.6517 17.43 17.7518C17.5088 17.8186 17.5243 17.8687 17.442 17.9521C16.8453 18.5576 16.2259 19.1393 15.5957 19.7103C15.5337 19.7663 15.4716 19.7711 15.3964 19.7568C14.7245 19.6256 14.0968 19.3646 13.512 19.0237C13.2399 18.8664 13.0358 18.5934 12.7983 18.3753C12.5525 18.15 12.3019 17.9294 12.0584 17.7018C11.9606 17.61 11.9092 17.6362 11.8412 17.7375C11.414 18.3812 10.9963 19.0296 10.6 19.6912C10.4521 19.9379 10.3089 20.1894 10.1561 20.4338C10.1024 20.5208 10.0964 20.5721 10.1847 20.6424C10.6776 21.0322 11.1538 21.4422 11.5954 21.8904C11.6765 21.9727 11.7266 21.9715 11.8126 21.894C12.2088 21.5364 12.611 21.1859 13.012 20.8343C13.043 20.8069 13.0669 20.7521 13.1206 20.7771C13.1719 20.8021 13.148 20.8558 13.1492 20.8975C13.1528 20.9642 13.154 21.031 13.1492 21.0977C13.1373 21.267 13.1456 21.4041 13.3748 21.4184C13.4893 21.4255 13.4607 21.5042 13.3843 21.5626C13.0358 21.8296 12.6909 22.1014 12.3389 22.3624C12.2207 22.4506 12.1945 22.5019 12.3078 22.6283C12.7804 23.1527 13.2256 23.6998 13.6087 24.2946C13.6946 24.427 13.7817 24.3602 13.8653 24.3268C14.5109 24.0717 15.1446 23.7892 15.7628 23.4746C16.1089 23.2981 16.4502 23.1122 16.7963 22.937C16.893 22.8881 16.9014 22.8464 16.8333 22.7629C16.6484 22.5341 16.4693 22.3005 16.2879 22.068C16.2605 22.0334 16.2175 22.0001 16.2378 21.9524C16.2593 21.9011 16.3154 21.919 16.3572 21.919C16.5911 21.9143 16.825 21.9143 17.0589 21.9071C17.1436 21.9047 17.2045 21.9226 17.2546 22.0001C17.3322 22.1217 17.4277 22.2313 17.5052 22.3529C17.5721 22.4566 17.6389 22.4602 17.7391 22.4006C18.2464 22.1014 18.7464 21.7903 19.2405 21.4708C19.8611 21.0691 20.4781 20.6639 21.0545 20.199C21.0712 20.1847 21.0927 20.1763 21.1309 20.2014C21.0032 20.3873 20.8433 20.5435 20.6905 20.7056C19.9052 21.534 19.0615 22.2969 18.133 22.9632C18.0232 23.0419 18.0136 23.1074 18.0876 23.2195C18.411 23.7118 18.7046 24.2207 18.966 24.7488C19.0185 24.8549 19.0698 24.8811 19.1856 24.8346C19.9327 24.533 20.6845 24.2434 21.391 23.85C21.4173 23.8345 21.4507 23.831 21.5187 23.8107C21.3743 24.0133 21.1786 24.092 21.0199 24.2112C20.5055 24.5926 19.9553 24.9181 19.3909 25.2196C19.2667 25.2852 19.2512 25.3424 19.3061 25.4664C19.4458 25.781 19.5758 26.0993 19.6976 26.4211C19.7465 26.5499 19.8002 26.5689 19.9267 26.5177C20.6583 26.2161 21.3708 25.88 22.02 25.4235C22.0415 25.4091 22.0629 25.396 22.0928 25.3913C22.0236 25.5331 21.9006 25.6261 21.7849 25.7214C21.2538 26.1637 20.6917 26.5618 20.0711 26.8705C19.9291 26.942 19.8957 27.0267 19.9458 27.1757C20.0508 27.4856 20.1344 27.8038 20.1821 28.1281C20.2048 28.2866 20.2597 28.3176 20.4232 28.2806C21.9997 27.9302 23.4533 27.2961 24.7899 26.3961C25.8163 25.706 26.7137 24.8728 27.4954 23.9144C27.536 23.8643 27.5682 23.8 27.6506 23.7869C27.6721 23.8572 27.6243 23.9013 27.5909 23.9454C26.9393 24.7941 26.2089 25.5701 25.3843 26.2531C24.5369 26.954 23.618 27.544 22.6239 28.0148C21.6572 28.4725 20.6523 28.8146 19.6021 29.0304C18.5948 29.2378 17.5804 29.3248 16.5553 29.3046C15.659 29.2867 14.7735 29.177 13.8975 28.9791C12.7148 28.7121 11.5906 28.2949 10.5249 27.7192C8.96983 26.8801 7.6308 25.7787 6.50778 24.4138C5.71534 23.4507 5.07209 22.3982 4.57443 21.2575C4.20924 20.4219 3.94191 19.5565 3.75335 18.6637C3.56717 17.7805 3.47408 16.8888 3.46812 15.9889C3.46334 15.3071 3.51943 14.6265 3.62088 13.9494C3.74977 13.0852 3.961 12.2437 4.25459 11.4224C4.76418 9.99918 5.49456 8.69992 6.4493 7.52581C7.54129 6.18245 8.84094 5.08701 10.3542 4.24071C11.1419 3.79967 11.9653 3.44208 12.8246 3.1703C13.6934 2.89496 14.5837 2.7102 15.4943 2.62318C16.2318 2.55286 16.9706 2.54094 17.7093 2.58266C18.6784 2.63868 19.6283 2.80079 20.5616 3.06779C21.7646 3.41228 22.8983 3.9141 23.9557 4.58042C24.704 5.05245 25.4189 5.57215 26.043 6.2051C26.092 6.25397 26.1636 6.29211 26.1624 6.37674L26.1588 6.37913ZM14.345 7.79282C14.3259 7.71653 14.2508 7.70461 14.1947 7.67481C13.5156 7.31006 12.8282 6.96081 12.1348 6.62348C12.0214 6.56865 11.9498 6.58295 11.8532 6.65686C10.7958 7.46145 9.84342 8.37093 9.02472 9.42107C8.94357 9.52477 8.9567 9.5653 9.06649 9.61179C9.74555 9.90382 10.3972 10.2483 11.0428 10.6059C11.1311 10.6548 11.1717 10.6417 11.2338 10.5689C11.5739 10.1804 11.9379 9.81204 12.3186 9.46279C12.938 8.89779 13.5836 8.36259 14.271 7.87983C14.3033 7.85719 14.3391 7.83811 14.345 7.79282ZM7.94706 19.0392C7.93512 19.1274 8.00434 19.1536 8.06043 19.187C8.51632 19.4635 8.96744 19.7484 9.39707 20.0655C9.48777 20.1322 9.5188 20.1108 9.56415 20.0178C10.0403 19.032 10.5845 18.0844 11.2003 17.1797C11.2779 17.0653 11.254 17.0092 11.1622 16.9353C10.5857 16.4728 10.0045 16.0175 9.40065 15.5908C9.07127 15.3583 9.06888 15.3619 8.91732 15.7398C8.59628 16.5384 8.33731 17.3573 8.13442 18.1941C8.06521 18.4742 8.00911 18.7579 7.94706 19.0392ZM8.67147 9.98011C8.59031 9.99441 8.56883 10.0588 8.53661 10.1077C7.85636 11.1304 7.32647 12.2234 6.96128 13.3975C6.90997 13.5608 6.94696 13.6014 7.08779 13.6562C7.55323 13.8362 8.00315 14.0531 8.44352 14.2879C8.65357 14.4 8.65118 14.4036 8.75978 14.1854C9.25983 13.1782 9.86251 12.2353 10.5702 11.3592C10.6526 11.2567 10.6549 11.1959 10.5392 11.122C9.94963 10.7454 9.3553 10.3758 8.75262 10.0206C8.72279 10.0039 8.69295 9.99084 8.67147 9.98011ZM6.31325 17.6255C6.30251 17.759 6.30251 17.9747 6.31445 18.1917C6.31803 18.2656 6.33831 18.3121 6.41231 18.3455C6.6856 18.4694 6.95532 18.5993 7.22503 18.7305C7.30738 18.771 7.34437 18.7638 7.35512 18.6637C7.37302 18.504 7.39689 18.3455 7.42791 18.1881C7.63438 17.1129 7.93035 16.0652 8.36595 15.058C8.40653 14.965 8.38982 14.9078 8.30031 14.8517C7.84681 14.5692 7.38495 14.3058 6.91116 14.0591C6.82643 14.015 6.78585 14.0221 6.76079 14.1211C6.68918 14.4059 6.62712 14.692 6.57223 14.9805C6.40873 15.8268 6.31922 16.6803 6.31325 17.6255ZM11.3304 6.30522C11.334 6.25397 11.291 6.25039 11.2552 6.23609C10.8543 6.07279 10.4509 5.91544 10.0403 5.77837C9.93889 5.74499 9.86967 5.75691 9.78494 5.82485C8.74665 6.64017 7.85278 7.59137 7.10092 8.67608C7.0317 8.77501 7.0484 8.81554 7.15581 8.85368C7.47446 8.96573 7.79549 9.0742 8.10698 9.20532C8.23945 9.26134 8.3027 9.23512 8.38146 9.12665C8.64521 8.7619 8.94596 8.42695 9.25744 8.10273C9.86251 7.47217 10.5261 6.90837 11.235 6.3982C11.272 6.37197 11.3185 6.35767 11.3304 6.30522ZM14.7007 26.0719C14.9573 26.0266 15.215 25.9873 15.4704 25.9336C16.1388 25.7942 16.8023 25.6332 17.4551 25.433C17.7308 25.3484 18.0065 25.2637 18.2798 25.1719C18.3418 25.1505 18.454 25.141 18.3812 25.0182C18.0888 24.5271 17.7738 24.0503 17.4468 23.5818C17.4002 23.5139 17.3501 23.5032 17.2797 23.552C17.1556 23.6355 17.0267 23.7141 16.899 23.7916C16.0576 24.303 15.1816 24.7428 14.2508 25.067C14.1469 25.104 14.1111 25.1481 14.1756 25.2625C14.3033 25.4902 14.4178 25.7238 14.5252 25.961C14.5646 26.0492 14.6088 26.0874 14.7007 26.0719ZM7.99002 9.64278C7.99002 9.56768 7.93273 9.55576 7.89216 9.53311C7.62364 9.38769 7.35631 9.24227 7.08659 9.10042C6.88729 8.99553 6.8849 8.99791 6.76914 9.18625C6.0495 10.358 5.52798 11.6107 5.21052 12.9481C5.1783 13.0828 5.22246 13.1162 5.33703 13.1317C5.61271 13.1687 5.88123 13.2378 6.14498 13.3248C6.23926 13.3558 6.25955 13.3093 6.28222 13.2378C6.36815 12.9684 6.4493 12.6978 6.54716 12.4332C6.89803 11.476 7.3575 10.5749 7.93512 9.73337C7.95541 9.70238 7.9745 9.66781 7.99002 9.64278ZM10.4246 25.2935C10.4306 25.2935 10.4354 25.2923 10.4413 25.2923C11.3101 25.1576 12.1587 24.9431 12.9929 24.6642C13.0657 24.6403 13.074 24.5986 13.0275 24.539C12.6014 23.9907 12.1384 23.4757 11.6574 22.9751C11.6037 22.9191 11.5572 22.9286 11.4975 22.9715C10.9127 23.3959 10.3172 23.8035 9.71333 24.1993C9.63576 24.2505 9.60115 24.2899 9.67872 24.3781C9.91025 24.6403 10.1251 24.9157 10.3053 25.216C10.3327 25.2613 10.3673 25.2947 10.4246 25.2935ZM15.6817 27.3938C16.1256 27.3783 16.5696 27.3449 17.0088 27.2806C17.7403 27.1733 18.4624 27.0159 19.1689 26.7954C19.2727 26.7632 19.2739 26.7263 19.2357 26.6429C19.0997 26.3449 18.9612 26.0481 18.8001 25.7632C18.6891 25.5653 18.6915 25.5677 18.4922 25.6607C17.6831 26.0361 16.8453 26.327 15.9788 26.538C15.6554 26.6166 15.332 26.6965 15.0002 26.7382C14.8785 26.7537 14.8379 26.8038 14.8928 26.9289C14.9382 27.035 14.9632 27.1506 14.9871 27.2651C15.011 27.3759 15.0659 27.4284 15.1828 27.42C15.3487 27.4069 15.5146 27.4021 15.6817 27.3938ZM4.87159 15.8661C4.87756 16.4931 4.9241 17.1177 5.01241 17.7387C5.02793 17.8472 5.07686 17.8913 5.17472 17.9151C5.32032 17.9509 5.4695 17.9807 5.60555 18.0403C5.75473 18.1047 5.76189 18.0403 5.7595 17.9223C5.75353 17.6338 5.7595 17.3442 5.74995 17.0557C5.73325 16.5217 5.77979 15.9901 5.83827 15.462C5.89913 14.9113 5.98745 14.363 6.13066 13.8266C6.15453 13.7372 6.1223 13.6919 6.03996 13.6633C5.8144 13.5859 5.59123 13.5012 5.36328 13.4273C5.1246 13.3498 5.12102 13.3534 5.07805 13.599C4.94319 14.3487 4.87756 15.1044 4.87159 15.8661ZM13.4273 3.8402C13.3342 3.87358 13.2459 3.90576 13.1576 3.93794C12.21 4.28719 11.3221 4.75326 10.4843 5.31588C10.4497 5.33972 10.3948 5.3564 10.4055 5.41004C10.4151 5.46011 10.4688 5.44461 10.5034 5.45057C10.9891 5.54235 11.4689 5.65798 11.9343 5.82962C11.9952 5.85227 12.0489 5.85227 12.1085 5.81532C12.9821 5.27416 13.8951 4.8069 14.8487 4.4207C14.8833 4.40639 14.9322 4.39686 14.9286 4.34918C14.925 4.29911 14.8701 4.30507 14.8367 4.29315C14.5431 4.19303 14.2484 4.0929 13.9524 3.99754C13.7793 3.94271 13.6027 3.89265 13.4273 3.8402ZM17.5792 28.5929C18.3192 28.5977 19.0042 28.5429 19.6856 28.432C19.867 28.4022 19.8849 28.3748 19.8265 28.202C19.7334 27.923 19.6379 27.6453 19.54 27.3676C19.4696 27.1673 19.466 27.1661 19.2739 27.2484C18.016 27.7848 16.6961 28.0148 15.3368 28.0589C15.2676 28.0613 15.1673 28.022 15.1745 28.1579C15.1804 28.2651 15.1757 28.3653 15.3248 28.3915C16.0862 28.5226 16.8536 28.6001 17.5792 28.5929ZM9.76226 21.2241C9.70259 21.2229 9.6835 21.2563 9.6644 21.292C9.31473 21.9429 8.97102 22.5961 8.66073 23.2648C8.6285 23.3351 8.62254 23.3875 8.68937 23.4388C8.90657 23.6033 9.11065 23.7833 9.29802 23.9812C9.36008 24.0467 9.41259 24.0467 9.48181 23.9847C10.0033 23.5187 10.5261 23.0538 11.0512 22.5913C11.1335 22.5186 11.1526 22.4626 11.0607 22.3779C10.6549 22.006 10.2551 21.6294 9.83148 21.2777C9.80642 21.2563 9.77897 21.2372 9.76226 21.2241ZM7.64751 21.708C7.67137 21.8582 7.64512 22.0525 7.61886 22.2432C7.56874 22.5961 7.6845 22.8214 8.01866 22.9787C8.31702 23.1193 8.30867 23.1515 8.41369 22.8321C8.63208 22.1681 8.88271 21.5161 9.16435 20.876C9.19419 20.8081 9.20851 20.7545 9.14049 20.7008C8.74785 20.3909 8.34924 20.0881 7.94109 19.7997C7.8671 19.7472 7.82891 19.7508 7.81459 19.8569C7.73224 20.4576 7.67257 21.0584 7.64751 21.708ZM7.25487 19.5053C7.29186 19.3825 7.22145 19.2943 7.0854 19.2192C6.87655 19.1036 6.67963 18.9689 6.47556 18.8449C6.43976 18.8234 6.40515 18.7758 6.35741 18.8008C6.30251 18.8306 6.32519 18.8914 6.32877 18.9367C6.41111 19.9928 6.54597 21.0405 6.76437 22.0787C6.81688 22.3291 6.92071 22.4554 7.15223 22.5245C7.27396 22.5615 7.27993 22.54 7.268 22.4268C7.23458 22.1026 7.19997 21.776 7.19281 21.4506C7.1761 20.8129 7.18804 20.174 7.25487 19.5053ZM12.0477 26.259C12.315 26.3067 12.5811 26.2781 12.8473 26.2662C13.2244 26.2483 13.6015 26.2233 13.9763 26.1684C14.0801 26.1529 14.1183 26.1267 14.0479 26.0218C13.9118 25.8192 13.7805 25.6118 13.6564 25.402C13.6039 25.3138 13.549 25.2935 13.4523 25.3221C12.6229 25.5689 11.772 25.6869 10.9115 25.7548C10.8208 25.762 10.6955 25.6916 10.649 25.781C10.6048 25.8657 10.7206 25.9551 10.7409 26.0504C10.7755 26.2114 10.8769 26.2614 11.0309 26.259C11.3698 26.2555 11.7087 26.259 12.0477 26.259ZM6.35622 21.8058C6.39202 21.7378 6.38008 21.6997 6.37054 21.6627C6.09008 20.6507 5.90987 19.6209 5.81679 18.5767C5.80962 18.4968 5.76785 18.4551 5.70699 18.4253C5.58765 18.3681 5.46711 18.3109 5.34419 18.2608C5.27019 18.231 5.18785 18.1452 5.11744 18.2096C5.06612 18.2572 5.11386 18.3574 5.12937 18.4301C5.306 19.2669 5.55781 20.081 5.89794 20.8665C6.0328 21.1776 6.16765 21.4923 6.35622 21.8058ZM11.0715 26.7621C11.0858 26.7764 11.1001 26.7918 11.1156 26.8026C11.1657 26.8371 11.2171 26.8705 11.2684 26.9039C11.6491 27.1494 12.0942 27.1471 12.5179 27.2198C13.2077 27.339 13.9082 27.3712 14.6064 27.4141C14.6887 27.4188 14.7472 27.4093 14.6911 27.3056C14.6732 27.2722 14.6637 27.2329 14.647 27.1983C14.4298 26.7358 14.5598 26.8193 14.055 26.855C13.5395 26.892 13.0227 26.9218 12.506 26.8908C12.031 26.8634 11.5548 26.8276 11.0715 26.7621ZM9.36008 25.3948C9.46629 25.3889 9.53312 25.3877 9.59996 25.3817C9.68469 25.3734 9.69304 25.3364 9.63695 25.2756C9.46749 25.0921 9.29683 24.9097 9.12975 24.7238C9.06649 24.6534 9.00443 24.6463 8.92686 24.6999C8.58196 24.9359 8.59509 24.8441 8.88032 25.1255C8.91612 25.16 8.95312 25.1934 8.98773 25.2292C9.1011 25.3472 9.22522 25.4306 9.36008 25.3948ZM8.34686 24.0121C8.33969 24.0205 8.32418 24.0348 8.31105 24.0503C8.15829 24.2279 8.16307 24.3972 8.32537 24.5688C8.36356 24.6093 8.39698 24.6546 8.43875 24.6904C8.48529 24.7297 8.52468 24.8287 8.59628 24.7738C8.69892 24.6952 8.81587 24.6201 8.87196 24.4961C8.88987 24.4579 8.40772 24.0098 8.34686 24.0121ZM13.7447 27.9648C14.1111 28.1412 14.5109 28.2067 14.8988 28.3104C14.9429 28.3224 15.0301 28.3545 15.0157 28.258C15.0002 28.1543 14.9847 28.0458 14.8224 28.0387C14.4644 28.022 14.1052 28.0112 13.7447 27.9648ZM9.54387 25.7179C9.72646 25.8573 9.87802 25.973 10.0308 26.0874C10.0618 26.11 10.0928 26.1339 10.1275 26.1494C10.1561 26.1625 10.1931 26.1756 10.2205 26.1672C10.2528 26.1577 10.2361 26.122 10.2265 26.0957C10.106 25.7763 9.94486 25.6785 9.54387 25.7179ZM7.67973 23.6271C7.68212 23.7714 7.81459 24.0408 7.92677 24.1373C7.95541 24.1623 7.98286 24.1707 8.01508 24.1504C8.07953 24.1087 8.10578 23.7857 8.0473 23.7416C7.96854 23.682 7.88858 23.6247 7.80743 23.5675C7.77759 23.5461 7.75253 23.5032 7.70837 23.5258C7.66541 23.5485 7.6845 23.5949 7.67973 23.6271Z" fill="#7B7C7F"/>
<path d="M21.1178 13.4961C21.1571 13.5974 21.0903 13.6427 21.0557 13.6928C20.5127 14.4938 19.9124 15.2519 19.2811 15.9838C19.1426 16.1435 19.1355 16.1423 18.9863 15.9969C18.7655 15.7823 18.7655 15.7823 18.9935 15.5713C19.6093 15.0004 20.2287 14.4342 20.8122 13.8287C20.9125 13.7214 21.0104 13.6117 21.1178 13.4961Z" fill="#7B7C7F"/>
<path d="M27.7651 23.6632C27.7663 23.6489 27.7675 23.6334 27.7687 23.6191C27.7759 23.6215 27.7819 23.6251 27.789 23.6275C27.7807 23.6394 27.7711 23.6501 27.7628 23.6621L27.7651 23.6632Z" fill="#7B7C7F"/>
<path d="M14.0139 26.6827C13.9841 25.9766 13.9358 25.3635 13.8689 24.8432C14.6567 25.2148 15.3628 25.4787 15.9871 25.6347C16.6188 25.7834 17.2245 25.8577 17.8042 25.8577C18.3616 25.8577 18.8781 25.7648 19.3538 25.579C19.8368 25.3858 20.1973 25.1182 20.4351 24.7763C20.6804 24.427 20.803 24.0294 20.803 23.5835C20.803 23.3234 20.7621 23.0819 20.6804 22.8589C20.5986 22.6285 20.4648 22.3981 20.279 22.1677C20.1007 21.9299 19.7848 21.614 19.3315 21.2201C18.8855 20.8188 18.2501 20.2688 17.4252 19.5702L16.6002 18.8679C16.2881 18.6004 16.0056 18.3365 15.753 18.0764C15.5003 17.8089 15.2885 17.5562 15.1175 17.3183C14.9466 17.0731 14.8128 16.8538 14.7162 16.6606C14.627 16.4599 14.5564 16.2407 14.5044 16.0029C14.4524 15.7576 14.4263 15.5087 14.4263 15.256C14.4263 14.6168 14.601 14.0185 14.9503 13.4611C15.2996 12.9037 15.8236 12.4578 16.5222 12.1234C17.2282 11.7889 18.1572 11.6217 19.3092 11.6217C20.1341 11.6217 21.1486 11.7332 22.3526 11.9562C22.3674 12.4318 22.4195 13.0152 22.5086 13.7064C21.3715 13.3051 20.3385 13.1044 19.4095 13.1044C18.7703 13.1044 18.2352 13.2122 17.8042 13.4277C17.3731 13.6358 17.0461 13.9071 16.8232 14.2415C16.6002 14.5685 16.4887 14.9067 16.4887 15.256C16.4887 15.4641 16.5185 15.6684 16.5779 15.8691C16.6374 16.0623 16.7265 16.2481 16.8455 16.4265C17.0164 16.6866 17.2282 16.9505 17.4809 17.218C17.7336 17.4781 18.0829 17.7977 18.5288 18.1767C18.6403 18.2659 19.0639 18.6152 19.7997 19.2246C20.5429 19.8341 21.0817 20.306 21.4161 20.6404C21.758 20.9749 22.0293 21.287 22.2299 21.5769C22.4306 21.8593 22.5867 22.1677 22.6982 22.5022C22.8096 22.8292 22.8654 23.1859 22.8654 23.5724C22.8654 24.1669 22.7353 24.7169 22.4752 25.2223C22.2225 25.7202 21.8546 26.129 21.3715 26.4485C20.8959 26.7681 20.3645 26.9948 19.7774 27.1286C19.1903 27.2624 18.5771 27.3292 17.938 27.3292C17.4252 27.3292 16.8938 27.2884 16.3438 27.2066C15.8013 27.1323 15.0246 26.9576 14.0139 26.6827ZM14.4486 53.084L14.549 51.8354C14.5638 51.6124 14.5861 51.1925 14.6159 50.5757L14.928 43.0173L15.0618 37.867C15.5151 37.8744 15.8682 37.8781 16.1208 37.8781C16.381 37.8781 16.7117 37.8744 17.113 37.867C17.009 38.8183 16.9161 40.1858 16.8343 41.9694C17.6147 41.7985 18.2538 41.6833 18.7518 41.6238C19.2497 41.5644 19.7402 41.5347 20.2233 41.5347C21.1597 41.5347 21.9847 41.6536 22.6982 41.8914C23.4116 42.1292 23.9988 42.5231 24.4595 43.0731C24.9278 43.6231 25.2585 44.2288 25.4517 44.8902C25.6449 45.5517 25.7416 46.254 25.7416 46.9972C25.7416 47.8444 25.6226 48.6657 25.3848 49.4609C25.1544 50.2487 24.8014 50.951 24.3258 51.5679C23.8575 52.1773 23.2853 52.6232 22.609 52.9056C21.9327 53.188 21.1932 53.3292 20.3905 53.3292C19.9595 53.3292 19.5544 53.2809 19.1754 53.1843C18.7964 53.0951 18.4545 52.9688 18.1498 52.8053C17.8451 52.6418 17.5849 52.456 17.3694 52.2479C17.1613 52.0398 16.9867 51.8317 16.8455 51.6236C16.7117 51.4155 16.5593 51.1294 16.3884 50.7652L16.3549 53.084C15.9239 53.0691 15.6192 53.0617 15.4408 53.0617C15.3145 53.0617 14.9837 53.0691 14.4486 53.084ZM16.7228 43.4744C16.6708 44.7081 16.6336 45.5219 16.6114 45.9158C16.5891 46.3097 16.5779 46.7817 16.5779 47.3316C16.5779 48.4984 16.7117 49.394 16.9792 50.0183C17.2468 50.6426 17.6481 51.1145 18.1832 51.4341C18.7183 51.7537 19.324 51.9134 20.0003 51.9134C20.7807 51.9134 21.4533 51.7165 22.0181 51.3226C22.583 50.9287 23.0214 50.3304 23.3336 49.5278C23.6457 48.7177 23.8018 47.8779 23.8018 47.0083C23.8018 45.782 23.4748 44.7936 22.8208 44.043C22.1742 43.2923 21.1969 42.917 19.8889 42.917C19.4355 42.917 18.9636 42.9579 18.4731 43.0396C17.99 43.114 17.4066 43.2589 16.7228 43.4744Z" fill="#0066B2"/>
<path d="M14.0139 26.6827C13.9841 25.9766 13.9358 25.3635 13.8689 24.8432C14.6567 25.2148 15.3628 25.4787 15.9871 25.6347C16.6188 25.7834 17.2245 25.8577 17.8042 25.8577C18.3616 25.8577 18.8781 25.7648 19.3538 25.579C19.8368 25.3858 20.1973 25.1182 20.4351 24.7763C20.6804 24.427 20.803 24.0294 20.803 23.5835C20.803 23.3234 20.7621 23.0819 20.6804 22.8589C20.5986 22.6285 20.4648 22.3981 20.279 22.1677C20.1007 21.9299 19.7848 21.614 19.3315 21.2201C18.8855 20.8188 18.2501 20.2688 17.4252 19.5702L16.6002 18.8679C16.2881 18.6004 16.0056 18.3365 15.753 18.0764C15.5003 17.8089 15.2885 17.5562 15.1175 17.3183C14.9466 17.0731 14.8128 16.8538 14.7162 16.6606C14.627 16.4599 14.5564 16.2407 14.5044 16.0029C14.4524 15.7576 14.4263 15.5087 14.4263 15.256C14.4263 14.6168 14.601 14.0185 14.9503 13.4611C15.2996 12.9037 15.8236 12.4578 16.5222 12.1234C17.2282 11.7889 18.1572 11.6217 19.3092 11.6217C20.1341 11.6217 21.1486 11.7332 22.3526 11.9562C22.3674 12.4318 22.4195 13.0152 22.5086 13.7064C21.3715 13.3051 20.3385 13.1044 19.4095 13.1044C18.7703 13.1044 18.2352 13.2122 17.8042 13.4277C17.3731 13.6358 17.0461 13.9071 16.8232 14.2415C16.6002 14.5685 16.4887 14.9067 16.4887 15.256C16.4887 15.4641 16.5185 15.6684 16.5779 15.8691C16.6374 16.0623 16.7265 16.2481 16.8455 16.4265C17.0164 16.6866 17.2282 16.9505 17.4809 17.218C17.7336 17.4781 18.0829 17.7977 18.5288 18.1767C18.6403 18.2659 19.0639 18.6152 19.7997 19.2246C20.5429 19.8341 21.0817 20.306 21.4161 20.6404C21.758 20.9749 22.0293 21.287 22.2299 21.5769C22.4306 21.8593 22.5867 22.1677 22.6982 22.5022C22.8096 22.8292 22.8654 23.1859 22.8654 23.5724C22.8654 24.1669 22.7353 24.7169 22.4752 25.2223C22.2225 25.7202 21.8546 26.129 21.3715 26.4485C20.8959 26.7681 20.3645 26.9948 19.7774 27.1286C19.1903 27.2624 18.5771 27.3292 17.938 27.3292C17.4252 27.3292 16.8938 27.2884 16.3438 27.2066C15.8013 27.1323 15.0246 26.9576 14.0139 26.6827ZM14.4486 53.084L14.549 51.8354C14.5638 51.6124 14.5861 51.1925 14.6159 50.5757L14.928 43.0173L15.0618 37.867C15.5151 37.8744 15.8682 37.8781 16.1208 37.8781C16.381 37.8781 16.7117 37.8744 17.113 37.867C17.009 38.8183 16.9161 40.1858 16.8343 41.9694C17.6147 41.7985 18.2538 41.6833 18.7518 41.6238C19.2497 41.5644 19.7402 41.5347 20.2233 41.5347C21.1597 41.5347 21.9847 41.6536 22.6982 41.8914C23.4116 42.1292 23.9988 42.5231 24.4595 43.0731C24.9278 43.6231 25.2585 44.2288 25.4517 44.8902C25.6449 45.5517 25.7416 46.254 25.7416 46.9972C25.7416 47.8444 25.6226 48.6657 25.3848 49.4609C25.1544 50.2487 24.8014 50.951 24.3258 51.5679C23.8575 52.1773 23.2853 52.6232 22.609 52.9056C21.9327 53.188 21.1932 53.3292 20.3905 53.3292C19.9595 53.3292 19.5544 53.2809 19.1754 53.1843C18.7964 53.0951 18.4545 52.9688 18.1498 52.8053C17.8451 52.6418 17.5849 52.456 17.3694 52.2479C17.1613 52.0398 16.9867 51.8317 16.8455 51.6236C16.7117 51.4155 16.5593 51.1294 16.3884 50.7652L16.3549 53.084C15.9239 53.0691 15.6192 53.0617 15.4408 53.0617C15.3145 53.0617 14.9837 53.0691 14.4486 53.084ZM16.7228 43.4744C16.6708 44.7081 16.6336 45.5219 16.6114 45.9158C16.5891 46.3097 16.5779 46.7817 16.5779 47.3316C16.5779 48.4984 16.7117 49.394 16.9792 50.0183C17.2468 50.6426 17.6481 51.1145 18.1832 51.4341C18.7183 51.7537 19.324 51.9134 20.0003 51.9134C20.7807 51.9134 21.4533 51.7165 22.0181 51.3226C22.583 50.9287 23.0214 50.3304 23.3336 49.5278C23.6457 48.7177 23.8018 47.8779 23.8018 47.0083C23.8018 45.782 23.4748 44.7936 22.8208 44.043C22.1742 43.2923 21.1969 42.917 19.8889 42.917C19.4355 42.917 18.9636 42.9579 18.4731 43.0396C17.99 43.114 17.4066 43.2589 16.7228 43.4744Z" fill="#0066B2"/>
</g>
<defs>
<clipPath id="clip0_4095_6603">
<rect x="0.361633" width="33.2767" height="32" rx="4.27723" fill="white"/>
</clipPath>
</defs>
</svg>

